<?xml version="1.0" standalone="no"?>
<!DOCTYPE svg PUBLIC "-//W3C//DTD SVG 1.1//EN" "http://www.w3.org/Graphics/SVG/1.1/DTD/svg11.dtd" >
<svg xmlns="http://www.w3.org/2000/svg">
<metadata></metadata>
<defs>
<font id="nothssansno2-semiboldsemibold" horiz-adv-x="1753" >
<font-face units-per-em="2048" ascent="1653" descent="-395" />
<missing-glyph horiz-adv-x="708" />
<glyph horiz-adv-x="0" />
<glyph horiz-adv-x="0" />
<glyph unicode="&#xd;" horiz-adv-x="682" />
<glyph unicode=" "  horiz-adv-x="708" />
<glyph unicode="&#x09;" horiz-adv-x="708" />
<glyph unicode="&#xa0;" horiz-adv-x="708" />
<glyph unicode="!" horiz-adv-x="634" d="M168 1427h297l-43 -1067h-211zM176 114q0 60 41 101q45 41 101 41t98 -41t43 -101q-1 -60 -43 -100q-42 -41 -98 -41t-101 41q-41 40 -41 100z" />
<glyph unicode="&#x22;" horiz-adv-x="806" d="M121 1427h229l-35 -516h-161zM457 1427h229l-33 -516h-164z" />
<glyph unicode="#" horiz-adv-x="1333" d="M100 397v207h230l51 203h-178v207h231l49 200h209l-51 -200h209l51 200h207l-49 -200h176v-207h-227l-52 -203h179v-207h-230l-53 -204h-207l51 204h-209l-53 -204h-207l52 204h-179zM539 604h206l54 203h-209z" />
<glyph unicode="$" horiz-adv-x="1247" d="M88 303l201 125q86 -182 282 -219v442q-193 70 -292 162q-103 90 -103 256q0 167 113 269t280 114v201h146v-207q225 -34 348 -219l-182 -127q-64 99 -168 119v-373q235 -84 333 -186t99 -269q0 -167 -109 -282q-111 -114 -321 -129v-197h-146v199q-173 16 -294 100 t-187 221zM422 1076q0 -64 34 -102t115 -75v328q-71 -9 -108 -49q-41 -38 -41 -102zM713 209q98 9 143 63q39 55 39 124q0 68 -40 110t-142 92v-389z" />
<glyph unicode="%" horiz-adv-x="1619" d="M102 1136q0 128 95 224q98 94 229 94t229 -94q95 -96 95 -224t-95 -223q-100 -92 -229 -92t-229 92q-95 95 -95 223zM217 0l954 1427h232l-954 -1427h-232zM293 1136q1 -62 39 -101q38 -40 92 -40t95 40q40 41 40 99t-39 103q-44 43 -96 43t-92 -41t-39 -103zM870 292 q0 132 97 222q93 92 227 92t229 -92t95 -224t-96 -224t-228 -93q-134 0 -229 93q-95 94 -95 226zM1061 291.5q0 -60.5 37 -103.5q40 -41 94 -41t98 41q39 45 39 102q0 58 -41 100t-95 42t-93 -40t-39 -100.5z" />
<glyph unicode="&#x26;" horiz-adv-x="1708" d="M117 457q0 300 284 438q-45 83 -45 176q0 170 115 279q117 108 295 108t289 -94q106 -97 106 -238q0 -89 -49 -141h504v-225h-264v-84q0 -229 -103 -400l264 -276h-317l-102 111q-166 -142 -422 -142q-256 1 -406 135t-149 353zM367 457q0 -124 79 -191q74 -71 228 -71 t231 92q-123 131 -181 189q-58 60 -88 92t-41 43t-23 25t-16.5 19.5t-12.5 16.5t-15 20q-161 -72 -161 -235zM596 1054q0 -101 139 -249l332 -352q47 83 47 249v58h-287v151q55 12 90 59q35 46 35 116t-50 118t-124 47q-74 0 -128 -48t-54 -149z" />
<glyph unicode="'" horiz-adv-x="471" d="M121 1427h229l-35 -516h-161z" />
<glyph unicode="(" horiz-adv-x="724" d="M125 626q0 580 467 988l115 -123q-175 -181 -269 -389q-88 -215 -88 -476t88 -465t269 -390l-115 -123q-467 398 -467 978z" />
<glyph unicode=")" horiz-adv-x="724" d="M18 -229q177 186 269 393q88 208 88 467t-89 465t-268 395l115 123q465 -410 465 -988t-465 -978z" />
<glyph unicode="*" horiz-adv-x="858" d="M106 1141l56 157l200 -90l-20 219h172l-18 -219l202 90l54 -157l-213 -56l147 -165l-139 -101l-119 185l-119 -185l-135 101l148 165z" />
<glyph unicode="+" horiz-adv-x="1042" d="M129 604v217h272v295h238v-295h274v-217h-274v-293h-238v293h-272z" />
<glyph unicode="," horiz-adv-x="536" d="M-23 -262l183 489h264l-258 -489h-189z" />
<glyph unicode="-" horiz-adv-x="933" d="M123 446v226h686v-226h-686z" />
<glyph unicode="." horiz-adv-x="499" d="M106 124q0 58 44 99t100 41t99 -40q42 -40 42 -100t-42 -100q-43 -40 -99 -40t-100 41t-44 99z" />
<glyph unicode="/" horiz-adv-x="985" d="M14 -279l658 1760h223l-659 -1760h-222z" />
<glyph unicode="0" horiz-adv-x="1273" d="M123 714q0 234 6 302q21 189 166 313q140 125 342 125t342 -125q145 -124 166 -313q6 -68 6 -302t-6 -302q-21 -190 -166 -314q-140 -125 -342 -125t-342 125q-145 124 -166 314q-6 68 -6 302zM373 702q0 -212 6 -264q9 -102 83 -166t175 -64t175 64t83 166q6 52 6 264 q-1 212 -7 299q-6 86 -82 153t-175 67t-175 -67t-82 -153q-6 -87 -7 -299z" />
<glyph unicode="1" horiz-adv-x="770" d="M113 1196v231h458v-1427h-256v1196h-202z" />
<glyph unicode="2" horiz-adv-x="1185" d="M27 0l667 819q86 109 86 197t-59 145q-57 60 -141 60t-146 -66q-59 -68 -59 -164h-254q0 193 135.5 328t323.5 135t321 -128t133 -302t-116 -317l-390 -476h545v-231h-1046z" />
<glyph unicode="3" horiz-adv-x="1236" d="M51 268l205 113q38 -78 123 -125t207 -47q122 1 204 71t82 188t-86 191q-90 74 -244 74t-249 -33l391 496h-502v231h942l-405 -505h2q169 -9 285 -140t116 -307q0 -217 -149 -359t-389 -141q-182 0 -326 78q-143 80 -207 215z" />
<glyph unicode="4" horiz-adv-x="1310" d="M92 287l531 1140h270l-426 -913h414v285h247v-799h-247v287h-789z" />
<glyph unicode="5" horiz-adv-x="1218" d="M78 264l209 119q39 -81 115 -127t181 -47q105 0 188 77t83 193t-88 195q-91 76 -223 76q-216 0 -361 -95l133 772h695v-231h-500l-43 -242q62 19 129 19q210 1 360 -145t150 -352t-156 -354t-377 -147q-159 -1 -294 79t-201 210z" />
<glyph unicode="6" horiz-adv-x="1249" d="M102 489q0 141 108 316q47 76 93 145l313 477h285l-307 -456q36 8 80 8q177 0 325 -139q150 -135 150 -348q0 -214 -153 -362q-152 -148 -370 -148t-371 148t-153 359zM356 488q0 -117 78 -195t190 -78q112 -1 193 81q80 82 80 192t-80 190t-194 80t-189 -78 q-78 -75 -78 -192z" />
<glyph unicode="7" horiz-adv-x="1212" d="M102 1196v231h1061l-669 -1427h-269l568 1196h-691z" />
<glyph unicode="8" horiz-adv-x="1236" d="M111 455q0 130 61 221q58 93 160 147q-121 89 -121 247t121 269q118 115 286 115t287 -115q121 -111 121 -269t-121 -247q97 -49 160 -143t63 -225q0 -198 -150 -339t-360 -141q-210 -1 -358 141q-149 142 -149 339zM365 454q-1 -103 75 -174t179 -71q103 -1 179 71 t76 175t-76 174t-180 71t-178 -72t-75 -174zM446 1062q0 -71 52 -121t122 -50q70 1 120 51t51 120q0 70 -51 119q-52 48 -122 48t-121 -48t-51 -119z" />
<glyph unicode="9" horiz-adv-x="1245" d="M106 946q0 210 151 358t369 148t365.5 -145t147.5 -355q0 -117 -54 -219q-43 -94 -167 -280l-300 -453h-284l323 479q-35 -12 -82 -12q-173 0 -321 134q-148 135 -148 345zM356 953q0 -110 78 -191q81 -78 196 -78t187 78q74 74 74 188t-79 192t-188 77q-108 0 -188 -78 t-80 -188z" />
<glyph unicode=":" horiz-adv-x="516" d="M117 240q0 60 42 100q43 40 99 41q56 -1 100 -41t43 -100q1 -60 -43 -100t-100 -40t-99 40q-42 40 -42 100zM117 794q0 60 42 102q43 40 99 40t100 -40t43 -102q1 -60 -43 -100t-100 -41q-56 1 -99 41q-42 40 -42 100z" />
<glyph unicode=";" horiz-adv-x="581" d="M-14 -262l182 489h264l-258 -489h-188zM152 792q0 60 41 101q43 41 101 41t100 -40t42 -102q0 -60 -42 -100t-100 -41q-58 0 -101 41q-41 40 -41 100z" />
<glyph unicode="&#x3c;" horiz-adv-x="997" d="M59 729l795 514v-254l-408 -260l408 -260v-252z" />
<glyph unicode="=" horiz-adv-x="1101" d="M131 412v215h838v-215h-838zM131 815v215h838v-215h-838z" />
<glyph unicode="&#x3e;" horiz-adv-x="997" d="M143 217v252l408 260l-408 260v254l793 -514z" />
<glyph unicode="?" horiz-adv-x="1173" d="M111 1026q0 179 131 307q134 125 332 125t327 -123q131 -119 131 -292t-78 -275q-34 -41 -56 -63t-101 -84q-31 -27 -72 -68q-66 -80 -66 -188v-9h-239v13q0 106 40 207q14 36 37 62q22 26 58 71q5 4 26 23.5t80 67.5t97 99q30 46 30 127q0 80 -61 141q-63 60 -158 60 t-161 -60q-64 -61 -64 -141h-233zM406 104q0 60 40 97q38 41 98 41t99 -41q41 -39 41 -97t-41 -96q-39 -41 -99 -41t-98 41q-40 36 -40 96z" />
<glyph unicode="@" horiz-adv-x="1726" d="M113 599q0 307 221 527q220 220 530 220t531 -209t221 -506q0 -213 -93 -329t-257 -116q-85 0 -152 39q-64 45 -84 113q-69 -90 -205 -90q-135 0 -229 99t-94 245t94 248q94 100 224 100q131 0 190 -80v66h192v-463q0 -103 78 -103q139 0 139 271q0 217 -162 373 q-165 155 -392 155t-394 -164q-162 -170 -162 -398q-1 -228 163 -393t392 -165q133 0 244 63l82 -170q-149 -79 -326 -79q-313 0 -532 219t-219 527zM700 594q0 -72 45 -115q45 -47 115 -47t111 47q47 41 47 115t-47 117q-43 47 -111 47t-114 -46t-46 -118z" />
<glyph unicode="A" horiz-adv-x="1574" d="M82 0l706 1497l705 -1497h-272l-127 276h-615l-127 -276h-270zM575 498h422l-211 465z" />
<glyph unicode="B" horiz-adv-x="1312" d="M199 0v1427h489q170 0 283 -104q116 -101 116 -260q0 -101 -47 -178q-48 -74 -135 -109q135 -24 211 -120t76 -234q0 -180 -123 -303q-128 -119 -311 -119h-559zM455 231h260q96 0 159 60q64 55 64 143t-64 146q-63 57 -158 57h-3h-258v-406zM455 852h198q81 0 133 49 t52 125t-52 122q-52 48 -131 48h-200v-344z" />
<glyph unicode="C" horiz-adv-x="1540" d="M342 1240q218 212 548 212t556 -256l-174 -149q-152 174 -378 174t-374 -146q-143 -146 -143 -363t144 -361q145 -144 375 -144t380 178l172 -149q-106 -124 -252 -192t-315 -69q-319 1 -539 211q-219 209 -219 523q0 319 219 531z" />
<glyph unicode="D" horiz-adv-x="1583" d="M199 0v1427h510q355 0 552 -197q197 -198 197 -520t-197 -516t-550 -194h-512zM455 231h237q266 0 389 129q121 133 121 354q0 222 -122 352t-390 130h-235v-965z" />
<glyph unicode="E" horiz-adv-x="1167" d="M199 0v1427h811v-231h-555v-340h514v-231h-514v-394h569v-231h-825z" />
<glyph unicode="F" horiz-adv-x="1093" d="M199 0v1427h766v-231h-510v-358h456v-232h-456v-606h-256z" />
<glyph unicode="G" horiz-adv-x="1728" d="M342 1240q219 212 539 212q183 0 343 -82t265 -231l-189 -135q-62 99 -174 158t-245 59q-212 0 -361 -146q-143 -146 -143 -363t144 -361t346 -144t325 102q122 104 156 283h-398v227h647q9 -41 9 -102q0 -329 -205 -537q-207 -205 -523 -205q-316 1 -536 211 q-219 209 -219 523q0 319 219 531z" />
<glyph unicode="H" horiz-adv-x="1595" d="M199 0v1427h256v-557h686v557h254v-1427h-254v639h-686v-639h-256z" />
<glyph unicode="I" horiz-adv-x="671" d="M207 0v1427h256v-1427h-256z" />
<glyph unicode="J" horiz-adv-x="784" d="M63 -8v231q53 -16 117 -16q97 0 135 59q33 68 33 172v989h256v-976q0 -85 -6 -137t-27 -124t-65 -116t-122 -72q-75 -27 -156 -27h-6q-86 0 -159 17z" />
<glyph unicode="K" horiz-adv-x="1449" d="M199 0v1427h256v-684l604 684h303l-555 -628l571 -799h-299l-444 616l-180 -198v-418h-256z" />
<glyph unicode="L" horiz-adv-x="1128" d="M199 0v1427h256v-1196h567v-231h-823z" />
<glyph unicode="M" horiz-adv-x="1857" d="M199 0v1475l729 -883l729 883v-1475h-252v809l-477 -582l-477 582v-809h-252z" />
<glyph unicode="N" horiz-adv-x="1626" d="M199 0v1481l972 -955v901h256v-1480l-972 950v-897h-256z" />
<glyph unicode="O" d="M123 710q1 314 219 528t534 214t536 -214t220 -528t-219 -526.5t-535 -212.5t-535.5 212.5t-219.5 526.5zM375 709q0 -219 145 -361q142 -145 356 -145t358 145q144 144 144 362t-145 363q-143 148 -357 148t-356 -148q-145 -145 -145 -364z" />
<glyph unicode="P" horiz-adv-x="1247" d="M199 0v1427h491q174 0 310 -122t135 -313q1 -191 -133 -317t-312 -126h-235v-549h-256zM455 780h223q76 0 140 54q63 53 63 151q0 102 -62 158q-65 53 -141 53h-223v-416z" />
<glyph unicode="Q" d="M123 712q0 316 220 528t534.5 212t534.5 -213t220 -519t-202 -511l182 -209h-283l-69 82q-174 -107 -383 -107q-317 0 -533 213q-221 209 -221 524zM375 708q0 -216 145 -358q142 -145 357 -145q110 0 219 53l-314 365h283l201 -238q112 130 112 338t-145 350 q-142 148 -355 148t-358 -148.5t-145 -364.5z" />
<glyph unicode="R" horiz-adv-x="1298" d="M201 0v1427h477q188 0 320 -124q132 -125 132 -295t-102 -287q-107 -113 -278 -137l426 -584h-295l-408 569h-16v-569h-256zM457 780h200q92 0 156 60t64 148t-60 151q-60 57 -147 57h-213v-416z" />
<glyph unicode="S" horiz-adv-x="1245" d="M84 301l192 121q111 -217 359 -217q131 0 188 57q54 63 54 119q0 107 -82 156q-54 35 -95 54q-42 19 -130 51t-148 63q-80 45 -134 90q-112 92 -112 267q0 174 127 282t315 108q294 0 441 -231l-182 -125q-83 127 -254 127q-85 0 -140 -43t-55 -109q0 -56 17 -76t42 -45 q19 -16 57 -32t50 -25q15 -3 185 -73q171 -70 265 -167q89 -98 89 -274q0 -171 -127 -287q-128 -117 -373 -117q-198 0 -340 86q-141 88 -209 240z" />
<glyph unicode="T" horiz-adv-x="1091" d="M82 1196v231h928v-231h-336v-1196h-256v1196h-336z" />
<glyph unicode="U" horiz-adv-x="1531" d="M186 547v880h256v-854q0 -185 86 -275q85 -89 233 -89h3.5h2.5q148 0 233 89q86 90 87 275v854h256v-880q0 -277 -163 -423q-164 -146 -414 -147q-250 0 -418 148q-162 150 -162 422z" />
<glyph unicode="V" horiz-adv-x="1542" d="M84 1427h272l414 -929l416 929h272l-688 -1488z" />
<glyph unicode="W" horiz-adv-x="2062" d="M84 1427h260l285 -854l403 879l398 -877l288 852h260l-503 -1484l-443 964l-448 -962z" />
<glyph unicode="X" horiz-adv-x="1452" d="M94 0l473 735l-448 692h284l324 -503l322 503h280l-446 -694l477 -733h-283l-354 547l-354 -547h-275z" />
<glyph unicode="Y" horiz-adv-x="1437" d="M78 1427h276l367 -628l364 628h275l-514 -874v-553h-254v553z" />
<glyph unicode="Z" horiz-adv-x="1404" d="M80 0l807 1196h-658v231h1092l-805 -1196h774v-231h-1210z" />
<glyph unicode="[" horiz-adv-x="796" d="M188 -444v1871h564v-219h-322v-1433h322v-219h-564z" />
<glyph unicode="\" horiz-adv-x="985" d="M76 1481h221l659 -1760h-221z" />
<glyph unicode="]" horiz-adv-x="796" d="M45 -225h322v1433h-322v219h561v-1871h-561v219z" />
<glyph unicode="^" horiz-adv-x="1161" d="M74 717l506 766l507 -766h-243l-264 405l-265 -405h-241z" />
<glyph unicode="_" horiz-adv-x="843" d="M39 -174h766v-199h-766v199z" />
<glyph unicode="`" horiz-adv-x="1159" d="M328 1427h280l105 -297h-187z" />
<glyph unicode="a" horiz-adv-x="1216" d="M111 292q0 152 108 232q106 84 338 105q120 11 184 35q52 25 52 77q-1 51 -43 85t-129 34q-166 0 -277 -135l-151 129q150 211 423 211q192 0 304 -88t112 -246v-457q0 -53 20 -66t66 -13h6v-191q-39 -22 -114 -22q-131 0 -168 116q-109 -127 -350 -127q-169 0 -275 85 q-106 84 -106 236zM350 305q0 -125 197 -125q106 0 174 53q72 51 72 152v115q-29 -35 -121 -49q-5 0 -107 -13q-215 -24 -215 -133z" />
<glyph unicode="b" horiz-adv-x="1343" d="M150 0v1427h245v-544q27 76 115 125q89 47 215 47q218 0 369 -154q147 -156 147 -385t-147 -385q-151 -154 -369 -154q-124 0 -215 48q-88 49 -115 125v-150h-245zM376 516q0 -135 92 -225t223 -90t219 89t88 226t-88 226t-219 89t-223 -90t-92 -225z" />
<glyph unicode="c" horiz-adv-x="1161" d="M104 518q0 229 162 391q170 156 408 156t405 -178l-151 -158q-106 113 -252 113t-238 -92q-90 -94 -90 -232t90 -231q92 -92 238 -92t252 112l151 -157q-167 -179 -405 -179t-408 156q-162 162 -162 391z" />
<glyph unicode="d" horiz-adv-x="1343" d="M104 516q0 229 149 384t368 155q126 0 215 -47q87 -49 114 -125v544h246v-1427h-246v150q-27 -76 -114 -125q-91 -48 -215 -48q-219 0 -368 155t-149 384zM348 516q0 -136 88 -226q87 -89 217 -89h2.5h3.5q130 0 219 89q91 90 91 226t-91 226q-89 89 -219 89h-2.5h-3.5 q-130 0 -217 -89q-88 -90 -88 -226z" />
<glyph unicode="e" horiz-adv-x="1251" d="M104 508v8q0 244 152 394t384 151h3q230 0 370 -149q142 -150 142 -371q0 -32 -4 -86h-803q6 -123 90 -197t232 -74q149 0 268 119l147 -143q-177 -185 -427 -185t-402 146t-152 387zM354 627h551q-1 93 -77 159t-187 66t-195 -66t-92 -159z" />
<glyph unicode="f" horiz-adv-x="800" d="M96 809v223h168v51q0 119 27 189t86 117q82 67 256 67q65 0 106 -8v-211q-30 10 -97 10t-99 -35q-33 -29 -33 -110v-70h195v-223h-195v-809h-246v809h-168z" />
<glyph unicode="g" horiz-adv-x="1341" d="M104 519q0 226 150 382q151 154 367 154q126 0 215 -47q87 -49 114 -125v149h246v-860q0 -182 -35 -304t-139 -204q-148 -115 -365 -115q-287 0 -499 150l118 182q168 -112 334 -112t248 61q98 70 98 262v51q-38 -65 -125 -108t-210 -43q-219 0 -368 150t-149 377z M348 520q0 -135 86 -223t222 -88q134 0 221 90q92 85 92 219t-91 224q-90 89 -221 89h-3q-134 0 -220 -88t-86 -223z" />
<glyph unicode="h" horiz-adv-x="1216" d="M150 0v1427h243v-538q33 71 113 117t188 47q178 0 278 -110t99 -304v-639h-244v604q0 106 -53 168q-56 62 -154 62t-162 -66t-65 -174v-594h-243z" />
<glyph unicode="i" horiz-adv-x="544" d="M125 1298q0 62 43 104q44 42 104 42t103 -42t43 -104t-43 -104q-42 -41 -100 -41h-2.5h-3.5q-58 0 -101 41q-43 42 -43 104zM150 0v1032h245v-1032h-245z" />
<glyph unicode="j" horiz-adv-x="538" d="M-51 -213q62 -4 67 -4q71 1 101 35t30 116v1098h246v-1120q0 -348 -342 -348q-68 0 -102 6v217zM123 1296q0 62 43 105q44 41 104 41t103 -41q43 -43 43 -105t-43 -104q-43 -41 -103 -41t-104 41q-43 42 -43 104z" />
<glyph unicode="k" horiz-adv-x="1138" d="M150 0v1427h243v-833l381 438h283l-404 -461l447 -571h-279l-325 416l-103 -115v-301h-243z" />
<glyph unicode="l" horiz-adv-x="675" d="M145 305v1122h246v-1089q0 -75 27 -109t85 -34t85 8v-219q-47 -13 -117 -13q-326 0 -326 334z" />
<glyph unicode="m" horiz-adv-x="1796" d="M150 0v1032h243v-147q33 73 107 123q76 45 172 45q213 0 289 -181q88 181 337 181q170 -1 264 -111t95 -303v-639h-246v604q0 106 -47 168q-50 62 -138 62t-146 -66t-58 -174v-594h-244v604q0 106 -48 168t-134 62t-144 -68t-59 -172v-594h-243z" />
<glyph unicode="n" horiz-adv-x="1236" d="M150 0v1032h243v-147q35 70 119 123q88 45 195 45q183 0 288 -111q103 -112 103 -303v-639h-246v604q0 105 -57 168q-62 62 -164 62t-170 -66t-68 -174v-594h-243z" />
<glyph unicode="o" horiz-adv-x="1335" d="M104 516q0 233 165 390t399 157t398 -157q165 -157 165 -390t-165 -390q-164 -157 -398 -157t-399 157t-165 390zM348 516q0 -136 90 -230q89 -93 225 -93h3q138 0 230 93q92 92 92 228q0 137 -93 232q-93 94 -229 94t-227 -94t-91 -230z" />
<glyph unicode="p" horiz-adv-x="1343" d="M150 -395v1427h245v-149q27 76 115 125q89 47 215 47q218 0 369 -154q147 -156 147 -385t-147 -385q-151 -154 -369 -154q-124 0 -215 48q-88 49 -115 125v-545h-245zM376 516q0 -135 92 -225t223 -90t219 89t88 226t-88 226t-219 89t-223 -90t-92 -225z" />
<glyph unicode="q" horiz-adv-x="1337" d="M104 516q0 229 149 384t368 155q126 0 215 -47q87 -49 114 -125v149h246v-1427h-246v545q-27 -76 -114 -125q-91 -48 -215 -48q-219 0 -368 155t-149 384zM348 516q0 -136 88 -226q87 -89 217 -89h3h3q130 0 219 89q91 90 91 226t-91 226q-89 89 -219 89h-3h-3 q-130 0 -217 -89q-88 -90 -88 -226z" />
<glyph unicode="r" horiz-adv-x="880" d="M150 0v1032h243v-153q36 79 119 129q82 45 188 45q44 0 74 -6v-238q-52 10 -102 10q-126 0 -203 -74q-76 -76 -76 -202v-543h-243z" />
<glyph unicode="s" horiz-adv-x="1003" d="M70 182l157 133q33 -53 105 -91t168 -38t140 33t44 80q0 32 -29 61q-23 18 -32 24t-43 17t-50 18t-48 17q-31 10 -54 18t-27 9q-129 48 -188 112q-66 66 -66 179q0 146 107 225q103 84 258 84q215 0 334 -152l-137 -145q-68 86 -201 86q-59 0 -92 -25t-33 -54 q1 -29 5 -42t13 -20t23 -18.5t34 -18.5q19 -7 35.5 -14t40.5 -15l39 -13t38 -13t32 -11q146 -53 209 -125q68 -71 68 -182q0 -144 -108 -236t-316 -92q-156 1 -266 57t-160 152z" />
<glyph unicode="t" horiz-adv-x="765" d="M82 809v223h129v395h246v-395h227v-223h-227v-461q0 -84 30 -118q29 -34 89 -35q60 0 96 8v-219q-57 -13 -127 -13q-334 0 -334 351v487h-129z" />
<glyph unicode="u" horiz-adv-x="1220" d="M137 410v622h248v-602q1 -116 61 -174q59 -57 160 -57h4q104 0 164 59q62 56 62 174v600h247v-616q0 -213 -135 -330q-137 -113 -342 -113t-337 114t-132 323z" />
<glyph unicode="v" horiz-adv-x="1202" d="M47 1032h256l299 -614l299 614h254l-553 -1098z" />
<glyph unicode="w" horiz-adv-x="1613" d="M57 1032h242l219 -581l289 608l287 -608l219 581h241l-424 -1098l-323 670l-326 -670z" />
<glyph unicode="x" horiz-adv-x="1183" d="M66 0l391 545l-357 487h267l225 -309l223 309h268l-356 -485l391 -547h-264l-262 365l-262 -365h-264z" />
<glyph unicode="y" horiz-adv-x="1210" d="M63 1032h248l303 -778l285 778h248l-463 -1200q-46 -119 -111 -184q-92 -86 -247 -86q-65 0 -121 16v215q49 -16 109 -16h5q57 0 90 21q35 22 60 89l27 74z" />
<glyph unicode="z" horiz-adv-x="1146" d="M27 0l618 813h-512v219h942l-614 -813h586v-219h-1020z" />
<glyph unicode="{" horiz-adv-x="794" d="M92 463v127q45 3 92 24q82 43 82 166v385q0 116 70 189t176 73h164v-196h-74q-55 0 -82 -35q-24 -38 -24 -86v-313q0 -151 -82 -215q-42 -37 -99 -58q53 -15 99 -55q82 -64 82 -215v-313q0 -50 26 -85q26 -36 80 -36h74v-197h-164q-106 -1 -176 73t-70 189v385 q0 123 -82 166q-7 3 -34 15t-44 12h-14z" />
<glyph unicode="|" horiz-adv-x="630" d="M197 -53v1534h235v-1534h-235z" />
<glyph unicode="}" horiz-adv-x="794" d="M119 -180h74q54 0 80 36t26 85v313q0 151 82 215q47 41 96 55q-54 21 -96 58q-82 64 -82 215v313q0 47 -25 86q-27 35 -81 35h-74v196h164q105 -1 175 -73t70 -189v-385q0 -123 82 -166q57 -24 78 -24h14v-127q-45 -3 -92 -27q-82 -43 -82 -166v-385q0 -116 -70 -189 t-175 -73h-164v197z" />
<glyph unicode="~" horiz-adv-x="999" d="M94 606q15 112 82 182q60 70 150 70t189 -42t144 -42q78 0 105 84l141 -16q-35 -267 -250 -267q-75 0 -175 42t-146 42q-81 0 -96 -71z" />
<glyph unicode="&#xa3;" horiz-adv-x="1296" d="M111 0v188h18q183 0 264 78q76 79 76 187q0 54 -43 139h-223v184h121q-86 154 -86 258q0 176 131 301q132 123 317 123t309 -127q129 -123 129 -305h-225q0 83 -62 142q-61 59 -147 59t-146 -62q-60 -63 -61 -149q0 -86 101 -240h327v-184h-229q35 -78 35 -139 q0 -170 -103 -238h572v-215h-1075z" />
<glyph unicode="&#xa4;" horiz-adv-x="1429" d="M147 270l170 152q-86 115 -86 259t86 265l-170 150l152 151l154 -176q121 74 263 74t263 -74l156 176l151 -151l-170 -150q86 -124 86 -264t-86 -260l170 -152l-151 -149l-156 174q-121 -74 -263 -74t-263 74l-154 -174zM444 682q0 -114 79 -196q79 -80 193 -80t194 80 q79 80 79 196q1 114 -79 196t-194 83q-114 -1 -192 -83q-80 -82 -80 -196z" />
<glyph unicode="&#xa5;" horiz-adv-x="1441" d="M78 1427h276l367 -628l366 628h277l-313 -530h223v-211h-346l-78 -133h424v-211h-424v-342h-258v342h-424v211h424l-78 133h-346v211h221z" />
<glyph unicode="&#xa9;" horiz-adv-x="1740" d="M117 708q0 308 219 531q213 223 525 223t540 -217q223 -219 223 -527t-219 -534q-218 -221 -528 -221t-537 217q-223 220 -223 528zM279 712q0 -244 174 -417.5t418 -173.5q245 0 417 174q172 173 172 417t-174 418t-415 173q-242 0 -418 -173q-174 -174 -174 -418z M465 720q0 174 120 288q119 116 301 116t314 -141l-135 -135q-79 76 -175 76t-153 -60q-59 -56 -59 -146t59 -149t156 -59t172 78l135 -137q-134 -140 -314 -140q-180 -1 -300 117t-121 292z" />
<glyph unicode="&#xab;" horiz-adv-x="1122" d="M109 518l237 373h254l-242 -373l242 -373h-254zM524 518l238 373h254l-242 -373l242 -373h-254z" />
<glyph unicode="&#xac;" horiz-adv-x="1325" d="M131 788v216h1061v-603h-238v387h-823z" />
<glyph unicode="&#xad;" horiz-adv-x="933" d="M123 446v226h686v-226h-686z" />
<glyph unicode="&#xae;" horiz-adv-x="913" d="M102 1114.5q0 142.5 103 245.5q104 98 252 98t252 -100t104 -244.5t-104 -245.5q-105 -100 -253 -100t-251 102t-103 244.5zM205 1114q0 -108 74 -176q69 -72 178 -72t178 72q72 70 72 176t-71 177t-179 71t-180 -70t-72 -178zM332 948v342h139q51 0 84 -33t33 -91 t-53 -87l79 -131h-100l-65 113h-31v-113h-86zM418 1128h47q41 0 41 46q0 15 -10 28q-12 12 -29 12h-49v-86z" />
<glyph unicode="&#xaf;" horiz-adv-x="1259" d="M313 1227v174h631v-174h-631z" />
<glyph unicode="&#xb0;" horiz-adv-x="890" d="M127 1126q0 130 94 217q93 93 224 93t225 -91t94 -219t-92 -221q-96 -90 -227 -90q-131 1 -225 91t-93 220zM317 1124q0 -56 39 -92q35 -41 89 -41q54 1 91 39t37 94t-36 95q-38 38 -92 38q-54 -1 -91 -39t-37 -94z" />
<glyph unicode="&#xb4;" horiz-adv-x="1159" d="M446 1130l105 297h278l-198 -297h-185z" />
<glyph unicode="&#xb7;" horiz-adv-x="499" d="M106 517q0 58 44 99t100 41q56 -1 99 -41q42 -40 42 -100t-42 -100t-98.5 -40.5t-100.5 41.5t-44 100z" />
<glyph unicode="&#xba;" horiz-adv-x="1030" d="M100 1046q0 164 121 285q123 117 293 117t293 -118t123 -284q0 -165 -123 -282t-293 -117t-293 117q-121 118 -121 282zM317 1047q0 -83 58 -138q56 -59 139 -59t139 59q58 55 58 138t-60 137q-53 59 -137 59t-137 -59q-60 -54 -60 -137z" />
<glyph unicode="&#xbb;" horiz-adv-x="1122" d="M106 145l242 373l-242 373h254l238 -373l-238 -373h-254zM522 145l242 373l-242 373h254l238 -373l-238 -373h-254z" />
<glyph unicode="&#xc0;" horiz-adv-x="1574" d="M82 0l706 1497l705 -1497h-272l-127 276h-615l-127 -276h-270zM543 1823h280l105 -297h-187zM575 498h422l-211 465z" />
<glyph unicode="&#xc1;" horiz-adv-x="1574" d="M82 0l706 1497l705 -1497h-272l-127 276h-615l-127 -276h-270zM575 498h422l-211 465zM666 1526l104 297h281l-201 -297h-184z" />
<glyph unicode="&#xc4;" horiz-adv-x="1574" d="M82 0l706 1497l705 -1497h-272l-127 276h-615l-127 -276h-270zM410 1600q0 54 39 90t91 36t93 -34q39 -36 39 -90t-39 -90.5t-92 -36.5t-92 35.5t-39 89.5zM575 498h422l-211 465zM903 1600q-1 54 37 90t92 36t91 -35q38 -35 38 -89q1 -54 -37 -91q-38 -36 -92 -36 t-92 36q-38 35 -37 89z" />
<glyph unicode="&#xc8;" horiz-adv-x="1167" d="M199 0v1427h811v-231h-555v-340h514v-231h-514v-394h569v-231h-825zM373 1823h262l108 -297h-180z" />
<glyph unicode="&#xc9;" horiz-adv-x="1167" d="M199 0v1427h811v-231h-555v-340h514v-231h-514v-394h569v-231h-825zM500 1526l104 297h281l-201 -297h-184z" />
<glyph unicode="&#xcc;" horiz-adv-x="671" d="M63 1823h279l107 -297h-187zM207 0v1427h256v-1427h-256z" />
<glyph unicode="&#xcd;" horiz-adv-x="671" d="M207 0v1427h256v-1427h-256zM221 1526l105 297h280l-198 -297h-187z" />
<glyph unicode="&#xd2;" d="M123 710q1 314 219 528t534 214t536 -214t220 -528t-219 -526.5t-535 -212.5t-535.5 212.5t-219.5 526.5zM375 709q0 -219 145 -361q142 -145 356 -145t358 145q144 144 144 362t-145 363q-143 148 -357 148t-356 -148q-145 -145 -145 -364zM596 1823h278l107 -297h-188z " />
<glyph unicode="&#xd3;" d="M123 710q1 314 219 528t534 214t536 -214t220 -528t-219 -526.5t-535 -212.5t-535.5 212.5t-219.5 526.5zM375 709q0 -219 145 -361q142 -145 356 -145t358 145q144 144 144 362t-145 363q-143 148 -357 148t-356 -148q-145 -145 -145 -364zM774 1526l105 297h278 l-199 -297h-184z" />
<glyph unicode="&#xd6;" d="M123 710q1 314 219 528t534 214t536 -214t220 -528t-219 -526.5t-535 -212.5t-535.5 212.5t-219.5 526.5zM375 709q0 -219 145 -361q142 -145 356 -145t358 145q144 144 144 362t-145 363q-143 148 -357 148t-356 -148q-145 -145 -145 -364zM543 1642q-1 54 37 89 q38 36 92 36t92.5 -35.5t38.5 -89.5t-38.5 -90t-92.5 -36t-92 36t-37 90zM967 1642q0 54 38.5 89.5t92.5 35.5t92 -36q38 -35 37 -89q1 -54 -37 -90t-92 -36t-92.5 36t-38.5 90z" />
<glyph unicode="&#xd7;" horiz-adv-x="970" d="M119 465l217 219l-217 217l147 148l219 -220l220 220l147 -148l-217 -217l217 -219l-147 -150l-220 220l-219 -220z" />
<glyph unicode="&#xd9;" horiz-adv-x="1531" d="M186 547v880h256v-854q0 -185 86 -275t236 -89q150 -1 236 89t87 275v854h256v-880q0 -277 -163 -423q-164 -146 -414 -147q-250 0 -418 148q-162 150 -162 422zM496 1823h278l107 -297h-187z" />
<glyph unicode="&#xda;" horiz-adv-x="1531" d="M186 547v880h256v-854q0 -185 86 -275t236 -89q150 -1 236 89t87 275v854h256v-880q0 -277 -163 -423q-164 -146 -414 -147q-250 0 -418 148q-162 150 -162 422zM666 1526l104 297h279l-199 -297h-184z" />
<glyph unicode="&#xdc;" horiz-adv-x="1531" d="M186 547v880h256v-854q0 -185 86 -275t236 -89q150 -1 236 89t87 275v854h256v-880q0 -277 -163 -423q-164 -146 -414 -147q-250 0 -418 148q-162 150 -162 422zM424 1642q0 54 38 89q38 36 90 36q54 0 93 -35.5t39 -89.5t-39 -90t-93 -36t-90 36q-38 36 -38 90z M848 1642q0 54 39 89.5t93 35.5t90 -36q38 -35 38 -89t-38 -90t-90 -36q-54 0 -93 36t-39 90z" />
<glyph unicode="&#xdf;" horiz-adv-x="1269" d="M147 0v1087q0 155 113 265q115 106 278 106q164 0 276 -106t112 -258q0 -107 -68 -181q132 -42 222 -156t91 -280q1 -215 -145 -361t-369 -145q-41 0 -120 11v231q46 -16 104 -16q119 0 202 83t83 196q0 114 -84 194t-201 80q-45 0 -104 -17v180q155 21 155 164 q0 62 -43 111q-45 45 -106 45q-61 -1 -105 -47t-43 -113v-1073h-248z" />
<glyph unicode="&#xe0;" horiz-adv-x="1216" d="M111 292q0 152 108 232q106 84 338 105q120 11 184 35q52 25 52 77q-1 51 -43 85t-129 34q-166 0 -277 -135l-151 129q150 211 423 211q192 0 304 -88t112 -246v-457q0 -53 20 -66t66 -13h6v-191q-39 -22 -114 -22q-131 0 -168 116q-109 -127 -350 -127q-169 0 -275 85 q-106 84 -106 236zM338 1427h280l105 -297h-186zM350 305q0 -125 197 -125q106 0 174 53q72 51 72 152v115q-29 -35 -121 -49q-5 0 -107 -13q-215 -24 -215 -133z" />
<glyph unicode="&#xe1;" horiz-adv-x="1216" d="M111 292q0 152 108 232q106 84 338 105q120 11 184 35q52 25 52 77q-1 51 -43 85t-129 34q-166 0 -277 -135l-151 129q150 211 423 211q192 0 304 -88t112 -246v-457q0 -53 20 -66t66 -13h6v-191q-39 -22 -114 -22q-131 0 -168 116q-109 -127 -350 -127q-169 0 -275 85 q-106 84 -106 236zM350 305q0 -125 197 -125q106 0 174 53q72 51 72 152v115q-29 -35 -121 -49q-5 0 -107 -13q-215 -24 -215 -133zM485 1130l105 297h280l-198 -297h-187z" />
<glyph unicode="&#xe4;" horiz-adv-x="1216" d="M111 292q0 152 108 232q106 84 338 105q120 11 184 35q52 25 52 77q-1 51 -43 85t-129 34q-166 0 -277 -135l-151 129q150 211 423 211q192 0 304 -88t112 -246v-457q0 -53 20 -66t66 -13h6v-191q-39 -22 -114 -22q-131 0 -168 116q-109 -127 -350 -127q-169 0 -275 85 q-106 84 -106 236zM270 1288q0 54 40 90t92 37q52 0 90 -36t38 -91t-38 -91t-90 -36q-52 1 -92 37t-40 90zM350 305q0 -125 197 -125q106 0 174 53q72 51 72 152v115q-29 -35 -121 -49q-5 0 -107 -13q-215 -24 -215 -133zM696 1288q0 53 37 90q41 37 93 37t91 -36t39 -91 t-39 -91t-91 -36t-93 37q-37 37 -37 90z" />
<glyph unicode="&#xe8;" horiz-adv-x="1251" d="M104 508v8q0 244 152 394t384 151t373 -149q142 -150 142 -371q0 -32 -4 -86h-803q6 -123 90 -197t232 -74q149 0 268 119l147 -143q-177 -185 -427 -185t-402 146t-152 387zM354 627h551q-1 93 -77 159t-187 66t-195 -66t-92 -159zM381 1427h278l105 -297h-186z" />
<glyph unicode="&#xe9;" horiz-adv-x="1251" d="M104 508v8q0 244 152 394t384 151t373 -149q142 -150 142 -371q0 -32 -4 -86h-803q6 -123 90 -197t232 -74q149 0 268 119l147 -143q-177 -185 -427 -185t-402 146t-152 387zM354 627h551q-1 93 -77 159t-187 66t-195 -66t-92 -159zM537 1130l104 297h279l-199 -297h-184 z" />
<glyph unicode="&#xec;" horiz-adv-x="544" d="M2 1427h279l100 -297h-184zM152 0v1032h243v-1032h-243z" />
<glyph unicode="&#xed;" horiz-adv-x="544" d="M152 0v1032h243v-1032h-243zM156 1130l100 297h279l-195 -297h-184z" />
<glyph unicode="&#xf2;" horiz-adv-x="1335" d="M104 516q0 233 165 390t399 157t398 -157q165 -157 165 -390t-165 -390q-164 -157 -398 -157t-399 157t-165 390zM348 516q0 -136 90 -230t228 -93q138 0 230 93t91.5 229.5t-92.5 230.5q-93 94 -229 94t-227 -94t-91 -230zM385 1427h281l104 -297h-186z" />
<glyph unicode="&#xf3;" horiz-adv-x="1335" d="M104 516q0 233 165 390t399 157t398 -157q165 -157 165 -390t-165 -390q-164 -157 -398 -157t-399 157t-165 390zM348 516q0 -136 90 -230t228 -93q138 0 230 93t91.5 229.5t-92.5 230.5q-93 94 -229 94t-227 -94t-91 -230zM571 1130l105 297h278l-198 -297h-185z" />
<glyph unicode="&#xf6;" horiz-adv-x="1335" d="M104 516q0 233 165 390t399 157t398 -157q165 -157 165 -390t-165 -390q-164 -157 -398 -157t-399 157t-165 390zM324 1288q0 55 39 91t92 35.5t91 -36.5t38 -90t-38 -90t-91 -36.5t-92 35.5t-39 91zM348 516q0 -136 90 -230t228 -93q138 0 230 93t91.5 229.5 t-92.5 230.5q-93 94 -229 94t-227 -94t-91 -230zM750 1288q0 54 38 90t90 37q52 -1 92 -37t40 -90t-40 -90t-92 -37q-52 1 -90 37t-38 90z" />
<glyph unicode="&#xf7;" horiz-adv-x="1091" d="M129 604v217h836v-217h-836zM403 374q-1 60 43 100t100 40t100 -41q42 -41 42 -99t-42 -100q-42 -41 -100 -41q-56 1 -100 41t-43 100zM403 1052q-1 60 43 100t100 40t100 -41q42 -41 42 -99t-42 -100q-42 -41 -100 -41q-56 1 -100 41t-43 100z" />
<glyph unicode="&#xf9;" horiz-adv-x="1220" d="M137 410v622h248v-602q1 -116 61 -174t164 -57q104 0 164 59q62 56 62 174v600h247v-616q0 -213 -135 -330q-137 -113 -342 -113t-337 114t-132 323zM334 1427h280l105 -297h-184z" />
<glyph unicode="&#xfa;" horiz-adv-x="1220" d="M137 410v622h248v-602q1 -116 61 -174t164 -57q104 0 164 59q62 56 62 174v600h247v-616q0 -213 -135 -330q-137 -113 -342 -113t-337 114t-132 323zM496 1130l106 297h279l-199 -297h-186z" />
<glyph unicode="&#xfc;" horiz-adv-x="1220" d="M137 410v622h248v-602q1 -116 61 -174t164 -57q104 0 164 59q62 56 62 174v600h247v-616q0 -213 -135 -330q-137 -113 -342 -113t-337 114t-132 323zM268 1288q0 54 40 90t92 37q52 -1 90 -37t38 -90t-38 -90t-90 -37q-52 1 -92 37t-40 90zM694 1288q0 54 38 90t90 37 q52 -1 92 -37t40 -90t-40 -90t-92 -37q-52 1 -90 37t-38 90z" />
<glyph unicode="&#xff;" horiz-adv-x="1208" d="M63 1032h248l303 -778l285 778h248l-463 -1200q-46 -119 -111 -184q-92 -86 -247 -86q-65 0 -121 16v215q49 -16 109 -16q60 -1 95 21t60 89l27 74zM274 1288q0 54 40 90t90 37q52 -1 92 -37t40 -90t-40 -90t-92 -37q-52 1 -90 37q-40 36 -40 90zM700 1288q0 53 37 90 q41 37 93 37q52 -1 92 -37t40 -90t-40 -90t-92 -37q-52 0 -93 37q-37 37 -37 90z" />
<glyph unicode="&#x2000;" horiz-adv-x="911" />
<glyph unicode="&#x2001;" horiz-adv-x="1823" />
<glyph unicode="&#x2002;" horiz-adv-x="911" />
<glyph unicode="&#x2003;" horiz-adv-x="1823" />
<glyph unicode="&#x2004;" horiz-adv-x="607" />
<glyph unicode="&#x2005;" horiz-adv-x="455" />
<glyph unicode="&#x2006;" horiz-adv-x="303" />
<glyph unicode="&#x2007;" horiz-adv-x="303" />
<glyph unicode="&#x2008;" horiz-adv-x="227" />
<glyph unicode="&#x2009;" horiz-adv-x="364" />
<glyph unicode="&#x200a;" horiz-adv-x="101" />
<glyph unicode="&#x2010;" horiz-adv-x="933" d="M123 446v226h686v-226h-686z" />
<glyph unicode="&#x2011;" horiz-adv-x="933" d="M123 446v226h686v-226h-686z" />
<glyph unicode="&#x2012;" horiz-adv-x="933" d="M123 446v226h686v-226h-686z" />
<glyph unicode="&#x2013;" horiz-adv-x="1271" d="M123 446v226h1024v-226h-1024z" />
<glyph unicode="&#x2014;" horiz-adv-x="2295" d="M123 446v226h2048v-226h-2048z" />
<glyph unicode="&#x202f;" horiz-adv-x="364" />
<glyph unicode="&#x205f;" horiz-adv-x="455" />
<glyph unicode="&#x25fc;" horiz-adv-x="1030" d="M0 0v1030h1030v-1030h-1030z" />
</font>
</defs>
</svg>
