<?xml version="1.0" encoding="utf-8"?>
<!-- Generator: Adobe Illustrator 19.1.0, SVG Export Plug-In . SVG Version: 6.00 Build 0)  -->
<svg version="1.1" id="Layer_1" xmlns="http://www.w3.org/2000/svg" xmlns:xlink="http://www.w3.org/1999/xlink" x="0px" y="0px"
	 viewBox="0 0 206.2 40.1" style="enable-background:new 0 0 206.2 40.1;" xml:space="preserve">
<style type="text/css">
	.st0{fill:#010101;}
</style>
<g>
	<path class="st0" d="M16.8,22.4c0,0,0.2-0.1,0.1-0.2C16.9,22.3,16.7,22.3,16.8,22.4z"/>
	<path class="st0" d="M9.8,26.3c0.2,0,0.3-0.1,0.4-0.2C10,26.1,9.9,26.1,9.8,26.3z"/>
	<path class="st0" d="M9.3,25.7c0,0-0.1,0-0.1,0.2C9.3,26,9.4,25.8,9.3,25.7z"/>
	<path class="st0" d="M9.7,26C9.4,26.2,9,26,9,26.4c0-0.1,0.2-0.1,0.4-0.2c0.1,0,0.1-0.1,0.2-0.1C9.7,26.1,9.8,26.1,9.7,26
		C9.8,26,9.7,26,9.7,26z"/>
	<path class="st0" d="M16.8,22.4c-0.1,0-0.2,0.1-0.2,0.1C16.7,22.6,16.7,22.5,16.8,22.4z"/>
	<path class="st0" d="M8.8,26.1c-0.1,0-0.2,0-0.4,0c-0.1,0-0.1,0.1-0.3,0.2c0,0-0.1,0-0.1,0c0,0-0.1,0.1-0.1,0.1c-0.1,0-0.2,0-0.2,0
		c-0.3,0.2-0.7,0.3-1,0.3H6.6c-0.2,0-0.5,0.1-0.6,0.2c0.3,0.1,0.6-0.1,0.7-0.1c0.2,0,0.3,0,0.4-0.1c0.2-0.1,0.3-0.1,0.5-0.2
		c0.1,0,0.2,0,0.2,0c0.1-0.1,0.2-0.2,0.4-0.2c0.2-0.1,0.5-0.2,0.6-0.3C8.8,25.9,8.8,26.1,8.8,26.1z"/>
	<path class="st0" d="M10.6,25.7c0.1,0,0.1,0,0.1,0C10.7,25.7,10.7,25.7,10.6,25.7z"/>
	<path class="st0" d="M16.4,6.9C16.4,6.8,16.4,6.8,16.4,6.9C16.4,6.8,16.4,6.9,16.4,6.9z"/>
	<path class="st0" d="M16.4,22.6c0.1,0.1,0.2,0,0.1,0C16.5,22.6,16.4,22.6,16.4,22.6z"/>
	<path class="st0" d="M14.9,23.9c0,0,0.2-0.1,0.2-0.2C15,23.7,14.9,23.7,14.9,23.9z"/>
	<path class="st0" d="M13.1,24.8c-0.1,0-0.2,0.1-0.3,0.2C13,25,13,24.9,13.1,24.8z"/>
	<path class="st0" d="M14.7,24c0.1-0.1,0.2-0.1,0.1-0.1C14.8,23.9,14.6,24,14.7,24z"/>
	<path class="st0" d="M14.4,24.2c0.1,0,0.1-0.1,0.1-0.1C14.4,24.1,14.4,24.1,14.4,24.2z"/>
	<path class="st0" d="M2.9,20.6c0,0,0.1-0.2,0-0.2C2.9,20.5,2.9,20.6,2.9,20.6z"/>
	<path class="st0" d="M16,5C16,5,16,5,16,5C16,5.1,16,5.1,16,5C16,5.1,16,5,16,5z"/>
	<path class="st0" d="M3.2,19.4C3.2,19.4,3.2,19.3,3.2,19.4C3.1,19.4,3.2,19.5,3.2,19.4z"/>
	<path class="st0" d="M15.1,9.2c0,0,0.2,0,0.1-0.1C15.2,9.1,15,9.1,15.1,9.2z"/>
	<path class="st0" d="M20.1,14.6c-0.1-0.1-0.1-0.2-0.1-0.4c-0.1-0.2-0.2-0.4-0.3-0.6c-0.2-0.1-0.2-0.3-0.3-0.3
		c-0.1-0.1-0.3-0.2-0.5-0.3c-0.2-0.1-0.2-0.4-0.5-0.3c-0.1-0.2-0.3-0.2-0.4-0.3c-0.2-0.2-0.5-0.2-0.7-0.3c0-0.1,0,0-0.1-0.2
		c-0.2,0-0.1,0-0.2,0c0,0-0.1,0-0.1,0c-0.3-0.3-0.9-0.4-1.3-0.5c-1-0.2-1.9-0.3-2.8-0.5c0.4-0.2,0.6-0.6,0.9-0.8
		c0.1-0.1,0.2-0.3,0.4-0.4c0.1-0.1,0.1-0.1,0.3-0.1c0-0.1,0.4-0.5,0.4-0.4c0-0.1,0.1-0.1,0.2-0.2c0.1,0,0-0.1,0.1-0.1
		c0.1-0.1,0.1-0.2,0.2-0.3c0.1-0.1,0.2-0.4,0.4-0.5c0.2-0.2,0.2-0.4,0.2-0.5c-0.1,0.1-0.1,0.3-0.3,0.3c0-0.1,0.1-0.1,0.2-0.2
		c0.1-0.1,0-0.2,0.1-0.3c0.1-0.1,0.2-0.1,0.3-0.3c-0.1,0,0.1-0.1,0.1-0.2c0.1-0.1,0.1-0.2,0.1-0.3c0-0.1,0-0.3,0-0.5
		c0-0.1-0.1-0.2-0.1-0.2c-0.1-0.1,0.1-0.7-0.1-0.3c0.2-0.3-0.1-0.4-0.1-0.5c-0.1,0,0,0.2-0.1,0.2c-0.1-0.1,0-0.2,0-0.3
		c-0.1-0.2-0.1-0.2-0.1-0.2c0,0-0.1,0,0-0.1c-0.1-0.1-0.1,0.1-0.1-0.1c0-0.2-0.1-0.1-0.2-0.2c0,0,0-0.1,0-0.1c0,0-0.1,0-0.1,0
		c-0.1,0-0.1-0.1-0.1-0.1c0,0-0.1,0-0.1,0c0,0-0.1-0.1-0.1-0.1c-0.1-0.1-0.2-0.1-0.4-0.2c0,0,0-0.1-0.1-0.1
		c-0.1-0.1-0.2-0.1-0.3-0.1c-0.4-0.2-1.1-0.5-1.8-0.7c-0.4-0.1-0.8-0.2-1.3-0.2c-0.1,0-0.3,0.1-0.4,0c0,0-0.1-0.1-0.1-0.1
		c0,0-0.1,0.1-0.1,0.1c0,0,0,0,0-0.1c-0.1,0-0.1,0.1-0.1,0.1c-0.7-0.1-1.4-0.1-2,0c-0.3,0-0.7,0.2-1,0.1c-0.1,0-0.2,0-0.3,0
		C7,2.7,6.9,2.8,6.7,2.9C6.4,3,6,3,5.7,3c-0.1,0-0.4,0.1-0.5,0.1C4.3,3.4,3.6,3.6,2.8,3.9C2.5,4.1,2.2,4.1,2,4.3
		C1.6,4.4,1.4,4.6,1.1,4.7C1,4.8,0.9,5,0.6,5.1c0,0.1-0.2,0.1-0.2,0.1C0.3,5.3,0.1,5.3,0,5.4c0.4,0.4,0.8,0.8,1.5,0.9
		c0.1,0,0.3,0.1,0.4,0.1c0.3,0,0.6-0.2,0.9-0.3C2.8,6,2.9,6,3.1,6c0.2,0.1,0.2,0,0.2-0.1c0.5-0.1,0.9-0.2,1.3-0.3
		c0.2,0,0.3-0.2,0.6-0.1c-0.5,0.8-1,1.7-1.4,2.7c-0.7,1.8-1.6,3.6-2,5.9c-0.1,0-0.2,0-0.3,0c0,0.2-0.4,0.2-0.5,0.4
		c0,0-0.1,0.1-0.2,0.2c-0.2,0.4-0.1,0.3,0.1,0.6C1,15.3,1,15.4,1,15.5c0.1,0.2,0.4,0.3,0.4,0.5c0,0.1,0,0.2-0.1,0.3
		c-0.1,0.5-0.1,1-0.1,1.5c0,0.4,0,0.8,0,1.1c0,0.1,0,0.3,0,0.5c0,0.2,0.1,0.4,0.1,0.6c0,0,0,0,0,0.1c-0.1,0.2,0.1,0.4,0.1,0.5
		c0.1,0.5,0.5,1.6,1.1,1.7c0.1,0.1,0.2,0,0.4,0.1c0-0.2,0.2-0.2,0.3-0.2c0.3-0.1,0.2-0.4,0.2-0.6c-0.1,0-0.2-0.1-0.2-0.1
		c0,0-0.1,0.1-0.2,0.1c-0.2-0.2-0.3-0.6-0.3-1c0-0.1-0.1-0.2,0-0.3c0,0-0.1,0-0.1,0c0,0,0.1-0.1,0-0.1c0-0.1-0.1-0.3,0-0.4
		c0.2,0,0,0.3,0.1,0.4c0.2-0.1,0.1-0.3,0.1-0.5c0-0.1-0.1-0.2,0-0.3c0.1-0.1,0.2-0.2,0.2-0.4c0.1-0.1,0-0.3,0.1-0.5
		c0.1-0.2,0.1-0.5,0.1-0.8c0.1-0.2,0.2-0.3,0-0.4c0.2,0,0.2-0.1,0.3-0.2c0,0.1-0.1,0.2-0.1,0.2c0.1,0.1,0.1,0.1,0.1,0.1
		c0-0.2,0.2-0.4,0.2-0.6c0-0.2,0-0.2,0.1-0.4C4,16.2,4.1,16,4.2,15.7c0.4-0.1,0.8-0.1,1.1-0.2c0.1,0,0.1-0.1,0.3-0.2
		c0.1,0,0.2,0,0.4-0.1c0.6-0.2,1.2-0.5,1.7-0.8c0.3-0.1,0.5-0.3,0.8-0.4c0,0,0.1-0.1,0.1-0.1c0.1,0,0.1,0,0.1,0c0.1,0,0-0.1,0.1-0.1
		c0,0,0.3,0,0.3-0.1c0,0-0.2,0.1-0.2,0c0.2-0.1,0.5-0.3,0.7-0.4c0.1,0,0.1,0,0.1,0c0,0,0.1,0,0.1-0.1c0.3,0,0.4-0.1,0.5-0.1
		c0.1-0.1,0.3,0,0.4,0c0.2-0.1,0.6-0.1,0.9-0.2c0.4,0,0.8,0,1,0c0.2,0,0.3,0,0.5,0c0.1,0,0.1,0,0.2-0.1c0.1,0.1,0.2,0.1,0.3,0.1
		c0.1,0.1,0.2,0,0.3,0c0,0,0.2,0,0.3,0.1c0.4,0,0.8,0.1,1.1,0.2c1.2,0.2,2.3,0.8,2.2,1.9c0,0.2,0,0.2,0,0.3c0,0.3-0.2,0.7-0.2,1
		c-0.1,0.4-0.3,0.9-0.4,1.3c0,0.1-0.1,0.1-0.2,0.1c0,0,0,0.1,0,0.1c-0.1,0.2-0.3,0.4-0.4,0.4c0,0-0.1,0-0.1,0
		c-0.1,0.1-0.1,0.1-0.1,0.1c-0.1,0.1-0.3,0.2-0.2,0.4c-0.1,0-0.1,0.1-0.2,0.1c-0.1,0.3-0.3,0.4-0.5,0.5c-0.1,0.1-0.3,0.2-0.4,0.3
		c-0.3,0.2-0.7,0.5-0.9,0.6c0.1,0.2,0.2,0,0.3,0.1c0,0.2-0.2,0.3-0.3,0.3c0,0.1-0.1,0.1-0.2,0.1c-0.2,0.1-0.2,0.2-0.4,0.3
		c-0.2,0.1-0.3,0.2-0.4,0.3c-0.1,0-0.2,0.1-0.3,0.1c-0.2,0.1-0.3,0.3-0.5,0.2c0,0.1-0.2,0.1-0.3,0.3c-0.2,0.1-0.3,0.3-0.4,0.3
		c-0.1,0,0,0.2-0.1,0.2c-0.1-0.1-0.1-0.1-0.2-0.2c0.1,0.2-0.1,0.1-0.1,0.1c-0.1,0-0.3,0.2-0.6,0.4c-0.1,0-0.1,0.1-0.2,0.1
		c0,0-0.2,0.1-0.2,0.1c-0.2,0.1-0.2,0.3-0.5,0.4c-0.1,0-0.1,0-0.2,0.1C9,23.7,9,23.9,8.8,24c-0.1,0.1-0.4,0.2-0.6,0.2
		c-0.1,0.1-0.4,0.3-0.5,0.3c-0.1,0,0,0.2-0.1,0.2c-0.1,0-0.1,0-0.2,0c0.1,0.1,0,0.1-0.1,0.2c-0.2,0-0.5,0.1-0.7,0.2
		c-0.1,0-0.1-0.1-0.1-0.1c-0.4,0.2-0.8,0.3-1.3,0.5c0,0.1,0,0.1,0,0.1c-0.1,0.1-0.3,0.1-0.5,0.1c0,0,0.1-0.2-0.1-0.1
		c-0.4,0-0.8,0.2-1.2,0.3c0,0,0,0.2-0.1,0.1c-0.1,0.1,0-0.1-0.1-0.1c-0.1,0.2-0.4,0.3-0.4,0.1c0-0.2,0.2-0.2,0.3-0.2
		c-0.2,0-0.4,0-0.6,0c0,0,0-0.1-0.1-0.1c0,0-0.1,0.1-0.1,0.1c-0.3,0.1-0.2-0.3-0.4-0.3c-0.1-0.1-0.1-0.2-0.2-0.4c0,0,0,0.1-0.1,0.1
		c-0.2-0.3,0.1-0.7,0-1c-0.2,0.3-0.4,0.8-0.7,1c0.1,0.2-0.2,0.4-0.3,0.5c0.1,0.1,0,0.3,0,0.4C0.9,26,0.9,26,1.1,26
		c-0.1,0.1,0,0.1,0.1,0.2c0.1,0,0.1,0.2,0.2,0.2c0,0.1,0.2,0,0.2,0.1c0,0,0,0.1,0.1,0.1c0.2,0.1,0.3,0.2,0.4,0.2c0,0,0,0.1,0,0.1
		c0.2,0,0.2,0,0.3,0C2.3,27,2.7,27,2.7,27c0.2,0.1,0.6,0.2,0.8,0.2c0.1-0.1,0.1-0.2,0.3-0.2c0,0.1,0,0.1,0,0.2c0.1,0,0.2,0,0.3-0.1
		c0,0,0.2,0,0.2,0c0.1,0,0.1-0.1,0.2-0.1c0.2,0,0.3,0,0.3-0.2c-0.4,0-0.6,0.1-0.9,0.2c0,0,0.1-0.1,0-0.1c-0.1,0-0.2,0-0.3,0
		c0-0.1,0-0.1-0.2-0.1c-0.1,0.1-0.3,0.1-0.3,0c0.1-0.1,0.2-0.1,0.3-0.2c0.1,0.2,0.3,0,0.4,0c0.1,0,0,0.2,0.1,0.2
		c0-0.2,0.2-0.1,0.3-0.1c0.1,0,0.1-0.1,0.2-0.1c0,0,0,0.1,0.1,0.1c0,0,0-0.1,0.2-0.1c0,0,0.1,0.1,0.2,0C4.9,26.4,5,26.4,5,26.4
		c0.1,0,0.1,0,0.2,0c0.1,0,0.2-0.1,0.5-0.1c0.1,0,0.3,0,0.4-0.1c0.1-0.1,0.2-0.1,0.4-0.2c0.1,0,0.2,0,0.2,0C6.9,26,7,26,7.2,25.9
		c0.2-0.1,0.4-0.1,0.5-0.1c0,0.3-0.2,0.3-0.3,0.4c-0.1,0.1-0.1,0.1-0.1,0.1c-0.1,0-0.2,0.1-0.2,0.1c0,0-0.1,0.1-0.2,0.2
		c-0.1,0-0.2,0-0.3,0c-0.1,0-0.2,0.1-0.2,0.1c-0.2,0.1-0.4,0.1-0.6,0.2c-0.1,0-0.4,0-0.5,0.1c-0.1,0-0.2,0-0.2,0.1
		c0.2,0.1,0.3-0.1,0.5-0.1c0.1,0,0.1,0,0.2,0c0.2,0,0.4-0.1,0.6-0.2c0.1,0,0.2,0,0.3,0c0.3,0,0.5-0.3,0.7-0.4c0.1,0,0.2,0,0.3,0
		c0,0,0.1-0.1,0.1-0.2C7.9,26,8,26,8.2,26c0,0.1-0.1,0.1,0,0.1c0-0.1,0.2,0,0.2,0c0.1,0,0.1-0.1,0.2-0.1c0.1,0,0.2,0,0.3,0.1
		c0.2-0.1,0.4-0.3,0.7-0.4c0.1,0.1-0.2,0.1,0,0.1c0.3,0,0.6-0.1,0.8-0.2c0.1-0.1,0.4-0.1,0.5-0.1c0.1-0.1,0.1-0.2,0.3-0.2
		c0,0,0.1,0,0.2,0c0.1,0,0.4-0.2,0.5-0.2c0.3-0.2,0.5-0.3,0.8-0.4c-0.2,0.2-0.5,0.2-0.7,0.5c-0.2,0-0.3,0.2-0.5,0.2
		c-0.2,0.2-0.5,0.2-0.6,0.4c0.6-0.1,1.1-0.5,1.6-0.8c0.7-0.3,1.4-0.7,2-1.1c0.6-0.3,1-0.7,1.5-1.2c0.1-0.1,0.2-0.1,0.3-0.2
		c0.2-0.2,0.5-0.6,0.7-0.5c0.1-0.1,0.1-0.1,0.2-0.1c0.2-0.1,0.2-0.3,0.3-0.3c0.1,0,0.1,0,0.2-0.1c0.1-0.1,0.2-0.3,0.3-0.3
		c0.1-0.1,0.2-0.1,0.2-0.3c0.1-0.1,0.3-0.2,0.4-0.3c0.1-0.1,0.2-0.3,0.4-0.5c0.1-0.1,0.3-0.1,0.3-0.4c0.1-0.1,0.2-0.1,0.2-0.1
		c0-0.1,0.2-0.2,0.2-0.3c0.1-0.1,0.1-0.1,0.1-0.2c0,0,0.1-0.1,0.2-0.1c0.1-0.1,0.1-0.3,0.2-0.5c0.1-0.2,0.2-0.7,0.2-0.9
		c0.1-0.2,0.2-0.4,0.2-0.6c0.1-0.7-0.1-1.4-0.2-2C20.2,14.8,20.2,14.7,20.1,14.6z M16,7.2c0.1,0,0,0.2,0,0.2C16,7.3,15.9,7.2,16,7.2
		z M3,18.2C3,18.3,3,18.4,3,18.5c0,0-0.1,0-0.1,0c0-0.2,0.1-0.4,0.2-0.7C3.3,17.8,3.1,18.1,3,18.2z M7,14.3c-0.1,0-0.1,0.1-0.3,0.1
		c-0.1,0-0.4,0.1-0.5,0.2c0.4-0.2,0.7-0.3,1-0.5C7.3,14.3,7.1,14.3,7,14.3z M7.2,14.2c0.1,0,0.2-0.1,0.3-0.1
		C7.4,14.2,7.3,14.2,7.2,14.2z M7.5,14.1C7.5,14,7.6,14,7.7,13.9c0,0,0-0.1,0-0.1c0.2,0,0.2-0.1,0.3-0.1c0.1,0,0.1-0.1,0.3-0.1
		C8.1,13.7,7.8,13.9,7.5,14.1z M12,9.7c-0.1,0.2-0.2,0.2-0.4,0.4c-0.4,0.2-0.8,0.4-1.1,0.7c-0.2,0.2-0.4,0.4-0.5,0.4
		c-0.1,0-0.3,0.1-0.5,0.1c-0.9,0.1-1.9,0.3-2.7,0.6c-0.3,0.1-0.7,0.2-1,0.3c0-0.4,0.1-0.7,0.3-1c0.2-0.3,0.2-0.7,0.4-1.1
		c0.1-0.4,0.2-0.7,0.3-1c0.2-1.2,0.5-2.3,0.8-3.4c0-0.2,0.1-0.5,0.1-0.5c0,0,0.5-0.1,0.8-0.1C8.8,5,9.4,5,9.9,4.8c0-0.1,0.2,0,0.2,0
		c0.1,0,0.2-0.1,0.4-0.1c0,0,0.2,0,0.2,0c0,0,0,0,0.1,0c0,0,0,0,0,0c0.2,0,0.3-0.1,0.4-0.1c0.1,0,0.3,0,0.5,0c0.2,0,0.5,0,0.9,0
		c0.1,0,0.3,0.1,0.3,0c0.2,0,0.1,0,0.2,0c0.1,0,0.5,0.1,0.6,0.1l0.1,0.1C13.9,5,14,5,14.1,5c0.4,0.4,0.7,0.8,0.5,1.6
		c-0.2,0.7-0.8,1.4-1.4,1.9C12.9,9,12.4,9.3,12,9.7z M2.6,25.8C2.5,25.7,2.7,25.8,2.6,25.8c0.1-0.1,0.1-0.1,0.1,0
		C2.7,25.8,2.6,25.8,2.6,25.8z M7.8,25.8c0-0.1,0.2-0.1,0.2-0.1C7.9,25.8,7.9,25.8,7.8,25.8z M8.2,25.8c-0.1-0.1,0-0.1,0.1-0.1
		C8.3,25.8,8.2,25.8,8.2,25.8z M8.6,25.5c-0.1,0-0.1,0-0.2,0.1C8.5,25.6,8.5,25.5,8.6,25.5z M8.5,25.9C8.5,25.9,8.5,25.7,8.5,25.9
		C8.6,25.9,8.5,25.9,8.5,25.9z M8.6,25.8c0-0.1,0.1-0.1,0.1-0.2C8.8,25.7,8.7,25.8,8.6,25.8z M8.7,25.5c0-0.1,0.2-0.1,0.3-0.2
		C8.9,25.5,8.8,25.5,8.7,25.5z M8.8,25.7C8.8,25.7,8.8,25.7,8.8,25.7C8.9,25.7,8.8,25.7,8.8,25.7z M8.9,25.7c0-0.1,0.1-0.1,0.2-0.1
		C9,25.7,9,25.7,8.9,25.7z M10.8,24.8c-0.1,0.1-0.3,0.2-0.4,0.3C10.5,25,10.6,24.8,10.8,24.8z M10.2,25.1c0.1,0,0.1,0.1,0.1,0.1
		c-0.1,0-0.2,0.1-0.2,0.1C10.1,25.2,10.1,25.1,10.2,25.1z M9.3,25.5c0.1-0.1,0.5-0.2,0.6-0.2C9.8,25.4,9.6,25.5,9.3,25.5z
		 M10.8,25.1c-0.3,0.1-0.6,0.3-0.9,0.4c-0.1-0.1,0.2-0.1,0.2-0.1C10.3,25.3,10.7,25.1,10.8,25.1C10.9,25.1,10.8,25.1,10.8,25.1z
		 M10.9,25.1C10.8,25,10.9,25,10.9,25.1C11,25,10.9,25,10.9,25.1z M11,25c0.1-0.1,0.1-0.1,0.1-0.1C11.1,25,11.1,25,11,25z
		 M12.4,24.3c-0.2,0.2-0.2,0.3-0.4,0.2c-0.1,0.2-0.3,0.3-0.6,0.3c0-0.1,0.2-0.1,0.3-0.3c0.2,0.2,0.2-0.1,0.3-0.1
		C12.1,24.3,12.3,24.3,12.4,24.3c0.4-0.2,0.8-0.5,1.1-0.7c0.1,0,0.1,0,0.1,0c-0.1,0.1-0.2,0.2-0.3,0.2c-0.1,0.1-0.1,0-0.1,0
		c0,0.1,0,0.1,0,0.1C13,24,12.9,24,12.8,24.1c0,0,0,0.1-0.1,0.1C12.7,24.2,12.6,24.2,12.4,24.3z M13,24.5C12.9,24.5,13,24.5,13,24.5
		C13.1,24.5,13,24.5,13,24.5z M13.2,24.4c0-0.1,0.1-0.1,0.2-0.1C13.3,24.3,13.3,24.4,13.2,24.4z M13.2,24.2c-0.1,0-0.2,0.2-0.4,0.2
		c-0.1,0.1-0.2,0.1-0.3,0.1c0.3-0.3,0.6-0.5,1-0.5C13.6,24.3,13.4,24.2,13.2,24.2z M14,23.9c-0.1-0.1-0.3,0-0.4,0.1
		c0-0.1,0.3-0.2,0.4-0.4c0.1,0,0.1,0,0.2,0C14.2,23.9,14,23.8,14,23.9z M14.2,23.7c0.1-0.2,0.2-0.2,0.4-0.3
		C14.5,23.4,14.5,23.6,14.2,23.7z M15.7,11.5c0.6,0.1,1.1,0.3,1.6,0.5C16.7,12,16.2,11.7,15.7,11.5z M17.3,12c0.1,0,0.2,0.2,0.4,0.2
		C17.5,12.3,17.5,12.2,17.3,12z"/>
	<path class="st0" d="M3.2,19.3c0-0.2,0-0.3,0-0.4C3.1,19.1,3.1,19.2,3.2,19.3z"/>
	<path class="st0" d="M40.9,11C41,11,41,11,40.9,11c0.2-0.1,0.3,0,0.4-0.1c0.1,0,0.2,0,0.3,0c0.6-0.1,1.2-0.1,1.9-0.2
		c0.5,0.1,1,0,1.5,0c0.3-0.1,0.6,0,0.9,0c0.6-0.1,1.2,0,1.8,0c0-0.1-0.1,0-0.1-0.1c0.1,0.1,0.2,0,0.2-0.1c0-0.1-0.1-0.2,0.1-0.3
		c-1.6-0.5-3.4-0.6-5-0.8c-0.5,0-1-0.1-1.5-0.1c-0.5,0-0.8,0.1-1.4,0c-0.1,0-0.3,0.1-0.4-0.1c0.2-0.7,0.5-1.4,0.7-2
		c0.4-0.7,0.7-1.3,0.9-1.8c-0.1-0.2-0.2-0.2-0.3-0.3c0,0,0,0,0-0.1c0,0-0.1,0-0.1,0c-0.2-0.1-0.3-0.2-0.4-0.3
		c-0.1,0-0.3-0.1-0.3-0.1c-0.2,0-0.2,0.1-0.3,0.1c0-0.1-0.1,0-0.1,0c-0.2-0.1-0.3,0-0.3,0.1c0,0-0.1,0.2-0.1,0.2
		c0,0.1-0.1,0.1-0.2,0.3c-0.2,0.1-0.2,0.4-0.4,0.6C38.4,6.5,38,7,37.8,7.4c0,0.2-0.1,0.3-0.3,0.4c0,0-0.1,0.1-0.1,0.1
		c0,0,0,0.1,0.1,0.1c0,0.1-0.2,0.1-0.2,0.2c0,0.1,0,0.2-0.1,0.2c-0.1,0.1-0.2,0.1-0.3,0.3c-0.1,0.1-0.1,0.3-0.2,0.3
		c-0.1,0,0,0,0,0.1c0,0-0.1,0-0.2,0c-1.7,0-3,0.1-4.4,0.3c-0.8,0.2-1.7,0.3-2.4,0.6c-0.3,0.1-0.8,0.3-1.2,0.2c0,0.1,0,0.2,0.1,0.3
		c0.1,0.2,0.4,0.4,0.6,0.5c0.3,0.3,0.6,0.4,0.9,0.6c0.2,0.1,0.4,0.1,0.5,0.1c0.5,0.2,1.3,0.1,2.2,0.1c0.6-0.1,1.2-0.1,1.8-0.1
		c0.6-0.2,0.4-0.1,0.4-0.1c0,0.2-0.2,0.3-0.2,0.6c0,0-0.1,0.1,0,0.2c-0.1,0-0.1,0.1-0.1,0.1c0,0.1,0.1,0.2,0,0.3c0,0-0.1,0-0.1,0.1
		c0,0.1,0,0.2,0,0.2c0,0.1-0.2,0.1-0.2,0.2c-0.1,0.2,0,0.2-0.1,0.4c0,0.1-0.1,0.2-0.2,0.3c-0.1,0.1,0,0.2-0.1,0.4
		c0,0.2-0.1,0.2-0.1,0.3c0,0.1,0,0.1,0,0.3c0,0.1-0.1,0.1-0.1,0.2c0,0.1,0,0.1-0.1,0.2c0,0.1-0.1,0.2-0.1,0.2c0,0.1,0,0.3-0.1,0.3
		c0,0.1-0.1,0.1-0.1,0.2c0,0,0.1,0.1,0,0.1c0,0.1-0.1,0-0.1,0.1c0,0.1,0,0.2-0.1,0.3c0,0.1-0.1,0.1-0.1,0.2c0,0.1-0.1,0.3-0.1,0.3
		c-0.1,0.2-0.2,0.5-0.2,0.6c0.1-0.3,0.4-0.7,0.6-1c0,0,0-0.1,0-0.1c0,0,0.1,0,0.2,0c0.1-0.1,0.4-0.7,0.5-0.8
		c-0.1,0.4-0.2,0.6-0.4,1.1c0,0.1-0.1,0.3-0.2,0.4c-0.1,0.2,0,0.8-0.1,1.1c-0.6,0.4-0.8,0.5-1.8,0.8c-0.9,0.3-1.2,0.3-2.3,0.2
		c0.3-0.8,0.5-1,0.7-1.9c0.1-0.5,0-1.4-0.1-1.5c-0.1-0.4-0.4-0.4-0.5-0.7c-0.3-0.5-0.7-0.9-1.3-1.1c-0.4-0.1-0.8-0.3-1.3-0.3
		c-1-0.2-2.2,0-3.1,0c0,0.2,0,0.4,0,0.6c0.2,0.1,0.5,0,0.6,0.2c0,0-0.2,0.1-0.3,0.4c0,0.1-0.1,0.3-0.3,0.3c-0.3-0.1-0.3,0-0.5,0.2
		c-0.3,0.3-0.3,0.4-0.5,0.8c-0.1,0.1-0.1,0.3-0.1,0.5c-0.1,0.1-0.2,0.2-0.3,0.4c0,0.1,0,0.2-0.1,0.3c0,0.1-0.1,0.2-0.2,0.3
		c0,0.1,0,0.2-0.1,0.3c-0.1,0.2-0.2,0.2-0.2,0.3c0,0.2,0,0.6-0.1,0.9c-0.1,1.4,0.8,2.4,1.6,3.1c0.2,0.1,0.5,0.4,0.8,0.4
		c0.6,0.1,1.8-0.1,2.2-0.3c0.5-0.2,0.4-0.1,0.7-0.4c0.1-0.1,0.2-0.1,0.2-0.1c0.1,0,0.1-0.1,0.2-0.2c0.3-0.2,0.7-0.4,0.8-0.7
		c0-0.1,0,0,0.2-0.2c0,0,0.1-0.2,0.2-0.4c0.1-0.1,0.4-0.4,0.4-0.4c0.5,0.1,0.9,0.1,1.5,0c0.4-0.1,0.9-0.1,1.2-0.2
		c0.5-0.3,0.8-0.3,1.4-0.5c0.1,0,0.1-0.1,0.2-0.1c-0.1,0.3-0.1,0.5-0.1,0.6c0,0,0,0.2-0.1,0.3c0,0.1,0,0.1,0,0.2
		c0,0.1,0.1,0.2,0.1,0.3c0,0.4,0,0.9,0.1,1.3c0,0.5,0.2,1,0.2,1.3c0.1,0.2,0.1,0.5,0.2,0.7c0,0.2,0.1,0.4,0.1,0.5
		c0.2,0.1,0.4,0.4,0.4,0.6c0.2,0.3,0.2,0.4,0.3,0.5c0.5,0.5,1.5,1.1,2.3,0.9c0.4-0.1,0.5-0.2,0.6-0.3c0.3-0.2,0.5-0.4,0.6-0.6
		c0.1-0.1,0.3-0.2,0.3-0.2c0,0,0-0.1,0.1-0.2c0-0.1,0.2-0.3,0.1-0.5c-0.2,0.1-0.2,0.3-0.2,0.4c-0.2,0.2-0.5,0.4-0.8,0.3
		c-0.5,0.1-0.6-0.3-0.8-0.6c0-0.1,0.1,0,0-0.1c-0.4-0.6-0.6-1.6-0.5-2.7c-0.1-0.2-0.1-0.4-0.1-0.5l0.1-0.1c0.1-0.2,0.1-0.7,0.2-1
		c0-0.1,0.1,0.1,0.1,0s0-0.3,0-0.2c0,0,0.1-0.1,0.1-0.1c0-0.1,0-0.1,0-0.1c0,0,0.1-0.1,0.1-0.2c0.2-0.3,0.1-0.7,0.2-0.9
		c0.1-0.3,0.1-0.5,0.1-0.7c0.2-0.1,0.1-0.5,0.2-0.8c0.1-0.2,0.1-0.6,0.1-0.9c0-0.1,0.2-0.3,0.2-0.4c0.2-0.6,0.4-1.2,0.5-1.8
		c0-0.3,0.2-0.6,0.3-0.8c0-0.1-0.1-0.3,0-0.3c0-0.1,0.1-0.2,0.2-0.5c0.1-0.4,0.1-0.7,0.3-1c0.1-0.2,0.1-0.3,0.2-0.5
		c0.1-0.3,0.4-0.8,0.5-1c0.1-0.1,0.2-0.1,0.6-0.1c0.2,0,0.6-0.2,0.8-0.1C40.6,11.1,40.8,11.1,40.9,11z M25.5,21.5
		c-0.2,0.2-0.8,0.5-1.2,0.6c-0.3,0-0.8-0.1-1-0.5c-0.1-1.1,0.3-2.6,1-3.2c0,0,0.1,0,0.1-0.1c0.5,0.9,1.2,1.7,2.1,2.2
		C26.2,21.1,25.9,21.2,25.5,21.5z M27.1,19.8c-0.5-0.2-0.8-0.5-1.1-1c0-0.1-0.1-0.2-0.2-0.3c0-0.1-0.2-0.2-0.2-0.2
		c-0.1-0.3,0-0.6-0.1-0.9c0.1-0.1,0.5,0,0.5-0.2c0-0.4-0.2-0.7-0.6-0.8c-0.1-0.4,0.1-1-0.2-1.3c0.1,0,0.7,0,0.9,0.1
		c0.3,0.2,0.8,0.4,0.9,0.6c0,0,0.4,0.3,0.6,0.7c0.1,0.3,0.4,0.8,0.1,1C28,18.5,27.4,19.2,27.1,19.8z"/>
	<path class="st0" d="M63.8,14.1c-0.3-0.1-0.6,0.1-1,0c-0.2,0-0.4-0.1-0.6-0.1c-0.2,0.1-0.3,0.3-0.5,0.5c-0.1,0.1-0.2,0.1-0.4,0.1
		c0,0,0,0.1,0,0.2C61.2,15,61,15,60.9,15.2c-0.2,0.1-0.3,0.1-0.3,0.1c-0.7,0.6-1.3,1.3-1.8,1.8c0,0.1,0,0.1-0.1,0.1c0,0-0.2,0-0.2,0
		c0,0.1,0,0.1,0,0.1c-0.1,0.1-0.2,0.2-0.3,0.2c-0.1,0.1-0.1,0.3-0.2,0.2c0.2-0.8,0.2-1.7,0.4-2.5c0.2-0.4,0.2-0.6,0.2-0.8
		c0,0-0.1-0.2-0.1-0.2c-0.1-0.2-1.5-0.6-1.9-0.4c-0.3,0.1-0.1,0.4-0.1,0.7c-0.1,0-0.2,0.1-0.3,0.1c-0.3,1-0.4,1.9-0.7,2.7
		c-0.1,0.4-0.2,0.9-0.3,1.4c-0.7,0.6-1.7,1.5-2.2,1.9c-0.1,0-0.1,0.1-0.2,0.1c-0.1,0.1-0.1,0.2-0.2,0.3c-0.5,0.4-0.5,0.4-1.2,0.9
		c-0.9,0.4-1.4,1-2.5,0.5c-0.2-0.3-0.4-0.8-0.4-1.3c0-0.8,0.2-1.6,0.4-2.1c0.1-0.2,0.2-0.5,0.3-0.8c0.5-1.2,1.3-2.3,1.2-3.5
		c-0.4-0.7-1.3-1.1-2.4-0.9c-0.3,0.3-0.4,0.8-0.7,1c-0.5-0.1-0.8-0.6-1.4-0.6c-0.3,0.2-0.7,0.3-0.9,0.5c-0.3,0.2-0.5,0.5-0.9,0.5
		c-0.2-0.1-1.8,1.2-1.8,1.2c-0.8,0.7-1.2,1.8-1.8,2.8c0,0.2,0.2,0.2,0.1,0.5c-0.3,0-0.1,0.6-0.3,0.8c0.3,0.5,0.5,0.9,1,1.2
		c0.5,0.2,1.3,0.5,1.8,0.4c0.7-0.1,1.6-1.3,1.9-1.7c0.2-0.1,0.3-0.4,0.5-0.2c0.1,2.7,1.3,3.4,4.1,3.4c0.7-0.1,1.9-0.1,3.1-1
		c0,0,0-0.1,0.1-0.2c0.1-0.1,0.2,0,0.3-0.1c0.1-0.1,0.2-0.2,0.4-0.3c0.2-0.1,0.3-0.3,0.5-0.4c0.1-0.1,0.2-0.3,0.4-0.4
		c0.2-0.1,0.4-0.4,0.7-0.6c0,0.1,0,0.3,0,0.4c0,0.6,0.1,1.1,0.4,1.4c0.4,0.1,0.8,0.1,1.1,0.3c-0.2-0.5,0.4-0.2,0.4-0.5
		c0.1-0.2,0.4-0.3,0.5-0.4c0.1-0.1,0.2-0.4,0.4-0.5c0.1-0.2,0.2-0.3,0.3-0.4c0.1-0.1,0.2-0.4,0.3-0.5c0.3-0.2,0.4-0.5,0.7-0.8
		c0.3-0.4,0.5-0.8,0.8-1.1c0-0.1,0.1-0.1,0.2-0.2c0.1-0.2,0.1-0.4,0.2-0.4c0.2-0.2,0.4-0.3,0.5-0.6c0.1,0.5-0.3,1.1-0.4,1.7
		c-0.3,1-0.4,2.2-0.3,3.3c0,0.3,0,0.5,0.1,0.8c0.1,0.5,0.5,0.8,0.5,1.2c0.2,0.2,0.6,0.7,1.1,1c0.4,0.2,1.1,0.5,1.6,0.5
		c0.1-0.1,0.1-0.2,0.2-0.2c0,0,0.2,0,0.3,0c0.2-0.1,0.2-0.4,0.2-0.6c-0.7,0.2-1.2-0.4-1.3-0.7c-0.2-0.4-0.1-0.9,0-1.2
		c0-0.2,0-0.4,0-0.5c0.1-0.6,0.4-1.1,0.5-1.8c0.1-0.3,0.2-0.6,0.3-0.9c0.2-0.6,0.3-1.3,0.4-1.9c0.1-0.2,0.2-0.6,0.3-0.8
		c0.1-0.5,0.1-0.9,0.1-1.3c0-0.4,0-1-0.1-1.4C63.9,14.4,63.9,14.2,63.8,14.1z M46.5,16.5c-0.1,0.6-0.6,1-1,1.4
		c-0.5,0.6-1.2,1.5-2.1,1.8c0.8-1.3,1.6-2.6,2.9-3.4C46.6,16.4,46.6,16.5,46.5,16.5z"/>
	<path class="st0" d="M69.8,13.3c0.4,0.4,0.4,0.6,0.8,0.6c0.1,0,0.2,0.1,0.4,0.1c0.2-0.3,0.5-0.8,0.5-1.3c-0.9-0.3-2.2-0.9-2.2,0.2
		C69.4,13,69.6,13.1,69.8,13.3z"/>
	<path class="st0" d="M115.8,18.6l-0.5,0.3c-0.1,0.1-0.1,0.1-0.2,0.1c-0.5,0.4-0.5,0.3-0.9,0.6c-0.1,0-0.1,0.1-0.2,0.2l-0.7,0.4
		c-0.5,0.4-0.7,0.4-1.2,0.8c-0.9,0.8-1.9,1.2-2.8,2.1l-1,1l-0.7,0.6l-0.7,0.5c-0.1,0.1-0.3,0.1-0.5,0.2c-0.4-0.2-0.5-0.5-0.7-0.9
		l-0.1-0.2c0-0.1-0.2-0.2-0.2-0.2c-0.3-0.5-0.4-1.2-0.4-1.9c-0.1,0-0.1,0-0.2,0c0-0.1,0-0.1,0-0.1c-0.1-0.5-0.1-0.5-0.1-1
		c0-0.6,0.4-1.4,0.4-1.9c0.2-0.8,0.2-1.4,0.4-2c0.1-0.1,0.2-0.3,0.3-0.5l0.2-0.8c0.2-0.4,0.6-0.9,0.8-1.2c0.2-0.2,0.3-0.6,0.5-0.7
		c0.1-0.2,0.1-0.2,0.3-0.4c0-0.1,0.2-0.1,0.3-0.2c0-0.1,0-0.2,0.1-0.4l0.1,0c0.4-0.4,0.9-0.8,1.1-1.3c0,0,0.1-0.1,0.1-0.1
		c0.3-0.3,0.4-0.5,0.7-0.8c1.2-1.5,2.6-3,3.4-4.8c0.1-0.4,0.2-1.1,0.3-1.1c0.1-0.1,0.1-0.5,0.1-0.7c0.1-0.2,0.2-0.4,0.3-0.7
		c0,0-0.1,0-0.1-0.1c0.1-0.4,0.1-1.1,0.1-1.7c-0.1-0.3-0.6-0.3-0.8-0.5c-0.4-0.1-0.6-0.4-1.3-0.3c-0.2,0.2-0.4,0.5-0.9,0.5
		c-0.8,1.1-2.1,1.9-2.9,3.2c-0.4,0-0.4,0.4-0.5,0.6l-0.4,0.4c-0.1,0-0.1,0.2-0.2,0.3c0,0.1-0.1,0.2-0.2,0.3
		c-0.1,0.1-0.1,0.3-0.2,0.5c-0.2,0.2-0.4,0.4-0.5,0.6c-0.1,0.1-0.2,0.3-0.2,0.4l-0.5,0.7c-0.1,0.1-0.1,0.3-0.2,0.4
		c-0.1,0.1-0.2,0.1-0.3,0.2c-0.5,0.7-0.6,1.4-0.9,2.1c-0.3,0.8-0.8,1.6-1,2.4c-0.5,1.3-0.7,2.4-1,3.7c-0.1,0.2-0.2,0.8-0.3,1.5
		c-0.1,0.1-0.1,0.1-0.1,0.1c-0.7,0.7-1.9,1.7-2.4,2.1c-0.1,0-0.1,0.1-0.2,0.1c-0.1,0.1-0.1,0.2-0.2,0.3c-0.5,0.4-0.5,0.4-1.2,0.9
		c-0.9,0.4-1.4,1-2.5,0.5c-0.2-0.3-0.4-0.8-0.4-1.3c0-0.8,0.2-1.6,0.4-2.1c0.1-0.2,0.2-0.5,0.3-0.8c0.5-1.2,1.3-2.3,1.2-3.5
		c-0.4-0.7-1.3-1.1-2.4-0.9c-0.3,0.3-0.4,0.8-0.7,1c-0.5-0.1-0.8-0.6-1.4-0.6c-0.3,0.2-0.7,0.3-0.9,0.5c-0.3,0.2-0.5,0.5-0.9,0.5
		c-0.2-0.1-1.8,1.2-1.8,1.2c-0.7,0.7-1.2,1.7-1.8,2.7c0,0,0,0,0,0c-0.4,0.1-0.3,0.1-0.7,0.4c-0.1,0-0.7,0.3-0.7,0.3
		c-0.2,0.2-0.5,0.2-0.5,0.2c-0.4,0.2-0.5,0.1-0.7,0.2c-0.2,0.1-0.3,0.3-0.6,0.2c-0.4,0.1-0.3,0.3-0.7,0.4c-0.1,0-0.2,0.1-0.4,0
		c0,0.1-0.8,0.3-0.9,0.2c-0.6,0.2-1.3,0.3-2,0.3c-0.5,0-1-0.1-1.3-0.3c-0.3-0.3-0.3-0.7-0.3-1c0-0.6,0.4-1.3,0.7-1.8
		c0.2-0.4,0.4-0.7,0.7-1.1c0.1-0.2,0.4-0.4,0.5-0.5c0.2-0.2,0.3-0.3,0.5-0.4c0.2-0.3,0.5-0.7,1-0.7c0.3,0.3,0.3,0.8,0.3,1.1
		c0.3,0.3,0.5,0.7,1.1,0.8c0.5-0.5,1.2-1.3,1.2-2.3c-0.1-0.1-0.4,0-0.6-0.3c-0.1,0-0.1-0.2-0.1-0.2c-0.1,0-0.1,0-0.2-0.1
		c0-0.1-0.2-0.3-0.2-0.3c-0.2-0.1-0.4-0.1-0.6-0.2c-0.3-0.1-0.6-0.3-0.8-0.3c-0.4-0.2-1.5-0.4-1.9-0.4c0.1,0.2-0.1,0.2-0.2,0.2
		c-0.1,0.1-0.2,0.3-0.3,0.4c-0.1,0.1-0.4,0.1-0.6,0.3c-0.1,0.1-0.1,0.2-0.1,0.3c-0.1,0.1-0.3,0.1-0.5,0.3c-0.1,0.1-0.1,0.1-0.1,0.4
		c-0.3,0.2-0.4,0.5-0.5,0.6c-0.1,0.1-0.1,0.1-0.2,0.1c-0.1,0.2-0.1,0.3-0.3,0.5c-0.1,0.2-0.3,0.4-0.4,0.6c-0.1,0.1-0.1,0.4-0.2,0.5
		c0,0.1-0.1,0.3-0.2,0.4c0,0,0,0-0.1,0c-0.2,0.2-0.5,0.3-0.7,0.3c0,0,0,0.2-0.1,0.2c-0.3,0.2-0.7,0.4-0.8,0.5
		c-0.2,0.1-0.4,0.2-0.5,0.3c-0.2,0.2-0.4,0.3-0.8,0.5c-0.7,0.4-1.8,0.9-2.4,1.3c-0.7,0.5-1.3,0.5-2.2,0.7c-0.1-0.6,0.5-1.3,0.6-1.8
		c0.1-0.1,0.1-0.2,0.1-0.4c0.1-0.2,0.3-0.4,0.4-0.7c0.1-0.1,0.1-0.3,0.1-0.3c0-0.1,0-0.2,0.1-0.4c0.2-0.6,0.2-1.1,0.4-1.5
		c0.2-0.3,0.5-0.5,0.4-0.8c-0.5-0.4-1.5-1-2.2-0.6c-0.4,0.5-0.8,1.4-1,2c0,0.2-0.2,0.3-0.1,0.4c-0.2,0.4-0.2,0.9-0.4,1.3
		c-0.1,0.6-0.3,1.1-0.3,1.5c0,0.7,0.2,1.4,0.5,1.7c0.3,0.3,0.8,0.5,1.3,0.7c0.5,0.2,1,0.3,1.4,0.3c0.4,0,0.8-0.1,1.3-0.2
		c0.3-0.1,0.3-0.2,0.4-0.2c0.3-0.1,0.5-0.1,0.6-0.1c0,0,0.2-0.2,0.3-0.3c0.1-0.1,0.2-0.1,0.3-0.1c0.5-0.3,0.9-0.5,1.1-0.7
		c0.5-0.3,0.7-0.5,1.1-0.7c0.2-0.2,0.5-0.3,0.7-0.5c0.2,0.4,0.5,0.8,0.7,1.2c0.7,0.7,2,1.3,3.3,1.3c1.1,0,2.2-0.1,2.9-0.4
		c0.2-0.1,0.4-0.1,0.7-0.3c0.3-0.1,0.4-0.1,0.6-0.3c0.1,0,0.1,0,0.2,0c0.3-0.2,0.9-0.2,1.2-0.6c0,0,0.2,0,0.2-0.1
		c0.1-0.1,0.8-0.2,0.8-0.4c0.2,0,0.4,0,0.5-0.1c0.2,0.4,0.4,0.8,0.9,1c0.5,0.2,1.3,0.5,1.8,0.4c0.7-0.1,1.6-1.3,1.9-1.7
		c0.2-0.1,0.3-0.4,0.5-0.2c0.1,2.7,1.3,3.4,4.1,3.4c0.7-0.1,1.9-0.1,3.1-1c0,0,0-0.1,0.1-0.2c0.1-0.1,0.2,0,0.3-0.1
		c0.1-0.1,0.2-0.2,0.4-0.3c0.2-0.1,0.3-0.3,0.5-0.4c0.1-0.1,0.2-0.3,0.4-0.4c0.5-0.3,1-1,1.4-1.4c0.1,1,0.2,2.1,0.4,2.9
		c0.1,0.3,0.2,0.7,0.3,0.9c0,0.1,0.1,0.2,0.3,0.4c0,0.1,0.1,0.2,0.2,0.4c0.3,0.5,0.6,1.4,1,1.6l0.1,0.1c0.2,0.2,0.6,0.3,0.8,0.4
		c0,0,0.1,0.1,0.1,0.1c0.5,0.2,1.2,0.3,1.9,0.3c1.3-0.1,2.6-1,3.6-2c0.2-0.2,0.4-0.5,0.6-0.7c0.4-0.5,0.8-0.8,1.1-1.3
		c0,0,0.1-0.1,0.1-0.1c0,0,0-0.1,0-0.1c0-0.1,0.1-0.1,0.2-0.1c0,0-0.1-0.1,0-0.1c0-0.1,0.2-0.1,0.2-0.4c0.3-0.2,0.4-0.2,0.6-0.5
		c0.4-0.3,0.4-0.3,0.8-0.6c0.1-0.1,0.5-0.4,0.6-0.5c0.4-0.4,0.3-0.1,0.7-0.5c0.2-0.1,0.3-0.2,0.4-0.3c0.2-0.1,0.2-0.2,0.3-0.3
		c0.2-0.1,0.2-0.2,0.4-0.5c0.2-0.3,0.2-0.5,0.1-0.8C116.2,18.3,116.2,18.5,115.8,18.6z M110.3,6.2c0.2-0.4,0.5-0.9,0.8-1.3
		c0.1-0.1,0.2-0.2,0.3-0.3c0.1-0.1,0.3-0.5,0.5-0.6c0.3-0.4,0.7-1,1.2-1.3c0.1,0,0.1,0.1,0.1,0.1V3c-0.7,1-1,2.1-1.6,3.2
		c0,0-0.2,0.1-0.2,0.1c-0.2,0.5-0.3,0.9-0.6,1.2c-0.4,0.7-0.9,1.3-1.4,2c0,0.1-0.2,0.3-0.3,0.4c0,0,0,0.1,0,0.1
		c-0.1,0.1-0.2,0.1-0.2,0.2c-0.2,0.2-0.4,0.5-0.6,0.7c-0.1,0.1-0.3,0.3-0.5,0.4C108.6,9.7,109.4,7.8,110.3,6.2z M92.6,16.5
		c-0.1,0.6-0.6,1-1,1.4c-0.5,0.6-1.2,1.5-2.1,1.8c0.8-1.3,1.6-2.6,2.9-3.4C92.7,16.4,92.7,16.5,92.6,16.5z"/>
	<path class="st0" d="M139,12.4C139,12.4,139.1,12.3,139,12.4L139,12.4z"/>
	<path class="st0" d="M148.7,13.3c0.4,0.4,0.5,0.6,0.8,0.6c0.1,0,0.2,0.1,0.4,0.1c0.2-0.3,0.5-0.8,0.5-1.3c-0.9-0.3-2.2-0.9-2.2,0.2
		C148.3,13,148.4,13.1,148.7,13.3z"/>
	<path class="st0" d="M163.5,14.1c-0.3-0.1-0.6,0.1-1,0c-0.2,0-0.4-0.1-0.6-0.1c-0.2,0.1-0.3,0.3-0.5,0.5c-0.1,0.1-0.2,0.1-0.4,0.1
		c0,0,0,0.1,0,0.2c-0.1,0.1-0.3,0.1-0.4,0.3c-0.2,0.1-0.3,0.1-0.3,0.1c-0.7,0.6-1.3,1.3-1.8,1.8c0,0.1,0,0.1-0.1,0.1
		c0,0-0.2,0-0.2,0c0,0.1,0,0.1,0,0.1c-0.1,0.1-0.2,0.2-0.3,0.2c-0.1,0.1-0.1,0.3-0.2,0.2c0.2-0.8,0.2-1.7,0.4-2.5
		c0.2-0.4,0.2-0.6,0.2-0.8c0,0-0.1-0.2-0.1-0.2c-0.1-0.2-1.5-0.6-1.9-0.4c-0.3,0.1-0.1,0.4-0.1,0.7c-0.1,0-0.2,0.1-0.3,0.1
		c-0.3,1-0.4,1.9-0.7,2.7c0,0.3-0.1,0.6-0.2,0.9c-0.2,0.1-0.3,0.2-0.4,0.2c-0.2,0.2-0.5,0.3-0.7,0.3c0,0,0,0.2-0.1,0.2
		c-0.3,0.2-0.7,0.4-0.8,0.5c-0.2,0.1-0.4,0.2-0.5,0.3c-0.2,0.2-0.4,0.3-0.8,0.5c-0.7,0.4-1.8,0.9-2.4,1.3c-0.7,0.5-1.4,0.5-2.2,0.7
		c-0.1-0.6,0.5-1.3,0.6-1.8c0.1-0.1,0.1-0.2,0.1-0.4c0.1-0.2,0.3-0.4,0.4-0.7c0.1-0.1,0.1-0.3,0.1-0.3c0-0.1,0-0.2,0.1-0.4
		c0.2-0.6,0.2-1.1,0.4-1.5c0.2-0.3,0.5-0.5,0.4-0.8c-0.5-0.4-1.5-1-2.2-0.6c-0.4,0.5-0.8,1.4-1,2c0,0.2-0.2,0.3-0.1,0.4c0,0,0,0,0,0
		c0,0-0.1,0-0.1,0.1c-0.4,0.5-1.4,1-1.8,1.4c-0.2,0.2-0.6,0.5-0.8,0.7c-0.5,0.4-1.1,0.9-1.2,0.9c-1.3,1.3-2.8,2.1-4.2,2.9
		c-0.9,0.5-1.5,0.7-2.1,0.4c-0.4-0.7-0.6-1.3-0.7-2.3c0-0.5,0-1.2,0-1.8c0.1-1,0.4-1.6,0.7-2.3c0.1-0.1,0-0.3,0.1-0.5
		c0,0,0.1-0.1,0.2-0.1c0-0.1,0-0.3,0-0.3c0.2-0.5,0.5-0.9,0.7-1.3c0-0.1,0.1-0.4,0.1-0.5c0.1-0.3,0.6-0.8,0.7-1.1
		c0.1-0.1,0.2-0.3,0.3-0.4c0.2-0.2,0.3-0.4,0.2-0.7l0.4-0.4c0.2-0.1,0.2-0.1,0.2-0.2c0.1-0.1,0.2-0.2,0.2-0.2c0,0,0-0.1,0.1-0.2
		c0.2-0.4,0.3-0.7,0.4-1c0.3-0.8,0.3-0.5,0.7-1.3c0-0.7,0-0.3,0.4-1c0-0.1,0-0.2,0.1-0.3c0.5-0.9,1-2,1.5-2.9c0.5-0.8,1.2-2,1.6-2.9
		c0-0.1,0-0.2,0.1-0.4c0.1-0.2,0.3-0.3,0.4-0.5c0.3-0.8-0.1-1.3-0.8-1.5C143.1,0.3,143,0,142.4,0c-0.5,0.3-0.4,0.8-0.7,1.1
		c-0.1,0.3-0.5,0.7-0.6,1c-0.6,0.8-1.1,1.4-1.5,2.1c-2.2,3.1-3.1,4.3-4.4,7.9c-0.1,0.2-0.2,0.4-0.3,0.5c0,0.2,0,0.5-0.1,0.8
		c-0.2,0.4-0.4,0.8-0.5,1.2c-0.1,0.4,0.2,1-0.4,1.1c-0.5-0.2-0.9-0.8-1.4-1.1c-0.1-0.1-0.3-0.1-0.4-0.2c-0.3-0.1-0.3-0.2-0.5-0.2
		c-0.1-0.1-0.3,0.1-0.5-0.1c-0.3,0.2-0.7,0.5-0.9,0.8c-0.1,0.1-0.1,0.2-0.2,0.3c-0.2,0.1-0.5,0.1-0.6,0.2c-0.1,0.1,0,0.4-0.2,0.5
		c-0.1,0.1-0.2,0.1-0.3,0.1c-0.3,0.2-0.3,0.5-0.8,0.5c0.1,0.4-0.4,0.5-0.5,0.6c-0.1,0.1-0.2,0.3-0.4,0.4c-0.2,0.3-0.4,0.5-0.5,0.7
		c-0.3,0.4-0.2,0.4-0.4,0.8c-0.1,0.1-0.2,0.4-0.2,0.5c0.3,0.1-0.1,0.1,0.1,0.4c-0.4,0.8-0.6,1.7-0.4,2.9c0.5,0.4,1.1,1.2,1.7,1.2
		c0.2,0,0.7-0.2,1-0.3c0.6-0.2,0.8-0.5,1.3-0.6c0.6-0.4,1-0.6,1.5-1c0.1-0.1,0.3-0.2,0.4-0.3c0-0.1-0.1-0.2,0-0.2c0,0,0.2,0,0.2,0
		c0.1-0.1,0.1-0.1,0.2-0.2c0.2-0.3,0.6-0.6,0.9-0.6c0,1.2,0.1,2.8,0.8,3.4c-0.2,0.1,0.2,1,0.3,0.7c-0.2,0.1-0.2-0.1-0.2-0.4
		c0.2,0.3,0.7,0.5,0.8,1c0.6,0.1,1,0.6,1.6,0.7c0.8,0.2,1.6-0.3,2.2-0.5c0.3-0.2,0.5-0.1,0.7-0.2c0.1-0.1,0.2-0.3,0.4-0.5
		c0.3-0.1,0.7-0.4,0.9-0.4c0.2-0.2,0.6-0.4,0.8-0.6c0.3-0.2,0.7-0.5,0.8-0.7c0.2-0.2,0.4-0.5,0.7-0.7c0.1-0.2,0.4-0.3,0.6-0.4
		c0.4-0.6,0.5-0.6,1.1-0.9c0.4-0.5,0.8-0.7,1-0.9c0,0,0.1-0.1,0.3-0.3c-0.1,0.3-0.1,0.5-0.1,0.8c0,0.7,0.2,1.4,0.5,1.7
		c0.3,0.3,0.8,0.5,1.3,0.7c0.5,0.2,1,0.3,1.4,0.3c0.4,0,0.8-0.1,1.3-0.2c0.3-0.1,0.3-0.2,0.4-0.2c0.3-0.1,0.5-0.1,0.6-0.1
		c0,0,0.2-0.2,0.3-0.3c0.1-0.1,0.2-0.1,0.3-0.1c0.5-0.3,0.9-0.5,1.1-0.7c0.5-0.3,0.7-0.5,1.1-0.7c0.3-0.3,0.7-0.5,1-0.8
		c0,0.2-0.1,0.5-0.1,0.7c0,0.6,0.1,1.1,0.4,1.4c0.4,0.1,0.8,0.1,1.1,0.3c-0.2-0.5,0.4-0.2,0.4-0.5c0.1-0.2,0.4-0.3,0.5-0.4
		c0.1-0.1,0.2-0.4,0.4-0.5c0.1-0.2,0.2-0.3,0.3-0.4c0.1-0.1,0.2-0.4,0.3-0.5c0.3-0.2,0.4-0.5,0.7-0.8c0.3-0.4,0.5-0.8,0.8-1.1
		c0-0.1,0.1-0.1,0.2-0.2c0.1-0.2,0.1-0.4,0.2-0.4c0.2-0.2,0.4-0.3,0.5-0.6c0.1,0.5-0.3,1.1-0.4,1.7c-0.3,1-0.4,2.2-0.3,3.3
		c0,0.3,0,0.5,0.1,0.8c0.1,0.5,0.5,0.8,0.5,1.2c0.2,0.2,0.6,0.7,1.1,1c0.4,0.2,1.1,0.5,1.6,0.5c0.1-0.1,0.1-0.2,0.2-0.2
		c0,0,0.2,0,0.3,0c0.2-0.1,0.2-0.4,0.2-0.6c-0.7,0.2-1.2-0.4-1.3-0.7c-0.2-0.4-0.1-0.9,0-1.2c0-0.2,0-0.4,0-0.5
		c0.1-0.6,0.4-1.1,0.5-1.8c0.1-0.3,0.2-0.6,0.3-0.9c0.2-0.6,0.3-1.3,0.4-1.9c0.1-0.2,0.2-0.6,0.3-0.8c0.1-0.5,0.1-0.9,0.1-1.3
		c0-0.4,0-1-0.1-1.4C163.7,14.4,163.7,14.2,163.5,14.1z M132.4,18.1c-0.5,0.5-1,1.1-1.4,1.7c-0.4,0.5-1,1-1.7,1.5
		c-0.4,0.4-1.2,1.1-2,1.4c0-0.3,0.1-0.6,0.2-1.1c0-0.1,0.1-0.4,0.2-0.5c0.2-0.2,0.4-0.8,0.7-1.2s0.8-0.8,1.3-1.4
		c0.3-0.2,0.4-0.4,0.7-0.7c0.1-0.1,0.2-0.1,0.4-0.2c0.3-0.3,0.3-0.3,0.7-0.5c0.3-0.2,0.9-0.5,1.4,0.1
		C133,17.7,132.6,17.9,132.4,18.1z"/>
	<path class="st0" d="M169.6,13.3c0.4,0.4,0.4,0.6,0.8,0.6c0.1,0,0.2,0.1,0.4,0.1c0.2-0.3,0.5-0.8,0.5-1.3c-0.9-0.3-2.2-0.9-2.2,0.2
		C169.1,13,169.3,13.1,169.6,13.3z"/>
	<path class="st0" d="M184.4,14.1c-0.3-0.1-0.6,0.1-1,0c-0.2,0-0.4-0.1-0.6-0.1c-0.2,0.1-0.3,0.3-0.5,0.5c-0.1,0.1-0.2,0.1-0.4,0.1
		c0,0,0,0.1,0,0.2c-0.2,0.1-0.3,0.1-0.4,0.3c-0.2,0.1-0.3,0.1-0.3,0.1c-0.7,0.6-1.3,1.3-1.8,1.8c0,0.1,0,0.1-0.1,0.1
		c0,0-0.2,0-0.2,0c0,0.1,0,0.1,0,0.1c-0.1,0.1-0.2,0.2-0.3,0.2c-0.1,0.1-0.1,0.3-0.2,0.2c0.2-0.8,0.2-1.7,0.4-2.5
		c0.2-0.4,0.2-0.6,0.2-0.8c0,0-0.1-0.2-0.1-0.2c-0.1-0.2-1.5-0.6-1.9-0.4c-0.3,0.1-0.1,0.4-0.1,0.7c-0.1,0-0.2,0.1-0.3,0.1
		c-0.3,1-0.4,1.9-0.7,2.7c0,0.3-0.1,0.6-0.2,0.9c-0.2,0.1-0.3,0.2-0.4,0.2c-0.2,0.2-0.5,0.3-0.7,0.3c0,0,0,0.2-0.1,0.2
		c-0.3,0.2-0.7,0.4-0.8,0.5c-0.2,0.1-0.4,0.2-0.5,0.3c-0.2,0.2-0.4,0.3-0.8,0.5c-0.7,0.4-1.8,0.9-2.4,1.3c-0.7,0.5-1.3,0.5-2.2,0.7
		c-0.1-0.6,0.5-1.3,0.6-1.8c0.1-0.1,0.1-0.2,0.1-0.4c0.1-0.2,0.3-0.4,0.4-0.7c0.1-0.1,0.1-0.3,0.1-0.3c0-0.1,0-0.2,0.1-0.4
		c0.2-0.6,0.2-1.1,0.4-1.5c0.2-0.3,0.5-0.5,0.4-0.8c-0.5-0.4-1.5-1-2.2-0.6c-0.4,0.5-0.8,1.4-1,2c0,0.2-0.2,0.3-0.1,0.4
		c-0.2,0.4-0.2,0.9-0.4,1.3c-0.1,0.6-0.3,1.1-0.3,1.5c0,0.7,0.2,1.4,0.5,1.7c0.3,0.3,0.8,0.5,1.3,0.7c0.5,0.2,1,0.3,1.4,0.3
		c0.4,0,0.8-0.1,1.3-0.2c0.3-0.1,0.3-0.2,0.4-0.2c0.3-0.1,0.5-0.1,0.6-0.1c0,0,0.2-0.2,0.3-0.3c0.1-0.1,0.2-0.1,0.3-0.1
		c0.5-0.3,0.9-0.5,1.1-0.7c0.5-0.3,0.7-0.5,1.1-0.7c0.3-0.3,0.7-0.5,1-0.8c0,0.2-0.1,0.5-0.1,0.7c0,0.6,0.1,1.1,0.4,1.4
		c0.4,0.1,0.8,0.1,1.1,0.3c-0.2-0.5,0.4-0.2,0.4-0.5c0.1-0.2,0.4-0.3,0.5-0.4c0.1-0.1,0.2-0.4,0.4-0.5c0.1-0.2,0.2-0.3,0.3-0.4
		c0.1-0.1,0.2-0.4,0.3-0.5c0.3-0.2,0.4-0.5,0.7-0.8c0.3-0.4,0.5-0.8,0.8-1.1c0-0.1,0.1-0.1,0.2-0.2c0.1-0.2,0.1-0.4,0.2-0.4
		c0.2-0.2,0.4-0.3,0.5-0.6c0.1,0.5-0.3,1.1-0.4,1.7c-0.3,1-0.4,2.2-0.3,3.3c0,0.3,0,0.5,0.1,0.8c0.2,0.5,0.5,0.8,0.5,1.2
		c0.2,0.2,0.6,0.7,1.1,1c0.4,0.2,1.1,0.5,1.6,0.5c0.1-0.1,0.1-0.2,0.2-0.2c0,0,0.2,0,0.3,0c0.2-0.1,0.2-0.4,0.2-0.6
		c-0.7,0.2-1.2-0.4-1.3-0.7c-0.2-0.4-0.1-0.9,0-1.2c0-0.2,0-0.4,0-0.5c0.1-0.6,0.4-1.1,0.5-1.8c0.1-0.3,0.2-0.6,0.3-0.9
		c0.2-0.6,0.3-1.3,0.4-1.9c0.1-0.2,0.2-0.6,0.3-0.8c0.1-0.5,0.1-0.9,0.1-1.3c0-0.4,0-1-0.1-1.4C184.6,14.4,184.6,14.2,184.4,14.1z"
		/>
	<path class="st0" d="M206.1,18.6c-0.4,0.1-1.2,0.4-1.5,0.6c-0.5,0.3-0.4,0.3-1,0.6c-0.5,0.3-1.1,0.3-1.4,0.8c0,0-1,0.4-1.1,0.5
		c-0.2,0.1-1.8,1.1-2,1.1c-0.1,0.1,0.2-0.3,0-0.4c-0.2-0.5,0.1-1.2,0.1-1.6c0-0.4,0.1-0.4,0.1-0.8c0-0.3,0.2-0.5,0.1-0.9
		c0-0.1-0.1-0.3-0.1-0.4c-0.6-0.4-1.2-0.8-2-1c-0.2-0.5-0.7-1.1-1-1.3c-0.2,0-0.3-0.1-0.5-0.3c-0.7-0.3-1.5-0.5-2.5-0.7
		c-0.2,0-0.2,0.2-0.3,0.2c0,0-0.2,0-0.3,0.1c-0.2,0.1-0.3,0.3-0.5,0.5c-0.1,0-0.2,0-0.3,0.1c-0.4,0.2-0.9,0.4-1.2,0.7
		c-0.4,0.2-0.8,0.5-1,0.7c-0.2,0.1-0.5,0.5-0.8,0.6c0,0-0.2,0.1-0.2,0.2c-0.1-0.1,0,0,0,0.1c-0.1,0-0.1,0-0.1,0
		c-0.3,0.3-0.5,0.4-0.5,0.6c-0.1,0.1-0.2,0.2-0.3,0.3c-0.8,0.4-2.1,1.7-2.3,2.4c-0.1,0.4,0.1,0.9,0.1,1c0.2,0.3,0.3,0.5,0.5,0.8
		c0.1,0.2,0.2,0.3,0.2,0.4c0.5,0.5,1,0.5,1.6,0.4c0.1-0.1,0.8-0.3,0.8-0.4c0.1,0,0.1,0,0.2-0.1c0-0.1,0.2-0.2,0.4-0.2
		c0.1-0.1,0.2-0.1,0.3-0.1c0.1-0.1,0.2-0.3,0.4-0.3c0,0,0.1,0.1,0.2,0s0.2-0.2,0.3-0.2c0.6-0.4,1.3-0.7,1.9-1.1
		c1.3-0.7,2.7-1.5,3.7-2c0.2,0.3,0.8,0.4,1,0.7c-0.3,1.5-0.4,1.9-0.7,3.6c-1.3,1.4-2.7,3.3-3.3,5.4c-0.2,0.4-0.5,0.8-0.7,1.1
		c-0.1,0.1-0.1,0.3-0.2,0.4c-0.1,0.2-0.3,0.5-0.3,0.7c0,0.1-0.1,0.1-0.2,0.2c-0.1,0.2-0.1,0.3-0.2,0.5c-0.3,0.9-0.7,1.9-1,2.9
		c-0.2,0.7-0.3,1.4-0.4,2.2c-0.1,0.4-0.2,0.8-0.3,1.1c0,0.2,0.1,0.2,0.1,0.3c0.1,0.5,0,0.9-0.1,1.2c0.6,0,1.4,0.3,2,0.5
		c0.3,0.1,0.1-0.2,0.3-0.2c0.1-0.1,0.3,0.1,0.5,0c0.1,0,0.5-0.3,0.7-0.5c0.1-0.1,0.2,0,0.2,0c0.3-0.1,0.6-0.4,0.7-0.4
		c0.1-0.2,0.2-0.4,0.2-0.5c0.1-0.2,0.3-0.3,0.3-0.4c0.2-0.1,0.2-0.2,0.3-0.5c0-0.1,0.1-0.1,0.1-0.2c0.1-0.1,0.1-0.2,0.2-0.3
		c0-0.1,0.1-0.1,0.2-0.2c0.1-0.1,0.1-0.1,0.1-0.2c0.3-0.5,0.5-1,0.8-1.6c0.2-0.7,0.5-1.4,0.9-2.2c0.1-0.3,0.2-0.6,0.3-0.9
		c0.2-0.4,0.2-0.9,0.4-1.2c0.2-0.6,0.4-1.1,0.5-1.7c0.2-0.5,0.6-3,0.9-3.5c0.3-0.6-0.4,0.7,0.7-1.1c0.1-0.2,0.2-0.4,0.3-0.5
		c0.3-0.2,0.7-0.6,0.7-0.6c0.1-0.1,0.5-0.5,0.6-0.6c0.3-0.2,0.4-0.3,0.8-0.6c0.5-0.4,0.8-0.6,0.9-0.6c0.3-0.3,0.7-0.5,1.1-0.8
		c0.2-0.2,0.2-0.2,0.7-0.4c0.3-0.2,0.5-0.4,0.8-0.6C205.8,19.5,206.5,19.2,206.1,18.6z M195.1,18.5c-1.9,0.7-3.7,1.5-5.6,2.2
		c-0.6,0.2-1.2,0.7-2,0.7c0.2-0.4,0.4-0.8,0.8-1.2c0.2-0.4,0.5-0.6,0.9-1c0.3-0.3,0.5-0.7,0.9-1c0.2-0.1,0.3-0.2,0.4-0.4
		c0.2-0.1,0.3-0.1,0.4-0.2c0.1-0.1,0.1-0.2,0.1-0.2c0.2,0,0.3-0.2,0.5-0.2c0.2-0.2,0.4-0.3,0.5-0.3c0.1-0.1,0.2-0.1,0.2-0.2
		c0.1-0.1,0.2-0.1,0.3-0.2c0.1,0,0.2-0.1,0.3-0.1c0,0,0.4-0.2,0.6-0.2c0.1,0,0.4,0.2,0.8,0.1c-0.1,0.3,0.2,0.4,0.4,0.6
		c0,0.1,0,0.1,0.1,0.2c0.1,0.1,0.2,0.3,0.3,0.5c0.1,0.1,0,0.2,0,0.2C195,17.9,195.2,18.1,195.1,18.5z M193.2,35.3
		c-0.1,0.3-0.2,0.8-0.7,0.9c0-0.4,0.1-0.9,0.3-1.2c0.1-0.4,0.3-0.8,0.5-1.3c0.1-0.1,0.3-0.2,0.4-0.4c0-0.1,0-0.2,0-0.4
		c0.2-0.3,0.5-0.8,0.7-1.3C194.4,33,193.9,34.3,193.2,35.3z"/>
</g>
</svg>
