<?xml version="1.0" standalone="no"?>
<!DOCTYPE svg PUBLIC "-//W3C//DTD SVG 1.1//EN" "http://www.w3.org/Graphics/SVG/1.1/DTD/svg11.dtd" >
<svg xmlns="http://www.w3.org/2000/svg">
<metadata>Generated by IcoMoon</metadata>
<defs>
<font id="buzzicons" horiz-adv-x="1024">
<font-face units-per-em="1024" ascent="960" descent="-64" />
<missing-glyph horiz-adv-x="1024" />
<glyph unicode="&#x20;" horiz-adv-x="512" d="" />
<glyph unicode="&#xe900;" glyph-name="icon" d="M1016.021 474.965l-460.971 372.352-25.6 21.248c-9.643 8.021-23.637 8.021-33.28 0l-132.992-110.464v46.72c0 14.379-11.691 26.069-26.069 26.069h-99.371c-14.379 0-26.069-11.648-26.069-26.069v-172.032l-202.155-164.949c-11.136-9.088-12.8-25.515-3.712-36.651 5.163-6.315 12.672-9.6 20.224-9.6 5.803 0 11.605 1.877 16.469 5.845l78.848 64.341v-431.531c0-14.379 11.691-26.027 26.069-26.027h278.528c14.379 0 26.069 11.648 26.069 26.027v202.197h121.643v-202.197c0-14.379 11.648-26.027 26.069-26.027h278.528c14.379 0 26.069 11.648 26.069 26.027v437.973l78.933-63.787c4.779-3.883 10.581-5.803 16.341-5.803 7.68 0 15.147 3.328 20.352 9.685 9.003 11.221 7.253 27.605-3.925 36.651v0zM263.808 778.752h47.232v-62.123l-47.232-38.229v100.352zM852.181 532.821v-446.549h-226.389v202.283c0 14.379-11.691 26.027-26.069 26.027h-173.781c-14.379 0-26.069-11.648-26.069-26.027v-202.283h-226.389v446.549l101.333 84.181c0 0 237.269 194.432 238.805 196.992l338.56-281.173z" />
<glyph unicode="&#xe901;" glyph-name="icon1" d="M511.346 959.476c-290.359-1.222-512.393-237.872-511.433-513.527 1.003-272.209 220.9-511.258 515.36-509.382 293.238 1.876 510.211 242.278 508.597 514.269-1.614 274.128-223.648 508.161-512.524 508.64zM511.607-0.213c-251.179 2.051-447.166 204.538-446.947 448.125 0.262 253.011 207.112 447.078 447.515 446.904 240.359-0.131 447.078-194.416 446.991-447.515-0.175-243.674-196.51-445.813-447.558-447.515zM584.164 223.086c-5.367 1.353-11.082 1.527-16.623 1.702-6.763 0.262-13.569 0.087-22.251 0.087-0.218 9.511-0.611 16.274-0.611 22.949-0.044 83.29 0 166.449-0.087 249.739 0 6.806 0.087 13.744-1.222 20.375-3.185 15.445-14.18 25.218-30.018 25.567-22.339 0.654-44.721 0.742-67.060 0-17.452-0.524-30.541-14.747-30.716-31.326-0.218-17.234 13.438-31.196 31.806-32.243 6.806-0.349 13.656 0.087 20.506-0.262 3.447-0.175 6.894-1.353 10.297-2.051 0.349-3.403 0.916-5.846 0.916-8.333 0.044-77.618 0.044-155.236-0.044-232.854 0-3.578-1.222-7.068-2.051-11.562-7.461 0-14.267 0.087-21.073-0.087-4.319-0.087-8.726-0.087-12.958-0.829-15.881-2.836-27.007-15.532-27.4-30.847-0.436-15.052 10.297-28.709 25.785-32.199 4.799-1.047 9.86-1.047 14.791-1.047 37.26 0 74.52-0.175 111.824 0.087 6.675 0.087 13.744 0.829 19.983 3.054 12.827 4.538 20.812 17.408 20.288 30.454-0.524 14.005-10.253 26.222-24.084 29.625zM512.654 607.337c35.602 0.48 64.224 30.323 63.176 64.529 1.134 29.45-22.906 63.656-63.787 63.787-40.751 0.087-64.224-33.944-64.354-63.526-0.131-35.733 29.407-65.314 64.965-64.791z" />
<glyph unicode="&#xe902;" glyph-name="icon2" d="M863.558 29.137c0-34.537 0-66.979 0-100.492-4.934-0.884-9.216-1.908-13.591-2.281-5.26-0.372-10.612-0.093-15.872-0.093-222.534 0-445.068 0-667.508 0-9.030 0-18.013 0.279-27.834 0.465-5.073 16.617-2.095 32.535-2.607 48.175-0.512 15.081-0.093 30.255-0.093 44.358 8.239 7.727 17.082 5.353 25.088 5.353 26.717 0.186 52.969 3.724 78.801 10.193 21.364 5.446 42.077 12.893 61.533 23.319 21.83 11.636 39.471 27.741 53.574 48.268 31.558 45.754 41.844 96.815 39.75 151.319-0.233 6.004-1.908 11.916-3.258 17.827-6.33 28.346-17.827 54.598-32.303 80.71-5.353 0.465-10.519 1.21-15.639 1.21-36.445 0.14-72.89 0-109.335 0.14-7.447 0.047-14.848 0.559-21.83 0.884-4.003 17.967-4.422 79.5-0.745 101.935 27.648 4.887 56.367-0.745 86.528 3.537-4.049 8.192-7.215 14.895-10.659 21.364-15.686 29.556-30.115 59.625-40.401 91.555-32.116 99.561-14.429 190.511 50.502 271.686 43.055 53.853 98.444 89.321 166.493 104.401 153.6 33.978 309.807-58.415 352.163-208.617 5.818-20.573 8.564-41.612 10.612-62.743 0.605-5.818-0.419-11.776-0.745-17.361-19.363-4.049-91.183-4.096-110.033-0.186-2.095 13.964-3.072 28.393-6.516 42.217-17.082 69.167-58.089 118.598-126.557 140.195-67.025 21.132-127.441 6.284-178.129-43.66-22.993-22.714-41.053-48.687-50.874-79.825-10.473-33.42-11.124-67.025-2.188-101.050 7.168-27.276 17.315-53.341 29.51-78.662 13.172-27.276 27.462-53.993 44.637-80.058 7.587-0.279 15.127-0.791 22.575-0.791 58.461-0.093 116.922 0 175.43-0.093 7.354 0 14.755-0.605 21.69-0.931 4.329-17.78 4.794-77.777 0.931-101.981-5.306-0.512-11.124-1.676-16.896-1.676-40.262-0.186-80.524-0.093-120.785-0.093-7.54 0-15.034 0-21.876 0-3.77-9.030 0.977-14.848 3.212-21.085 14.010-39.005 20.759-79.174 18.479-120.692-2.793-51.759-17.408-100.073-45.94-143.5-7.028-10.752-16.291-19.921-24.529-29.882-2.234-2.653-4.561-5.306-8.471-9.914 12.8-2.607 23.273-1.21 33.559-1.396 9.868-0.326 19.735-0.093 29.603-0.093 10.659 0 21.271 0 31.884 0 9.868 0 19.735 0 29.603 0 10.659 0 21.271 0 31.93 0 9.868 0 19.735 0 29.603 0 10.612 0 21.225 0 31.884 0 9.914 0 19.782 0 29.649 0 10.659 0 21.271 0 31.93 0 9.914 0 19.782 0 29.603 0 10.659 0 21.271 0 31.93 0 9.821 0 19.782 0 29.649 0 10.659 0 21.271 0.186 31.884 0 9.681-0.279 19.549 0.977 30.999-1.955z" />
<glyph unicode="&#xe903;" glyph-name="icon3" d="M515.755 959.337c-279.634 2.076-513.723-222.029-515.667-509.835 0.398-290.855 236.165-511.028 508.289-512.839 278.309-1.723 513.502 221.852 515.446 507.671 2.12 282.771-225.651 512.839-508.068 515.004zM510.984 0.585c-247.96 0.353-445.957 200.471-445.869 447.105 0.177 259.004 212.663 448.828 448.077 446.619 245.221 0.486 445.869-201.443 445.957-446.664 0.133-234.045-188.632-447.547-448.166-447.061zM684.331 321.524c-40.819 40.819-81.77 81.505-122.456 122.412-19.747 19.923-16.919 11.972-16.919 41.879-0.177 88.44 0 176.837-0.177 265.321 0 7.996 0 16.213-1.811 23.899-3.578 15.417-17.008 25.004-32.16 24.341-16.124-0.707-28.803-12.546-30.481-29.024-0.574-5.787-0.309-11.707-0.309-17.538 0-48.196 0-96.48 0-144.676 0-50.449 0.398-100.854-0.265-151.303-0.177-15.815 4.904-27.787 16.124-38.831 49.433-48.682 98.336-97.938 147.548-147.018 3.578-3.622 7.289-7.377 11.486-10.072 12.855-8.526 29.554-6.538 40.2 4.153 10.602 10.602 12.546 27.698 3.887 40.2-4.153 6.008-9.498 11.088-14.666 16.257z" />
<glyph unicode="&#xe904;" glyph-name="icon4" horiz-adv-x="758" d="M723.644 741.684c-37.769 88.199-99.662 152.787-188.845 189.915-31.396 13.003-64.16 21.087-97.952 25.023-47.479 5.603-94.572 4.833-141.067-7.272-107.447-28.017-188.332-91.322-243.553-186.835-47.35-81.826-62.407-169.982-45.468-263.4 8.384-46.324 23.568-90.338 42.902-132.983 25.536-56.205 57.573-108.645 92.776-159.246 59.84-86.018 128.321-165.192 196.63-244.451 7.314-8.426 16.168-15.099 26.22-20.104 17.195-8.555 34.219-8.469 51.414 0.086 11.207 5.646 20.531 13.516 28.573 23.055 13.431 15.955 26.99 31.909 40.207 48.163 60.781 74.426 117.585 151.761 165.919 234.955 30.968 53.21 58.044 108.346 77.762 166.903 17.109 50.43 28.102 101.887 28.231 153.429-0.385 61.081-10.48 118.355-33.748 172.763zM663.461 419.941c-19.505-53.339-45.511-103.469-74.725-152.146-47.65-79.345-103.042-153.172-161.813-224.476-8.982-10.95-18.179-21.729-27.332-32.508-2.353-2.738-5.047-5.090-8.683-8.769-3.294 3.037-5.261 4.62-6.844 6.459-57.83 67.155-115.788 134.224-168.229 205.784-35.673 48.762-68.78 99.064-96.027 153.087-20.831 41.362-37.512 84.178-47.778 129.476-39.822 175.885 71.346 341.718 226.315 386.417 36.999 10.693 74.683 14.415 113.179 11.078 29.001-2.566 57.402-7.357 84.777-16.938 62.193-21.643 110.741-60.61 145.516-116.473 28.787-46.324 43.672-97.139 49.66-151.162 7.357-65.914-5.603-128.535-28.017-189.829zM247.103 711.357c-67.069-66.513-75.923-173.875-20.317-250.183 37.641-51.628 89.097-77.72 152.916-79.174 9.367 0.684 18.649 0.77 27.717 1.968 7.913 1.155 15.698 3.080 23.397 5.261 134.993 38.838 183.713 205.698 90.637 312.589-71.988 82.553-196.203 87.044-274.35 9.539zM476.412 494.666c-40.934-52.569-114.762-65.358-171.094-22.627-42.517 32.251-60.011 76.308-49.746 128.663 9.795 49.96 40.763 83.409 89.996 97.823 64.46 18.778 133.154-19.847 152.873-85.034 1.754-5.86 3.165-11.891 3.978-17.965 0.941-7.272 1.155-14.671 1.369-17.837-0.299-33.663-9.41-59.883-27.375-83.024z" />
<glyph unicode="&#xe905;" glyph-name="icon5" d="M899.608 755.493c-0.975 19.651-6.193 25.356-25.356 27.355-4.876 0.536-9.704 0.78-17.603 1.414-0.293 11.215-0.488 19.602-0.585 27.941-0.098 36.181 0.098 72.411-0.098 108.642 0 6.729 0.098 13.556-1.024 20.139-1.999 11.41-8.777 17.359-20.675 18.53-6.534 0.634-13.41 0.488-20.187 0.488-181.053 0-362.057 0-543.11 0-6.778 0-13.507-0.244-20.187-0.293-37.693-0.293-86.309-28.331-100.401-82.213-3.706-14.043-4.096-28.233-4.096-42.569 0-256 0-512 0-768 0-6.778-0.195-13.458 0.195-20.236 3.072-47.397 33.987-87.138 79.482-100.157 12.678-3.608 26.526-4.486 39.838-4.486 198.754-0.293 397.458-0.195 596.212-0.195 5.9 0 11.8-0.098 17.701 0.634 11.605 1.463 17.896 7.899 19.31 19.651 0.683 5.851 0.488 11.8 0.488 17.652 0 255.22 0 510.391 0 765.513 0.098 3.413 0.195 6.827 0.098 10.191zM192.073 855.601c3.56 31.793 27.989 55.93 59.733 58.661 6.68 0.536 13.458 0.536 20.187 0.536 170.13 0 340.212 0 510.391 0 8.192 0 16.579-0.341 25.161-0.536 1.219-4.779 2.779-7.899 2.779-11.118 0.098-37.059 0-74.069-0.293-111.128 0-2.292-1.804-4.535-3.218-8.046-7.119-0.39-14.58-1.073-21.992-1.073-171.008 0-341.967-0.049-512.926 0.146-10.825 0-22.040 0.829-32.427 3.56-30.427 8.094-50.81 38.522-47.397 68.998zM323.243 19.627c-0.049-9.899-0.585-19.749-0.878-30.769-14.629-3.023-27.989-1.707-41.204-1.707-12.581 0-25.405-0.488-37.742 1.56-27.112 4.486-48.079 28.916-51.346 58.319-0.731 6.583-0.536 13.361-0.536 20.139 0 221.233 0 442.514 0 663.796 0 7.558 0 15.067 0 22.918 4.145 0.878 5.169 1.414 5.754 1.122 27.404-15.165 57.003-19.017 87.82-17.506 11.605 0.634 23.308-0.098 36.133-0.244 0.78-6.339 1.658-11.118 1.902-15.896 0.293-5.9 0.098-11.8 0.098-17.701 0-228.011 0-455.973 0-684.032zM854.357 21.528c0-10.045 0-20.090 0-31.5-5.51-1.463-7.802-2.682-10.191-2.682-153.99-0.098-308.126-0.146-462.214-0.098-3.267 0-6.485 0.975-9.509 1.512-5.851 7.997-3.608 16.677-3.657 24.869-0.195 60.66-0.098 121.222-0.098 181.882 0 169.253 0 338.505 0 507.758 0 9.996 0 19.992 0 31.305 6.144 1.219 10.776 2.487 15.458 2.926 5.022 0.488 10.142 0.146 15.165 0.146 141.458 0 282.965 0 424.375 0 9.167 0 18.188-0.536 28.672-0.878 0.78-5.998 1.609-10.776 1.804-15.555 0.39-5.9 0.195-11.752 0.195-17.652 0-227.377 0-454.705 0-682.033zM254.732 827.66c7.461-0.878 15.116-0.634 22.674-0.634 74.898-0.049 149.748 0 224.597 0 74.069 0 148.090 0 222.159 0 6.778 0 13.41 0.439 20.187 0.146 11.703-0.536 22.772 10.142 22.577 22.284-0.293 12.093-8.972 21.065-22.772 22.382-6.778 0.634-13.507 0.244-20.187 0.244-90.843 0-181.736 0-272.579 0-58.904 0-117.858 0.049-176.713-0.049-7.509 0-15.262 0.195-22.528-1.414-10.63-2.292-16.628-11.654-16.091-22.577 0.536-10.825 7.607-19.066 18.676-20.382z" />
<glyph unicode="&#xe906;" glyph-name="icon6" d="M0 449.027c-1.413 268.372 215.16 510.544 511.572 510.973 284.554 0.385 512.942-228.26 512.086-512.899-0.899-296.626-244.056-512.342-514.012-511.058-280.915 1.37-511.486 231.77-509.645 512.985zM427.195 305.188c30.309-2.911 152.102-2.226 169.568 0.985 26.884 46.448 54.154 93.667 81.852 141.656-9.461 16.567-18.665 32.792-27.912 48.931-9.332 16.225-18.451 32.578-28.169 48.503-9.675 15.839-16.781 33.263-28.811 46.876-55.695 0-110.234 0-165.843 0-27.698-47.946-55.31-95.722-83.179-144.096 27.826-48.161 55.096-95.379 82.494-142.855zM595.735 263.149c-24.23 2.654-149.49 2.269-168.626-0.428-27.056-46.919-54.625-94.694-82.365-142.855 26.627-46.191 52.698-91.355 78.812-136.562 59.419-10.959 117.811-11.43 176.589 0.3 26.413 45.892 52.484 91.013 78.598 136.348-28.297 48.845-55.438 96.792-83.007 143.197zM628.87 612.131c27.997-48.375 55.609-96.278 83.264-144.139 56.294 0 111.518 0 167.556 0 26.285 45.549 52.484 90.884 78.684 136.305-19.864 56.337-48.375 106.638-88.23 152.359-17.423 0-35.361 0.043-53.212 0.086-17.209 0-34.504 0.257-51.714-0.128-17.766-0.471-35.703 1.926-54.154-2.098-27.227-47.262-54.539-94.48-82.194-142.384zM312.337 754.601c-4.238 1.027-5.694 1.67-7.149 1.67-47.133 0.171-94.223 0.128-141.357 0.514-9.504 0.128-15.026-4.581-20.463-11.302-28.725-35.831-51.842-74.916-69.48-117.34-3.125-7.534-5.565-15.411-8.091-22.346 11.344-25.343 70.507-126.116 80.696-137.718 54.582 0 109.035 0 164.859 0 27.526 47.818 55.524 95.379 82.965 144.31-27.569 47.818-54.796 94.994-81.98 142.213zM678.4 775.577c-2.74 5.266-4.666 9.332-6.892 13.185-21.233 36.944-42.895 73.632-63.572 110.876-5.736 10.36-13.185 14.983-24.401 16.567-47.775 6.593-95.379 6.721-143.112 0.043-11.259-1.627-18.965-5.908-24.787-16.31-21.062-37.886-43.109-75.259-64.685-112.888-2.183-3.724-3.51-8.005-5.351-12.415 27.484-47.561 54.71-94.737 82.451-142.641 19.435-0.043 38.058-0.171 56.722-0.214 18.708-0.043 37.415-0.385 56.080 0.086 18.536 0.471 37.201-2.269 55.695 1.969 27.184 47.090 54.111 93.71 81.852 141.742zM629.469 285.025c18.665-37.244 73.418-130.44 84.891-144.824 30.78-2.14 139.516-1.456 157.753 1.027 37.629 44.265 66.911 94.138 86.218 150.775-26.285 45.292-51.885 90.799-79.197 136.391-56.037-0.385-111.304 0.771-167.171-0.685-27.698-47.818-54.924-94.994-82.494-142.684zM145.038 427.751c-2.44-3.082-4.067-4.623-5.18-6.507-22.86-39.47-45.421-79.069-68.666-118.325-5.266-8.862-4.666-16.482-1.156-25.343 17.894-45.549 42.082-87.417 72.433-125.86 7.149-9.076 14.684-12.971 26.499-12.8 42.595 0.728 85.233 0.257 127.872 0.3 4.409 0.043 8.776 0.514 14.384 0.813 27.869 47.647 55.695 95.251 82.023 142.555-8.733 20.677-72.69 130.954-84.12 145.209-54.025-0.043-108.479-0.043-164.088-0.043zM826.178 797.667c-20.634 32.021-121.621 90.884-168.241 98.033 4.195-14.47 34.975-69.865 55.010-98.761 22.989-2.654 96.963-2.14 113.231 0.728zM195.553 796.254c40.027 0 77.228 0 115.757 0 15.326 26.542 30.609 53.041 45.849 79.54 3.339 5.822 6.336 11.858 9.418 17.809 0.3 0.599 0.514 1.541 0.257 2.055-0.342 0.557-1.199 0.813-1.884 1.199-56.166-14.512-141.442-64.514-169.397-100.602zM913.167 448.428c19.050-33.092 36.516-65.969 57.022-97.049 0.471-0.685 2.611-0.3 3.981-0.385 14.898 64 14.256 150.090-1.456 194.012-1.284-0.471-3.296-0.599-3.896-1.541-18.579-31.465-36.944-63.015-55.652-95.037zM52.741 546.975c-17.809-26.285-18.408-164.474-1.712-196.195 10.36 11.13 44.008 67.682 58.435 98.547-18.194 31.807-36.73 64.728-56.722 97.648zM658.194 1.199c38.357 2.226 141.185 61.346 168.070 97.563-10.189 2.14-19.735 1.199-29.11 1.37-8.947 0.128-17.98 0-26.97 0-9.718 0-19.393 0.043-29.196 0-9.632-0.086-19.264-0.257-27.698-0.385-20.506-30.138-50.515-83.906-55.096-98.547zM196.195 98.033c35.917-40.198 129.67-93.496 169.739-97.477-5.48 15.668-42.981 81.423-55.995 98.076-20.634 2.269-93.924 2.012-113.744-0.599z" />
<glyph unicode="&#xe907;" glyph-name="icon7" horiz-adv-x="925" d="M140.415 871.599c0 5.993 0 11.901 0 17.809 0.128 34.975 22.689 63.144 55.438 69.18 35.061 6.421 65.755-10.788 78.855-44.308 1.841-4.752 3.339-9.632 5.308-15.24 9.332 0 18.237-0.086 27.098 0 21.105 0.257 41.868-2.868 61.902-9.161 38.871-12.286 68.067-36.559 87.674-72.433 10.831-19.906 17.381-41.354 21.704-63.443 8.99-45.934 8.99-92.34 3.896-138.617-3.596-32.706-9.675-65.113-14.213-97.734-3.767-26.756-5.18-53.683-2.055-80.567 3.682-31.979 16.139-60.532 34.804-86.518 12.629-17.637 26.114-34.633 38.528-52.484 20.12-28.854 39.599-58.049 59.377-87.16 2.868-4.281 5.822-8.476 8.262-12.029 2.611-0.557 4.067-1.241 5.48-1.113 33.177 2.825 65.67-1.841 97.905-9.118 23.588-5.266 47.39-6.764 71.406-3.896 49.916 5.908 84.12 32.321 102.528 79.112 1.627 4.195 2.654 8.647 4.538 12.672 4.281 9.375 12.886 13.699 21.79 11.516 9.803-2.44 15.283-11.13 13.785-22.432-0.471-3.596-1.541-7.278-2.783-10.745-20.334-56.68-59.762-91.912-118.539-105.14-35.061-7.92-69.951-4.966-104.626 2.611-21.918 4.795-43.88 9.033-66.74 6.165-2.868-6.678 1.327-11.559 3.425-16.696 11.302-27.826 20.934-56.209 20.72-86.646-0.086-14.898-0.899-30.095-4.195-44.522-8.348-36.902-32.621-59.933-68.495-69.993-28.425-7.963-56.508-5.308-82.879 8.519-39.556 20.805-62.373 61.731-49.573 116.313 10.66 45.421 38.785 78.598 77.87 102.828 11.387 7.021 23.631 12.586 35.789 18.922 2.397 6.678-2.654 11.173-5.779 15.668-24.316 34.975-49.017 69.822-73.546 104.669-3.468 4.88-7.064 9.718-10.702 14.427-41.011 53.34-54.539 113.959-46.662 179.842 3.896 32.664 9.29 65.113 14.041 97.691 7.577 51.457 9.332 102.871-2.654 153.9-3.039 13.057-7.235 25.985-12.672 38.229-15.326 34.247-41.482 55.909-78.256 64.642-21.191 4.966-45.934 5.608-69.993 0.642-0.728-7.534-1.584-15.54-2.269-23.545-0.771-8.177-1.541-16.396-1.969-24.615-3.596-70.25-6.935-140.5-10.745-210.751-3.553-66.526-7.748-132.966-11.473-199.449-2.14-38.143-3.767-76.243-5.865-114.387-3.853-70.978-7.877-141.913-11.815-212.977-1.755-30.652-3.425-61.26-5.094-91.869-0.257-4.452-0.3-9.033-1.027-13.399-1.755-9.803-9.375-15.968-18.879-15.711-8.733 0.214-15.754 5.437-17.381 14.598-1.712 9.504-2.483 19.264-2.997 28.982-5.137 97.905-10.060 195.81-15.24 293.715-4.409 83.692-8.99 167.385-13.528 251.034-4.452 81.466-8.862 162.932-13.357 244.399-0.813 13.956-1.456 27.912-4.281 44.008-4.923-3.168-8.177-4.709-10.874-6.978-15.197-12.714-25.814-28.854-34.033-46.748-8.519-18.536-13.827-38.1-16.482-58.092-3.425-25.9-5.437-52.013-3.596-78.341 4.153-60.575 5.094-121.151 2.312-181.811-1.37-29.196-5.522-58.049-13.699-86.261-4.837-16.567-11.088-32.706-22.004-46.32-4.623-5.779-9.975-11.302-15.968-15.454-6.978-4.966-16.567-2.911-22.518 3.254-6.293 6.464-7.106 14.684-2.14 22.518 0.813 1.241 1.627 2.569 2.654 3.596 15.625 15.454 21.747 35.318 26.499 55.995 7.791 33.734 10.317 68.11 10.445 102.528 0.214 41.91-2.14 83.778-2.997 125.688-0.471 23.203-0.985 46.405 0 69.565 1.156 30.009 7.149 59.377 18.023 87.502 15.112 38.957 38.957 70.55 77.014 89.9 1.926 0.985 3.553 2.569 5.522 4.067zM586.488 151.802c-23.502-5.18-43.323-16.439-60.575-32.193-21.576-19.778-35.532-44.051-40.027-73.204-4.195-26.927 9.675-52.656 34.205-64.728 13.785-6.764 28.425-8.904 43.623-6.849 27.655 3.767 45.592 20.891 51.885 48.289 3.51 15.54 3.639 31.037 1.156 46.705-4.153 26.071-13.057 50.472-24.701 74.017-1.241 2.569-3.254 4.752-5.565 7.963zM238.020 845.057c-1.413 0.257-2.783 0.471-4.153 0.728-1.541-3.168-2.868-6.421-4.709-9.418-5.308-8.562-12.629-12.372-20.206-10.831-8.904 1.841-15.369 8.904-15.839 19.221-0.557 14.94-0.514 29.924-0.043 44.864 0.385 11.045 6.25 18.151 14.94 19.692 10.103 1.798 17.466-1.969 21.961-11.344 1.456-3.039 2.012-7.534 7.278-6.464 0.813 1.156 2.44 2.483 2.226 3.468-3.082 17.894-15.754 28.425-32.321 27.141-15.411-1.156-27.227-13.399-28.254-29.624-0.342-5.951 0.171-11.944 0.471-17.937 1.327-26.114 2.825-52.27 4.238-78.384 1.798-33.605 3.596-67.211 5.48-100.816 3.896-70.935 7.963-141.87 11.858-212.805 2.012-37.33 3.767-74.702 5.694-112.032 0.086-1.926 0.771-3.853 2.183-10.66 1.798 8.904 3.168 13.014 3.425 17.209 8.647 155.997 17.167 311.995 25.771 467.992z" />
<glyph unicode="&#xe908;" glyph-name="icon8" d="M512.043 961.71c-282.316 0-512.043-229.684-512.043-512s229.727-512.043 512.043-512.043c282.273 0 512 229.727 512 512.043s-229.727 512-512 512zM987.059 497.597l-91.284-67.896-121.384 86.025 44.295 141.949 121.726 1.411c24.371-49.725 40.789-104.067 46.647-161.488zM638.3 797.485l-122.623-84.272-118.006 90.557 41.473 117.065c23.815 3.72 48.1 6.2 72.899 6.2 30.955 0 61.098-3.207 90.428-8.85l35.829-120.699zM99.963 689.655l128.438-14.537 29.672-145.754-129.379-73.369-85.982 78.713c10.005 55.668 29.758 107.744 57.25 154.947zM155.246 133.66l47.929 105.307 147.807-16.803 29.758-145.669-88.419-50.067c-52.119 27.15-98.424 63.578-137.075 107.231zM728.686 24.932l-91.54 53.872 32.238 145.198 148.020 14.323 47.459-108.942c-38.737-42.542-84.571-78.072-136.177-104.452zM889.747 158.928l-50.623 116.338-198.258-19.112-43.012-194.453 92.395-54.428c-55.027-22.276-115.141-34.846-178.206-34.846-64.219 0-125.317 12.912-181.242 35.915l88.889 50.452-39.677 195.094-197.959 22.447-51.221-112.661c-60.029 79.91-96.115 178.719-96.115 286.079 0 14.665 0.898 28.988 2.223 43.397l86.965-79.654 173.289 98.124-39.848 195.094-136.776 15.435c65.758 94.063 164.353 163.156 279.024 190.947l-43.012-121.469 157.897-121.213 164.097 112.747-37.112 125.574c118.476-33.478 218.097-111.507 279.965-214.89l-128.31-1.881-59.302-190.007 162.386-115.227 92.823 69.136c0-2.052 0.385-4.062 0.385-6.157 0-109.497-37.411-210.144-99.664-290.782zM350.939 487.891l61.483-189.322h199.113l61.526 189.322-161.061 117.022-161.061-117.022zM586.481 333.244h-148.79l-46.005 141.393 120.357 87.521 120.272-87.521-45.834-141.393z" />
<glyph unicode="&#xe909;" glyph-name="icon9" d="M828.739 134.117h-28.079v603.567h28.079c61.386 0 111.185 49.799 111.185 111.185s-49.799 111.131-111.185 111.131h-609.765c-61.386 0-111.185-49.745-111.185-111.185s49.745-111.185 111.131-111.185h18.863v-603.567h-18.863c-61.332 0.054-111.131-49.745-111.131-111.131s49.745-111.185 111.131-111.185h609.765c61.386 0 111.185 49.799 111.185 111.185s-49.745 111.185-111.131 111.185zM726.285 134.117l-139.533 58.853 164.972 69.578v-128.431h-25.438zM600.387 134.117h-153.061l76.531 32.229 76.531-32.229zM751.67 350.72l-164.972 69.632 164.972 69.632v-139.264zM523.857 446.922l-224.795 94.855 224.795 94.909 224.741-94.909-224.741-94.855zM586.752 663.256l164.972 69.632v-139.21l-164.972 69.578zM524.504 689.502l-114.041 48.182h228.837l-114.796-48.182zM461.501 662.986l-174.781-73.297v147.079l174.781-73.782zM286.72 493.918l174.188-73.512-174.188-73.566v147.079zM523.857 393.782l206.525-87.148-206.525-87.148-206.471 87.148 206.471 87.148zM156.78 848.815c0 34.277 27.917 62.195 62.195 62.195h609.765c34.331 0 62.195-27.917 62.195-62.195 0-34.331-27.917-62.195-62.195-62.195h-609.765c-34.331 0-62.195 27.917-62.195 62.195zM286.72 266.429l174.188-73.459-139.426-58.853h-34.762v132.312zM828.739-39.262h-609.765c-34.277 0-62.195 27.917-62.195 62.195s27.917 62.087 62.195 62.087h609.765c34.331 0 62.195-27.81 62.195-62.087s-27.864-62.195-62.195-62.195z" />
<glyph unicode="&#xe90a;" glyph-name="icon10" d="M254.732 960c-73.24 0-132.827-59.587-132.827-132.827v-634.392c0-45.544 23.211-85.577 58.222-109.422 22.821-23.308 54.565-37.693 89.624-37.693h234.203v-110.592l44.227 5.51 62.415 46.86 62.366-46.86 44.276-5.51v110.592h204.312v44.276h-204.312v58.612h204.312v44.227h-248.588v-196.803l-62.366 46.811-62.415-46.811v196.803h-306.907v-44.227h262.68v-58.612h-234.203c-44.861 0-81.432 36.571-81.432 81.432 0 44.958 36.571 81.481 81.432 81.481h651.849v707.145h-666.868zM269.751 297.082c-42.959 0-80.896-21.65-103.619-54.565v584.655c0 48.859 39.741 88.552 88.6 88.552h622.641v-618.642h-607.622z" />
<glyph unicode="&#xe90b;" glyph-name="icon11" d="M1024 786.212c0 4.855-0.248 9.71-0.099 14.515 1.040 34.282-32.102 64.997-63.858 63.214-5.499-0.297-11.097 0-16.596 0-71.388 0-142.825-0.050-214.213 0.050-7.382 0-15.11-1.288-21.996 1.486-4.706 6.886-2.873 14.020-3.022 20.757-0.396 15.308 0.297 30.566-0.743 45.775-0.892 14.614-10.8 24.869-24.225 27.198-15.605 2.774-29.080-2.675-35.223-15.556-2.675-5.4-3.616-11.89-3.864-17.934-0.594-15.902-0.149-31.904-0.347-47.806-0.050-3.963-0.991-7.877-1.486-12.583-5.103-0.495-9.066-1.239-13.128-1.239-75.549-0.050-151.098-0.050-226.647 0.050-3.963 0-7.877 1.239-13.128 2.18-0.198 13.673-0.347 26.752-0.545 39.88-0.149 8.323 0.248 16.695-0.743 24.919-2.328 19.222-14.961 29.526-34.084 28.585-17.389-0.842-28.882-12.534-29.724-30.963-0.495-9.66 0-19.42-0.198-29.080-0.198-10.948 1.040-21.996-1.684-35.669-9.314 0-16.844 0-24.374 0-76.292 0-152.485-0.694-228.728 0.248-34.034 0.396-66.186-30.566-65.245-64.502 0.149-6.242-0.050-12.435-0.050-18.677 0-254.34 0-508.73 0-763.071 0-5.549 0.198-11.097 0.050-16.596-1.040-35.025 30.913-66.136 64.502-65.245 4.904 0.099 9.71 0 14.515 0 288.325 0 576.7 0 864.926 0 5.598 0 11.097 0 16.695 0 33.143-0.347 63.56 30.368 63.065 62.025-0.050 5.598 0.149 11.196 0.149 16.695 0.050 257.065 0.050 514.229 0.050 771.344zM959.845 771.697c0-247.504 0-494.958 0-742.511 0-8.125-0.396-16.447-0.594-25.811-4.855-0.892-8.62-1.932-12.534-2.229-5.499-0.347-11.147-0.099-16.596-0.099-278.714 0-557.429 0-836.093 0-8.868 0-17.835-0.892-24.82 0.842-2.081 2.13-2.725 2.477-3.022 3.072-0.297 0.644-0.446 1.387-0.446 2.031-0.198 259.245-0.396 518.539-0.594 777.834 0 2.725 0.099 5.499 0.495 8.273 0.149 1.338 1.040 2.576 2.13 5.152 4.706 0.446 10.057 1.288 15.457 1.387 114.191 1.982 218.225 0.941 237.051-2.923 0-10.651 0.198-20.312-0.050-29.972-0.644-23.036 25.266-38.295 46.122-28.089 9.264 4.607 15.556 11.592 17.091 21.996 0.892 6.143 0.991 12.385 1.437 18.578 0.396 6.044 0.793 12.137 1.139 17.835 17.835 3.468 176.76 5.053 240.271 2.527 3.963-0.149 7.926-1.338 12.98-2.229 0.347-10.948 0.297-21.253 0.991-31.458 1.040-15.258 8.818-24.522 22.541-29.080 16.596-5.598 40.029 5.796 40.92 26.752 0.545 10.948 0.842 21.946 1.189 33.687 4.954 0.941 8.868 2.279 12.781 2.279 76.292 0.149 152.584 0.099 228.778 0.050 3.369 0 6.737-0.743 11.246-1.288 0.793-4.26 1.783-8.125 2.13-12.038 0.297-4.805 0-9.71 0-14.565zM799.978 320.334c-21.352 0.991-42.803 0.991-64.204 0-20.51-0.892-31.31-12.682-32.102-33.043-0.495-10.304-0.099-20.708-0.099-31.111h-0.050c0-9.66-0.198-19.321 0.050-28.932 0.694-22.244 10.948-34.084 32.35-35.025 21.451-0.991 42.852-0.991 64.254 0 20.807 0.941 31.31 12.336 31.805 33.043s0.495 41.416 0 62.173c-0.495 20.559-11.048 32.003-32.003 32.895zM320.378 256.725c0 10.998 0.446 22.095-0.099 33.143-0.892 17.389-10.75 28.981-28.139 30.021-23.383 1.288-46.964 1.288-70.347 0.149-18.231-0.892-29.031-12.93-29.675-31.012-0.694-21.401-0.594-42.852 0-64.204 0.545-19.519 11.345-31.557 30.566-32.449 22.69-1.090 45.577-1.090 68.316 0.198 18.528 0.941 28.535 12.534 29.377 31.012 0.446 10.998 0.050 22.045 0 33.143 0 0 0 0 0 0zM541.278 320.681c-9.611 0.446-19.271 0-28.981 0 0-0.099 0-0.248 0-0.446-11.741 0-23.581 0.892-35.174-0.198-17.884-1.734-27.891-11.939-28.436-29.625-0.793-22.739-0.793-45.429-0.050-68.217 0.594-17.735 10.503-27.445 28.337-29.873 1.338-0.248 2.725-0.446 4.112-0.446 20.658 0 41.465-0.694 62.124 0.198 21.946 0.892 32.548 11.692 33.341 34.084 0.842 19.965 0.842 40.078 0.050 60.043-0.842 23.036-11.791 33.341-35.322 34.48zM222.684 448.050c22.045-0.793 44.24-0.149 66.285-0.248 18.578-0.050 32.251 16.15 31.508 31.706-0.495 11.048-0.099 22.095-0.099 33.192 0 0 0 0-0.050 0 0 11.048 0.495 22.095-0.050 33.143-0.991 17.884-12.236 29.724-30.269 30.319-22.789 0.793-45.676 0.842-68.415-0.099-16.745-0.644-28.585-12.385-29.328-29.278-0.941-22.739-0.892-45.627-0.050-68.366 0.644-17.934 12.583-29.724 30.467-30.368zM735.179 447.95c11.048-0.594 22.095-0.099 33.143-0.099 0-0.050 0-0.050 0-0.050 10.354 0 20.757 0.297 31.111-0.099 17.934-0.594 33.291 14.565 32.796 32.598-0.594 21.401 0.297 42.852-0.297 64.254-0.545 19.321-11.89 30.963-31.161 31.706-21.401 0.694-42.803 0.644-64.254 0.050-20.212-0.545-32.152-12.236-32.746-32.399-0.743-21.401-0.743-42.902 0-64.303 0.694-19.123 12.435-30.666 31.409-31.656zM448.44 512.254c0-11.048-0.495-22.095 0.050-33.143 0.991-19.321 12.038-30.616 31.458-31.161 21.401-0.644 42.852-0.594 64.204-0.050 18.578 0.495 30.765 10.75 31.805 28.882 1.387 23.383 1.387 46.964 0.099 70.347-1.040 18.181-13.277 28.634-31.557 29.179-21.401 0.594-42.852 0.644-64.254-0.050-20.212-0.594-31.012-12.137-31.805-32.895-0.446-10.354-0.099-20.757-0.099-31.111 0 0 0.050 0 0.099 0z" />
<glyph unicode="&#xe90c;" glyph-name="icon12" d="M778.24 726.187c11.221 0 21.035 0 30.891 0 37.461 0 74.923 0.171 112.384-0.128 8.747-0.043 17.621-1.152 26.283-2.645 13.611-2.389 25.856-8.448 35.755-17.963 23.168-22.443 38.101-48.597 38.059-82.389-0.341-165.888-0.256-331.861 0-497.792 0.043-21.632-4.779-41.301-18.56-58.112-15.573-19.328-34.304-34.816-59.221-40.832-4.992-1.195-10.197-1.749-15.403-2.133-5.675-0.256-11.435-0.043-17.109-0.043-268.416 0-536.789 0-805.205 0-3.072 0-6.272 0.213-9.301 0-47.744-3.797-87.339 39.424-94.464 75.563-1.664 8.576-1.963 17.579-2.005 26.368-0.171 47.317-0.085 94.635-0.085 142.037 0 118.059 0 236.117 0 354.176 0 11.989 0 23.893 3.627 35.541 3.499 11.093 8.448 21.376 16.341 29.867 16.597 17.92 36.267 31.147 60.501 36.437 6.997 1.493 14.379 1.92 21.589 1.963 41.088 0.128 82.176 0.085 123.264 0.085 5.717 0 11.392 0 17.792 0 25.387 42.624 50.688 84.907 75.819 127.189 127.787 0 254.635 0 382.763 0 25.728-41.301 49.877-84.309 76.288-127.189zM278.613 661.376c-6.187 0-11.861 0-17.579 0-50.432 0-100.907 0-151.339 0-3.627 0-7.296 0.085-10.965 0-19.371-0.768-33.28-14.208-34.219-33.28-0.299-5.205-0.128-10.411-0.128-15.659 0-158.123 0-316.245 0-474.411 0-4.651-0.043-9.387 0.128-14.080 0.128-3.541 0.427-7.296 1.152-10.795 3.328-14.677 14.805-24.021 29.952-24.363 3.584-0.043 7.253 0 10.88 0 268.459 0 536.832 0 805.291 0 3.627 0 7.296 0.256 10.923 0 8.405-0.683 14.976 2.859 21.035 8.363 8.533 7.68 14.464 16.341 13.013 28.501-0.341 2.603-0.043 5.163-0.043 7.765 0 160.256 0 320.469 0 480.683 0 4.139 0.469 8.405-0.171 12.459-0.853 5.035-1.621 10.453-4.053 14.805-7.125 13.269-17.408 20.523-33.749 20.309-53.077-0.768-106.155-0.299-159.189-0.299-5.675 0-11.392 0-17.28 0-21.845 44.8-49.237 85.248-73.728 127.189-105.003 0-208.896 0-313.6 0-25.216-41.899-50.347-83.755-76.331-127.189zM510.848 630.187c118.4 3.328 223.829-101.675 224-222.976 0.128-119.68-102.827-224.683-224.981-224.171-122.069 0.384-226.091 106.539-222.379 224.427-3.243 119.211 103.424 226.133 223.36 222.72zM669.525 407.253c2.816 80.597-67.243 158.848-158.379 159.061-87.723 0.256-160.043-72.576-159.872-159.616 0.171-92.928 80.939-162.432 160.512-158.379 82.048-2.901 160.597 71.339 157.739 158.933z" />
<glyph unicode="&#xe90d;" glyph-name="icon13" d="M512 959.95c-282.67 0-511.899-229.179-511.899-511.899 0-282.67 229.179-511.95 511.899-511.95s511.899 229.279 511.899 511.95c0 282.721-229.179 511.899-511.899 511.899zM512 3.645c-244.994 0-444.304 199.36-444.304 444.405 0 244.994 199.31 444.304 444.304 444.304s444.355-199.31 444.355-444.304c0-245.045-199.36-444.405-444.355-444.405zM517.893 751.019h-67.545v-361.649h341.753v67.545h-274.208z" />
<glyph unicode="&#xe90e;" glyph-name="icon14" d="M620.502 471.075l-57.366-57.495v213.566c0 28.232-22.861 51.221-51.050 51.221-28.275 0-51.264-23.032-51.264-51.221v-213.609l-57.366 57.495c-20.025 19.896-52.511 19.896-72.492 0-19.853-19.982-19.853-52.468 0-72.492l144.898-144.726c9.969-9.969 23.118-14.997 36.268-14.997 6.489 0 12.977 1.203 19.208 3.738 6.145 2.492 11.903 6.274 16.845 11.258l144.855 144.726c20.025 20.025 20.025 52.382 0 72.406-20.025 20.11-52.554 20.11-72.535 0.129v0zM767.979 891.332c-244.763 141.375-558.022 57.409-699.354-187.44-141.375-244.806-57.366-557.893 187.44-699.225 244.849-141.375 557.936-57.538 699.268 187.311s57.495 557.936-187.354 699.354v0zM866.597 243.2c-113.1-195.862-363.535-262.983-559.397-149.84-195.905 113.1-262.983 363.449-149.883 559.397 113.1 195.862 363.492 262.983 559.44 149.883 195.862-113.1 262.983-363.578 149.84-559.44v0z" />
<glyph unicode="&#xe90f;" glyph-name="icon15" d="M620.502 424.882c19.982-20.025 52.511-20.025 72.492 0.086 20.025 19.982 20.025 52.382 0 72.406l-144.855 144.726c-4.942 4.985-10.7 8.766-16.845 11.258-6.274 2.535-12.719 3.738-19.208 3.738-13.149 0-26.255-4.985-36.268-14.997l-144.898-144.726c-19.853-20.025-19.853-52.511 0-72.492 19.982-19.896 52.468-19.896 72.492 0l57.366 57.495v-213.609c0-28.189 23.032-51.179 51.264-51.179s51.050 22.99 51.050 51.179v213.609l57.409-57.495zM767.979 4.625c244.849 141.461 328.686 454.548 187.354 699.354-141.332 244.849-454.419 328.686-699.268 187.311-244.849-141.332-328.814-454.419-187.44-699.225 141.332-244.806 454.591-328.814 699.354-187.44v0zM866.597 652.757c113.143-195.862 46.022-446.34-149.84-559.44-195.948-113.1-446.297-45.936-559.44 149.84-113.1 195.991-46.022 446.34 149.883 559.44 195.862 113.143 446.297 45.979 559.397-149.84v0z" />
<glyph unicode="&#xe910;" glyph-name="icon16" d="M488.882 556.502l57.495-57.366h-213.566c-28.232 0-51.221-22.861-51.221-51.050 0-28.275 23.032-51.264 51.221-51.264h213.609l-57.495-57.409c-19.896-20.025-19.896-52.511 0-72.492 19.982-19.853 52.468-19.853 72.492 0l144.726 144.898c9.969 9.969 14.997 23.118 14.997 36.268 0 6.489-1.203 12.977-3.738 19.208-2.492 6.145-6.274 11.903-11.258 16.845l-144.726 144.855c-20.025 20.025-52.382 20.025-72.406 0-20.11-19.982-20.11-52.511-0.129-72.492v0zM68.625 703.979c-141.375-244.763-57.366-558.022 187.44-699.354 244.806-141.375 557.893-57.409 699.225 187.44 141.375 244.849 57.538 557.936-187.311 699.268s-557.936 57.495-699.354-187.354v0zM716.757 802.597c195.862-113.1 262.983-363.535 149.84-559.44-113.1-195.905-363.449-262.94-559.397-149.84-195.862 113.1-262.983 363.492-149.883 559.44 113.1 195.862 363.578 262.983 559.44 149.84v0z" />
<glyph unicode="&#xe911;" glyph-name="icon17" d="M535.075 556.502c20.025 19.982 20.025 52.511-0.086 72.492-19.982 20.025-52.382 20.025-72.406 0l-144.726-144.855c-4.985-4.942-8.766-10.7-11.258-16.845-2.535-6.274-3.738-12.719-3.738-19.208 0-13.149 4.985-26.255 14.997-36.268l144.726-144.898c20.025-19.853 52.511-19.853 72.492 0 19.896 19.982 19.896 52.468 0 72.492l-57.495 57.409h213.566c28.232 0 51.221 23.032 51.221 51.264s-22.99 51.050-51.221 51.050h-213.566l57.495 57.366zM955.332 703.979c-141.461 244.849-454.505 328.686-699.354 187.354s-328.686-454.419-187.311-699.268c141.332-244.849 454.419-328.814 699.225-187.44 244.806 141.332 328.771 454.591 187.44 699.354v0zM307.2 802.597c195.905 113.143 446.297 46.022 559.44-149.84 113.1-195.948 45.936-446.34-149.883-559.44-195.948-113.1-446.297-46.022-559.397 149.84-113.143 195.862-45.979 446.34 149.84 559.44v0z" />
<glyph unicode="&#xe912;" glyph-name="icon18" d="M511.275 759.979c6.955 7.381 12.971 13.867 19.029 20.267 14.251 14.805 28.16 30.037 42.923 44.331 44.245 42.837 97.835 65.109 158.805 69.845 43.093 3.371 85.845 0.725 127.104-13.867 94.763-33.536 146.304-101.931 159.701-200.021 9.6-70.699-6.272-136.875-39.765-199.211-22.613-42.112-52.053-79.061-85.888-112.725-85.76-85.077-171.349-170.411-256.896-255.616-32.384-32.213-64.768-64.341-97.109-96.512-4.437-4.395-8.747-9.045-13.653-12.885-9.301-7.211-20.181-6.997-29.525 0.469-4.864 3.883-9.173 8.448-13.611 12.885-118.059 117.376-236.032 234.795-354.048 352.128-40.96 40.747-75.008 86.315-98.688 139.349-17.024 38.016-27.093 77.739-29.227 119.125-2.475 48.085 5.931 94.592 27.733 137.899 33.707 66.731 89.088 105.984 160.853 122.667 47.787 11.093 95.915 10.027 143.787-0.384 43.947-9.6 81.835-30.933 114.219-61.739 16.896-16 32.384-33.408 48.555-50.091 4.864-5.077 9.856-9.984 15.701-15.915zM511.061 52.267c7.424 7.083 13.355 12.501 19.029 18.133 22.229 22.101 44.331 44.203 66.56 66.261 88.704 88.277 177.408 176.64 266.197 264.917 37.163 36.907 68.011 78.208 88.917 126.464 23.381 53.931 31.701 109.739 18.944 167.637-16.213 73.387-59.989 122.667-132.011 145.109-45.312 14.080-91.563 13.909-137.856 4.096-40.661-8.619-74.539-29.696-103.381-58.837-19.499-19.669-37.589-40.747-56.277-61.184-4.821-5.291-9.173-11.051-14.464-15.787-10.027-9.003-21.419-9.173-31.317-0.128-6.528 6.016-11.904 13.312-18.048 19.755-22.144 23.381-43.477 47.531-66.731 69.675-25.045 23.851-55.381 38.997-89.344 46.421-39.851 8.619-80 9.771-119.808 0.725-73.984-16.811-124.16-60.501-146.304-134.144-11.563-38.4-11.947-77.611-5.333-116.821 7.168-42.923 24.661-81.92 48.128-118.357 18.005-27.947 39.339-53.163 62.891-76.501 110.933-110.379 221.867-220.715 332.8-331.093 5.035-5.077 10.368-9.771 17.408-16.341z" />
<glyph unicode="&#xe913;" glyph-name="icon19" d="M511.957 759.765c6.912 7.381 12.928 13.909 19.072 20.309 14.293 14.848 28.245 30.080 42.965 44.373 44.288 42.88 98.005 65.195 158.976 69.931 43.264 3.413 86.016 0.725 127.317-13.867 94.848-33.579 146.475-102.101 159.872-200.32 9.685-70.827-6.272-137.045-39.765-199.509-22.656-42.112-52.139-79.104-86.059-112.811-85.888-85.205-171.563-170.709-257.237-256.043-32.427-32.213-64.853-64.427-97.28-96.683-4.437-4.309-8.747-9.045-13.653-12.8-9.344-7.253-20.181-7.040-29.525 0.469-4.864 3.84-9.216 8.363-13.653 12.8-118.187 117.632-236.373 235.179-354.517 352.768-41.003 40.747-75.093 86.357-98.816 139.435-17.024 38.144-27.093 77.952-29.227 119.381-2.475 48.171 5.931 94.72 27.776 138.069 33.749 66.816 89.216 106.112 161.067 122.795 47.829 11.179 96.043 10.069 143.915-0.384 44.032-9.557 81.963-30.933 114.389-61.781 16.896-16.043 32.427-33.408 48.597-50.176 4.949-5.077 9.941-10.027 15.787-15.957z" />
<glyph unicode="&#xe914;" glyph-name="icon20" d="M448.171 158.848c-5.376 6.4-12.075 11.733-18.432 17.408-72.619 64.341-145.365 128.683-217.899 193.067-4.48 3.925-11.691 6.571-10.965 15.616 9.899 3.584 20.309 1.792 30.379 1.792 170.539 0.171 341.077 0.171 511.616 0.171 70.613 0 141.355-0.171 211.968 0.085 10.283 0 20.907 0.555 30.763 3.072 24.917 6.272 41.429 30.933 38.571 55.296-3.072 26.24-22.101 45.355-47.957 47.573-8.405 0.725-16.896 0.384-25.429 0.384-99.883 0.085-199.765 0-299.605 0-141.355 0-282.667 0-423.979 0.085-9.045 0-18.261-1.195-29.397 2.091 5.163 10.624 13.099 15.701 19.84 21.632 71.211 63.104 142.549 126.123 213.803 189.184 6.315 5.632 12.971 11.136 18.133 17.707 13.824 17.451 14.976 42.368 3.84 61.056-11.605 19.584-32.64 28.757-55.637 24.533-12.757-2.304-21.803-10.453-31.019-18.517-113.536-100.608-226.56-201.813-341.163-301.184-34.773-30.123-33.408-69.547-0.427-98.261 113.152-98.133 224.768-198.144 336.981-297.301 5.632-4.992 11.093-10.325 17.365-14.421 12.117-8.021 25.216-12.331 40.107-8.491 39.381 9.899 54.656 55.979 28.544 87.424z" />
<glyph unicode="&#xe915;" glyph-name="icon21" d="M576.299 158.848c5.376 6.4 12.075 11.733 18.432 17.408 72.619 64.341 145.365 128.683 217.899 193.067 4.48 3.925 11.691 6.571 10.965 15.616-9.899 3.584-20.309 1.792-30.379 1.792-170.539 0.171-341.077 0.171-511.616 0.171-70.613 0-141.355-0.171-211.968 0.085-10.283 0-20.907 0.555-30.763 3.072-24.917 6.315-41.429 30.933-38.571 55.296 3.072 26.24 22.101 45.355 47.957 47.573 8.405 0.725 16.896 0.384 25.429 0.384 99.883 0.085 199.765 0 299.605 0 141.355 0 282.667 0 423.979 0.085 9.045 0 18.304-1.195 29.397 2.091-5.163 10.624-13.141 15.701-19.883 21.632-71.211 63.104-142.549 126.123-213.803 189.184-6.315 5.632-12.971 11.136-18.133 17.707-13.824 17.451-15.019 42.368-3.84 61.056 11.563 19.584 32.64 28.757 55.637 24.533 12.757-2.304 21.845-10.453 31.061-18.56 113.536-100.608 226.56-201.813 341.163-301.141 34.731-30.123 33.408-69.547 0.427-98.261-113.152-98.133-224.768-198.144-336.981-297.301-5.632-4.992-11.093-10.325-17.365-14.421-12.075-8.021-25.216-12.331-40.064-8.491-39.424 9.899-54.699 55.979-28.587 87.424z" />
<glyph unicode="&#xe916;" glyph-name="icon22" d="M896.171 403.797c-75.989 77.824-179.925 117.333-308.992 117.333h-434.048l283.947 253.056-51.627 57.899-385.493-345.216 385.493-343.851 51.627 57.899-272.213 242.645h422.315c107.136 0 192.299-31.531 253.099-93.525 110.037-112.341 107.605-290.603 107.563-292.352l77.483-1.835c0.256 8.576 3.669 211.755-129.152 347.947z" />
<glyph unicode="&#xe917;" glyph-name="icon23" d="M510.893 960.979c-282.675 0-511.872-229.197-511.872-511.872 0-282.803 229.197-511.957 511.83-511.957 282.718 0 512 229.197 512 511.957 0 282.675-229.24 511.872-511.957 511.872v0zM510.893-14.354c-255.894 0-463.333 207.568-463.333 463.461 0 255.936 207.44 463.419 463.333 463.419 255.936 0 463.504-207.482 463.504-463.419 0-255.894-207.568-463.461-463.504-463.461v0zM463.163 449.661l121.262 121.305c13.071 13.029 13.071 34.148 0 47.176l-15.711 15.754c-13.071 13.029-34.275 13.029-47.304 0l-150.854-150.811c-7.792-7.834-10.346-18.521-8.771-28.698-5.748-12.518-3.832-27.846 6.642-38.15l154.132-154.217c13.242-13.284 34.701-13.284 48.156 0l15.967 16.094c13.327 13.327 13.327 34.786 0 48.198l-123.519 123.348z" />
<glyph unicode="&#xe918;" glyph-name="icon24" d="M510.978 960.979c-282.718 0-512-229.197-512-511.872 0-282.803 229.282-511.957 512-511.957 282.633 0 511.83 229.197 511.83 511.957 0 282.675-229.155 511.872-511.83 511.872v0zM510.978-14.354c-255.936 0-463.504 207.568-463.504 463.461 0 255.936 207.568 463.419 463.504 463.419 255.894 0 463.333-207.482 463.333-463.419 0.043-255.894-207.397-463.461-463.333-463.461v0zM435.232 326.227c-13.327-13.369-13.327-34.871 0-48.198l15.967-16.094c13.412-13.284 34.914-13.284 48.156 0l154.090 154.217c10.474 10.304 12.39 25.675 6.642 38.15 1.533 10.176-0.979 20.863-8.771 28.698l-150.896 150.854c-13.029 13.029-34.233 13.029-47.304 0l-15.711-15.754c-13.071-13.071-13.071-34.148 0-47.176l121.262-121.305-123.434-123.391z" />
<glyph unicode="&#xe919;" glyph-name="icon25" d="M-0.979 449.15c0-282.718 229.197-512 511.872-512 282.76 0 511.957 229.282 511.957 512 0.043 282.633-229.155 511.83-511.957 511.83-282.718 0-511.872-229.155-511.872-511.83v0zM974.312 449.15c0-255.936-207.568-463.504-463.419-463.504-255.936 0-463.419 207.568-463.419 463.504 0 255.894 207.482 463.333 463.419 463.333 255.894 0.043 463.461-207.397 463.419-463.333v0zM633.73 373.403c13.369-13.327 34.871-13.327 48.198 0l16.094 15.967c13.284 13.412 13.284 34.914 0 48.156l-154.217 154.090c-10.304 10.474-25.675 12.39-38.15 6.642-10.176 1.533-20.863-0.979-28.698-8.771l-150.811-150.854c-13.029-13.029-13.029-34.233 0-47.304l15.754-15.711c13.071-13.071 34.148-13.071 47.176 0l121.305 121.262 123.348-123.476z" />
<glyph unicode="&#xe91a;" glyph-name="icon26" d="M-0.979 449.022c0-282.633 229.197-511.83 511.872-511.83 282.803 0 512 229.197 511.957 511.83 0 282.718-229.197 512-511.957 512-282.718-0.043-511.872-229.282-511.872-512v0zM974.312 449.022c0.043-255.894-207.525-463.333-463.419-463.333-255.936 0-463.419 207.44-463.419 463.333 0 255.936 207.482 463.504 463.419 463.504 255.851 0 463.419-207.568 463.419-463.504v0zM510.339 401.335l-121.305 121.262c-13.029 13.071-34.148 13.071-47.176 0l-15.754-15.711c-13.029-13.071-13.029-34.275 0-47.304l150.811-150.854c7.834-7.792 18.521-10.304 28.698-8.771 12.518-5.748 27.846-3.832 38.15 6.642l154.217 154.090c13.284 13.242 13.284 34.701 0 48.156l-16.094 15.967c-13.327 13.327-34.786 13.327-48.198 0l-123.348-123.476z" />
<glyph unicode="&#xe91b;" glyph-name="icon27" d="M768.021 891.348c-244.801 141.33-557.996 57.346-699.326-187.455-141.373-244.801-57.346-557.782 187.412-699.155 244.801-141.373 557.911-57.56 699.284 187.326 141.33 244.801 57.431 557.868-187.369 699.284zM912.521 216.776c-127.668-221.16-410.542-297.007-631.745-169.211-221.203 127.668-297.007 410.414-169.253 631.702 127.711 221.203 410.414 297.007 631.702 169.253 221.246-127.711 297.050-410.542 169.296-631.745zM659.326 457.636l-97.903-125.184v345.188h-63.556v-347.072l-102.314 127.368-49.594-39.787 151.908-189.211 31.778-40.086 25.011 31.692 0.043-0.043 6.638 8.565 0.086 0.086 148.011 189.297z" />
<glyph unicode="&#xe91c;" glyph-name="icon28" d="M955.391 703.979c-141.373 244.886-454.483 328.699-699.284 187.326-244.801-141.33-328.785-454.312-187.412-699.155 141.33-244.801 454.526-328.785 699.326-187.455 244.801 141.458 328.699 454.526 187.369 699.284zM743.224 47.522c-221.288-127.711-503.991-51.907-631.745 169.253-127.711 221.288-51.949 504.034 169.253 631.702 221.203 127.754 504.077 51.949 631.745-169.211 127.797-221.16 51.992-503.948-169.253-631.745zM659.326 438.45l-97.903 125.184v-345.188h-63.556v347.072l-102.314-127.368-49.594 39.787 151.908 189.211 31.778 40.086 25.011-31.735 0.043 0.043 6.638-8.523 0.086-0.086 148.011-189.297z" />
<glyph unicode="&#xe91d;" glyph-name="icon29" d="M256.064 891.348c-244.843-141.33-328.656-454.44-187.326-699.284 141.373-244.801 454.354-328.785 699.155-187.412 244.801 141.33 328.785 454.526 187.455 699.326-141.416 244.843-454.483 328.742-699.284 187.369zM912.563 679.224c127.711-221.288 51.907-504.034-169.253-631.745-221.288-127.711-504.034-51.949-631.702 169.253-127.797 221.203-51.949 504.077 169.211 631.745 221.16 127.797 503.948 51.949 631.745-169.253zM521.636 595.283l-125.184-97.86h345.188v-63.598h-347.072l127.368-102.272-39.787-49.594-189.211 151.865-40.086 31.821 31.735 25.011-0.043 0.043 8.523 6.638 0.086 0.086 189.297 148.011z" />
<glyph unicode="&#xe91e;" glyph-name="icon30" d="M68.695 703.979c-141.33-244.801-57.346-557.996 187.455-699.326 244.801-141.373 557.782-57.389 699.155 187.412 141.373 244.843 57.56 557.911-187.326 699.284-244.758 141.373-557.825 57.474-699.284-187.369zM743.267 848.478c221.16-127.668 297.007-410.542 169.211-631.745-127.668-221.203-410.414-297.007-631.702-169.253-221.16 127.711-297.007 410.414-169.253 631.745 127.797 221.203 410.585 297.050 631.745 169.253zM502.45 595.283l125.184-97.86h-345.188v-63.598h347.072l-127.368-102.272 39.787-49.594 189.211 151.865 40.086 31.821-31.692 25.011 0.043 0.043-8.565 6.638-0.086 0.086-189.297 148.011z" />
<glyph unicode="&#xe91f;" glyph-name="icon31" horiz-adv-x="981" d="M683.080 291.298c5.734-6.162 10.612-11.596 15.747-16.86 87.038-88.493 174.119-176.686 261.071-265.093 5.221-5.349 10.826-10.398 15.020-16.646 15.148-22.594 1.327-53.361-25.119-56.399-10.184-1.070-19.342 1.84-27.001 8.473-5.007 4.493-9.671 9.457-14.464 14.121-86.567 87.765-173.177 175.531-259.744 263.125-6.248 6.248-12.623 12.495-19.427 19.299-7.959-5.135-14.72-9.5-21.396-13.95-64.187-42.15-134.793-64.23-211.304-64.358-104.625-0.214-195.857 36.116-271.983 108.134-68.038 64.444-108.99 143.908-120.886 236.68-27.558 213.615 110.145 396.292 299.669 441.394 189.951 45.188 376.95-56.014 451.407-230.518 58.41-136.804 36.202-293.507-57.341-409.429-4.621-5.691-9.157-11.468-14.25-17.972zM393.51 236.225c31.495 0.257 62.433 4.408 92.644 13.608 208.394 64.316 297.144 314.902 169.925 498.606-100.56 145.32-297.272 182.634-443.448 81.817-99.362-68.381-158.671-191.278-135.392-326.713 25.333-147.459 155.119-267.875 316.272-267.318z" />
<glyph unicode="&#xe920;" glyph-name="icon32" horiz-adv-x="981" d="M283.836 309.27c-93.542 115.922-115.751 272.624-57.341 409.429 74.457 174.504 261.456 275.663 451.407 230.518 189.566-45.102 327.226-227.779 299.754-441.351-11.896-92.772-52.847-172.236-120.886-236.68-76.126-72.061-167.357-108.348-271.983-108.134-76.468 0.128-147.117 22.209-211.304 64.358-6.675 4.45-13.437 8.815-21.396 13.95-6.804-6.804-13.18-13.051-19.427-19.299-86.567-87.637-173.177-175.402-259.744-263.125-4.793-4.664-9.457-9.628-14.464-14.121-7.66-6.633-16.817-9.585-27.001-8.473-26.445 3.038-40.224 33.805-25.119 56.399 4.194 6.248 9.799 11.297 15.020 16.646 86.909 88.407 173.99 176.6 261.071 265.093 5.135 5.221 10.013 10.698 15.747 16.86-5.135 6.462-9.714 12.238-14.335 17.93zM903.97 503.543c23.279 135.435-36.073 258.332-135.349 326.713-146.176 100.86-342.931 63.545-443.448-81.775-127.262-183.704-38.47-434.291 169.925-498.606 30.168-9.243 61.106-13.394 92.601-13.608 161.153-0.599 290.896 119.816 316.272 267.276z" />
<glyph unicode="&#xe921;" glyph-name="icon33" d="M724.992 286.72c124.885 161.408 110.592 394.325-39.893 538.923-161.067 154.88-417.28 149.888-572.203-11.264-154.837-161.109-149.845-417.323 11.307-572.245 150.4-144.597 383.659-149.632 540.032-18.56l298.197-286.677 60.715 63.189-298.155 286.635zM633.216 314.112c-121.131-125.952-322.219-129.92-448.256-8.747-125.995 121.131-129.963 322.219-8.832 448.256s322.219 129.963 448.299 8.832c125.952-121.131 129.963-322.261 8.789-448.341zM229.845 563.285h347.648v-70.144h-347.648v70.144z" />
<glyph unicode="&#xe922;" glyph-name="icon34" d="M910.251 814.379c-154.88 161.109-411.093 166.144-572.245 11.264-150.4-144.597-164.693-377.515-39.851-538.923l-298.155-286.592 60.715-63.189 298.24 286.677c156.331-131.072 389.547-126.037 539.989 18.56 161.152 154.88 166.187 411.093 11.307 572.203zM838.229 305.365c-125.995-121.173-327.125-117.205-448.256 8.747-121.173 126.080-117.205 327.211 8.789 448.341 126.037 121.131 327.125 117.205 448.256-8.832 121.173-126.037 117.205-327.125-8.789-448.256zM654.592 702.037h-70.144v-138.752h-138.752v-70.144h138.752v-138.752h70.144v138.752h138.752v70.144h-138.752z" />
<glyph unicode="&#xe923;" glyph-name="icon35" d="M990.208 790.784c-6.016 3.84-10.752 1.024-15.616-0.341-59.136-16.853-118.272-33.621-177.408-50.517-241.493-68.864-482.987-137.771-724.437-206.805-7.296-2.091-15.403-2.603-21.376-7.339-0.128-1.493-0.256-2.091-0.128-2.688s0.299-1.408 0.768-1.792c61.525-60.587 123.136-121.259 184.747-181.888 1.365-1.28 3.243-2.091 5.973-3.797 5.675 3.499 11.776 7.125 17.707 10.965 177.451 116.139 354.816 232.405 532.309 348.544 4.395 2.901 8.576 6.059 13.227 8.448 9.131 4.949 18.048 3.243 22.699-3.84 4.693-7.168 2.901-16.299-4.992-22.4-5.163-3.968-10.795-7.381-16.213-11.008-175.787-115.157-351.531-230.272-527.275-345.472-7.637-4.907-15.147-10.112-22.101-14.677-2.304-17.365-2.475-180.949-0.299-198.955 3.925-2.005 5.888 1.28 8.021 3.413 12.245 11.819 24.235 23.808 36.523 35.669 3.243 3.2 6.699 6.4 10.667 8.533 6.315 3.413 15.061 0.981 19.413-4.693 4.011-5.248 4.352-12.8 0.341-18.219-2.304-3.2-5.163-6.059-7.936-8.747-22.357-22.101-44.757-44.075-67.2-66.219-2.773-2.688-5.589-5.547-8.832-7.637-9.941-6.656-22.016-1.963-24.491 9.728-1.323 6.315-1.109 12.971-1.152 19.499-0.043 66.773-0.043 133.632-0.043 200.32 0 5.973-0.213 11.861 0 17.707 0.256 6.912-1.664 12.885-7.125 17.365-2.987 2.645-5.589 5.547-8.405 8.32-63.915 62.933-127.915 125.739-191.915 188.672-4.181 4.096-8.704 8.021-12.16 12.757-6.571 8.832-3.499 20.096 6.443 24.533 4.181 1.792 8.661 2.987 13.056 4.224 289.28 82.603 578.603 165.12 867.84 247.68 33.963 9.643 67.968 19.285 101.931 28.843 4.992 1.408 10.197 2.816 15.317 2.944 7.851 0.299 14.336-4.992 14.805-12.8 0.725-12.373 0.981-24.917-0.341-37.163-0.555-5.333-4.992-10.496-8.32-15.232-24.789-35.371-49.835-70.613-74.752-105.856-139.563-197.12-279.168-394.283-418.773-591.445-4.139-5.845-8.064-12.032-12.843-17.365-6.571-7.253-14.891-7.637-22.784-1.621-3.584 2.816-6.827 6.144-10.069 9.387-58.368 57.387-116.736 114.731-175.104 172.117-2.816 2.773-5.717 5.504-8.149 8.533-5.504 7.040-5.163 15.445 0.64 21.291 5.717 5.76 14.421 6.315 21.419 1.109 4.181-3.115 7.808-7.040 11.563-10.667 27.563-27.051 55.125-54.187 82.645-81.195 24.32-23.936 48.512-47.829 72.832-71.637 3.627-3.627 7.595-6.827 11.349-10.155 12.459 12.587 355.2 494.293 489.941 688.469 2.944 4.181 5.376 8.704 8.064 13.099z" />
<glyph unicode="&#xe924;" glyph-name="icon36" d="M1021.867 61.312c0 80.768 0 161.493 0 242.219 0 4.309 0.171 8.533-0.256 12.757-1.792 17.877-16.725 31.403-34.347 31.317-17.707-0.171-32.555-13.739-34.176-31.531-0.512-5.419-0.256-10.965-0.256-16.384 0-64.939 0.043-129.963-0.085-194.859 0-6.528 1.109-13.227-1.877-20.437-3.584-0.384-7.168-0.981-10.624-1.067-93.355-2.56-850.645-1.024-870.741 1.963-0.171 7.552-0.512 14.123-0.512 20.693-0.043 64.384 0 128.725-0.043 193.024 0 6.656-0.384 13.355-0.811 20.011-0.725 12.587-13.184 27.52-32.939 28.459-16.085 0.768-30.976-11.179-33.963-27.179-1.067-5.931-1.195-12.075-1.195-18.133-0.043-80.128-0.043-160.256-0.043-240.427 0-4.224-0.085-8.491 0.341-12.715 2.005-18.901 14.464-30.976 33.28-32.171 3.627-0.256 7.296-0.128 10.923-0.128 310.869 0 621.611 0 932.437 0.043 4.864 0 9.771-0.256 14.635 0.341 16.683 1.963 28.672 14.677 30.123 31.403 0.299 4.224 0.128 8.533 0.128 12.8zM329.429 585.771c4.139 3.456 7.637 7.765 11.264 11.861 41.472 46.805 82.859 93.653 124.373 140.416 2.603 2.859 4.267 7.509 10.069 7.083 2.304-6.4 1.195-13.099 1.195-19.584 0.085-109.909 0.085-219.776 0.085-329.643 0-45.525-0.085-91.093 0.043-136.661 0-6.528 0.341-13.355 1.963-19.755 4.096-16.043 19.968-26.667 35.627-24.875 16.939 2.005 29.227 14.251 30.635 30.933 0.469 5.461 0.299 10.88 0.299 16.384 0 64.341 0 128.725 0 193.024 0 91.093 0 182.187 0.043 273.195 0 5.845-0.768 11.776 1.323 18.944 6.827-3.328 10.112-8.448 13.995-12.757 40.576-45.909 81.195-91.861 121.856-137.771 3.584-4.096 7.125-8.32 11.392-11.691 11.307-8.875 27.307-9.685 39.381-2.475 12.587 7.467 18.517 21.035 15.829 35.84-1.536 8.192-6.741 14.080-12.032 19.968-64.811 73.173-129.963 145.963-193.963 219.861-19.456 22.4-44.885 21.547-63.317 0.256-63.232-72.917-127.659-144.853-191.616-217.173-3.2-3.627-6.613-7.125-9.301-11.179-5.12-7.765-7.893-16.256-5.461-25.856 6.4-25.387 36.139-35.2 56.32-18.347z" />
<glyph unicode="&#xe925;" glyph-name="icon37" horiz-adv-x="1015" d="M161.543 569.274v390.726h-69.562v-390.726c-52.993-15.202-91.981-63.498-91.981-121.36s38.987-106.115 91.981-121.317v-390.683h69.562v390.683c52.993 15.202 91.981 63.456 91.981 121.317s-38.987 106.158-91.981 121.36zM126.783 390.694c-31.557 0-57.221 25.749-57.221 57.221 0 31.557 25.664 57.221 57.221 57.221s57.178-25.664 57.178-57.221c0-31.472-25.621-57.221-57.178-57.221zM507.687 960c-69.989 0-126.783-56.751-126.783-126.783 0-57.862 39.030-106.115 91.981-121.36v-775.985h69.519v775.985c52.993 15.202 92.023 63.456 92.023 121.36 0.043 70.032-56.751 126.783-126.74 126.783zM507.687 775.996c-31.514 0-57.178 25.664-57.178 57.221s25.664 57.221 57.178 57.221c31.557 0 57.264-25.664 57.264-57.221s-25.707-57.221-57.264-57.221zM923.436 184.015v775.985h-69.562v-775.985c-52.951-15.202-92.023-63.498-92.023-121.403 0-70.032 56.794-126.74 126.826-126.74s126.74 56.709 126.74 126.74c-0.043 57.904-38.987 106.201-91.981 121.403zM888.677 5.477c-31.6 0-57.221 25.621-57.221 57.136 0 31.6 25.621 57.264 57.221 57.264 31.514 0 57.178-25.664 57.178-57.264-0.043-31.514-25.664-57.136-57.178-57.136z" />
<glyph unicode="&#xe926;" glyph-name="icon38" d="M282.496 578.944c-15.531 29.269-31.531 58.325-46.72 87.723-11.819 22.955-23.467 46.123-33.877 69.76-33.536 75.819 3.029 146.517 50.347 187.563 16.939 14.763 37.163 18.048 59.136 11.264 29.099-8.96 45.781-28.971 53.077-57.643 1.792-7.083 2.987-14.293 3.968-21.461 5.12-38.485 19.712-73.472 41.557-105.003 15.104-21.888 31.701-43.008 49.579-62.72 26.709-29.483 51.285-60.459 73.899-93.056 21.12-30.592 41.899-61.44 63.104-91.989 9.173-13.269 18.347-26.709 28.757-38.997 14.976-17.621 33.365-21.461 54.571-12.075 8.021 3.541 15.744 8.491 22.4 14.165 20.736 17.408 44.203 25.856 71.381 25.472 32.384-0.469 64.768 0 97.109-0.128 39.595-0.128 79.232 0 118.869-0.853 22.443-0.512 28.672-7.339 29.909-29.227 0.213-4.011 0.085-8.064 0.085-12.117 0-151.253 0.043-302.549 0-453.803 0-6.4 0.128-13.056-0.853-19.328-2.688-16.896-11.349-25.984-28.373-28.501-11.136-1.664-22.571-1.749-33.877-1.621-61.44 1.024-122.837 2.219-184.277 3.456-10.539 0.256-20.992 0.469-31.488 1.451-24.491 2.304-42.453 13.995-52.181 37.419-1.579 4.139-2.261 9.899-9.344 9.856-1.451-1.451-3.328-2.816-4.779-4.693-19.541-24.96-45.824-37.888-76.843-41.387-16.811-1.963-33.835-3.115-50.731-3.2-29.909-0.171-59.819 1.067-89.771 1.067-89.771 0.128-179.541-0.213-269.355-0.043-15.275 0-30.72 0.64-45.909 2.816-38.4 5.632-62.677 27.861-72.277 65.536-2.603 10.112-4.437 20.608-4.821 31.104-0.384 11.008-3.584 19.755-10.667 28.459-18.816 23.125-25.301 50.219-20.949 79.616 1.792 11.947 4.48 23.808 7.040 35.627 1.451 6.997 3.456 13.952 5.376 21.589-21.461 18.773-31.488 42.795-35.456 70.016-4.053 27.691-1.536 54.613 9.003 80.512-16.043 22.059-19.712 46.507-19.072 72.064 0.128 4.821 0.299 9.685 0.555 14.507 3.371 60.757 43.264 102.272 104.107 107.648 18.517 1.621 37.12 2.56 55.723 2.773 33.963 0.427 67.968 0.085 101.931 0.256 7.893 0 15.744 0.555 25.728 0.981-2.347 6.571-3.499 11.136-5.589 15.147zM59.307 349.141c-4.949-9.216-10.368-18.389-13.995-28.16-8.917-24.192-4.224-46.251 13.611-64.896 7.211-7.552 15.616-13.995 23.637-20.736 4.224-3.541 8.832-6.741 14.336-10.923-3.968-5.845-7.552-10.965-10.923-16.171-25.429-39.296-21.291-74.88 12.416-106.752 2.944-2.688 6.059-5.291 9.941-8.789-0.725-5.035-1.536-10.496-2.261-15.915-1.579-11.179-4.181-22.229-4.352-33.451-0.341-20.779 10.496-34.987 29.355-43.179 12.757-5.461 26.155-8.192 40.064-8.32 14.549-0.128 29.099-0.128 43.648-0.128 114.816-0.128 229.675-0.341 344.491-0.213 14.421 0.043 29.056 1.195 43.349 3.413 18.219 2.859 32.597 12.971 44.757 27.008 12.075 13.909 24.875 27.392 41.259 45.269-2.603-4.395-2.091-3.669-1.707-2.901 0.341 0.725 0.725 1.493 0.725 2.304 0.256 104.277 0.469 208.555 0.683 312.832 0 5.717-0.171 11.307-0.427 16.981-0.043 1.536-0.64 3.115-1.152 4.565-0.256 0.853-0.811 1.451-1.792 3.371-5.589 0.213-11.989 0.768-18.389 0.811-33.365 0.427-61.696 12.8-83.371 37.973-12.587 14.592-23.339 30.933-33.536 47.36-11.947 19.2-22.357 39.296-33.536 59.008-24.448 43.264-54.357 81.792-91.392 115.413-54.443 49.493-87.637 111.275-98.56 184.448-1.963 13.227-6.741 24.917-15.701 34.773-8.789 9.643-16.768 11.435-27.819 4.651-7.467-4.565-14.933-9.984-20.608-16.64-31.36-36.949-42.325-78.037-19.883-123.349 19.456-39.040 40.491-77.312 60.885-115.883 4.907-9.259 10.539-18.176 15.275-27.563 3.243-6.443 5.845-13.312 8.107-20.139 7.424-22.485-3.029-42.325-23.893-51.84-17.92-8.149-37.035-11.307-56.533-12.075-38.827-1.621-77.611-2.731-116.352-4.779-12.843-0.64-25.941-2.091-38.229-5.504-29.867-8.235-48.341-28.757-55.723-58.411-5.803-23.253-1.493-45.056 15.104-63.36 6.443-7.125 13.312-13.824 20.395-21.163-4.309-6.656-8.448-12.672-11.904-18.944z" />
<glyph unicode="&#xe927;" glyph-name="icon39" d="M288.085 321.067c-9.941 0.427-17.835 0.939-25.728 0.981-33.963 0.128-67.925-0.213-101.931 0.256-18.603 0.256-37.205 1.152-55.723 2.731-60.843 5.419-100.736 46.933-104.107 107.691-0.256 4.821-0.427 9.685-0.555 14.507-0.683 25.6 3.029 50.048 19.072 72.064-10.496 25.941-13.013 52.864-8.96 80.597 3.968 27.179 13.952 51.2 35.413 69.973-1.92 7.637-3.925 14.592-5.376 21.589-2.56 11.819-5.248 23.68-7.040 35.627-4.352 29.397 2.091 56.491 20.949 79.616 7.083 8.704 10.283 17.451 10.667 28.459 0.384 10.453 2.219 20.949 4.779 31.104 9.6 37.675 33.877 59.904 72.277 65.536 15.189 2.219 30.635 2.816 45.909 2.816 89.856 0.171 179.627-0.171 269.355-0.043 29.952 0 59.861 1.237 89.771 1.067 16.896-0.085 33.963-1.237 50.731-3.2 31.019-3.499 57.301-16.427 76.843-41.387 1.451-1.877 3.328-3.243 4.779-4.693 7.083-0.043 7.765 5.76 9.344 9.856 9.728 23.424 27.648 35.115 52.181 37.419 10.496 0.981 20.949 1.195 31.488 1.451 61.44 1.237 122.837 2.432 184.277 3.456 11.307 0.128 22.741 0.043 33.877-1.621 17.024-2.517 25.728-11.605 28.373-28.501 0.939-6.272 0.853-12.928 0.853-19.328 0.043-151.253 0-302.549 0-453.803 0-4.053 0.128-8.064-0.085-12.117-1.237-21.845-7.467-28.715-29.909-29.227-39.637-0.853-79.275-0.683-118.869-0.853-32.384-0.128-64.768 0.341-97.109-0.128-27.179-0.384-50.645 8.064-71.381 25.472-6.656 5.632-14.379 10.624-22.4 14.165-21.205 9.387-39.637 5.504-54.571-12.075-10.411-12.288-19.584-25.728-28.757-39.040-21.205-30.549-41.984-61.397-63.104-91.989-22.656-32.597-47.189-63.531-73.899-93.013-17.835-19.712-34.432-40.832-49.579-62.763-21.845-31.531-36.437-66.517-41.557-105.003-0.939-7.168-2.133-14.421-3.968-21.504-7.253-28.544-23.936-48.555-53.035-57.515-22.016-6.784-42.197-3.541-59.179 11.264-47.317 41.045-83.84 111.701-50.347 187.563 10.453 23.68 22.059 46.848 33.877 69.76 15.189 29.44 31.189 58.496 46.72 87.765 2.133 4.011 3.285 8.533 5.632 15.019zM71.168 516.821c-7.083-7.339-13.952-14.037-20.395-21.163-16.555-18.347-20.864-40.107-15.104-63.36 7.381-29.611 25.856-50.133 55.723-58.411 12.331-3.413 25.387-4.821 38.229-5.504 38.741-2.005 77.525-3.115 116.352-4.736 19.541-0.811 38.613-3.925 56.533-12.075 20.864-9.515 31.317-29.355 23.936-51.84-2.304-6.869-4.907-13.696-8.107-20.181-4.736-9.387-10.368-18.261-15.275-27.563-20.395-38.528-41.429-76.843-60.885-115.883-22.443-45.355-11.52-86.4 19.84-123.349 5.675-6.656 13.141-12.075 20.651-16.683 11.008-6.741 18.987-4.992 27.861 4.779 8.96 9.856 13.739 21.547 15.701 34.773 10.923 73.259 44.117 135.040 98.603 184.533 36.992 33.621 66.944 72.149 91.392 115.413 11.136 19.669 21.589 39.851 33.536 59.008 10.197 16.427 20.949 32.768 33.536 47.36 21.675 25.173 50.005 37.547 83.371 37.973 6.357 0.043 12.8 0.597 18.389 0.811 0.981 1.877 1.536 2.517 1.792 3.371 0.555 1.451 1.109 3.029 1.152 4.565 0.256 5.675 0.427 11.307 0.427 16.981-0.213 104.277-0.427 208.555-0.683 312.832 0 0.811-0.384 1.579-0.725 2.304-0.384 0.768-0.896 1.451 1.707-2.901-16.384 17.877-29.184 31.317-41.259 45.269-12.16 14.037-26.539 24.107-44.757 27.008-14.293 2.219-28.928 3.371-43.349 3.413-114.816 0.128-229.675-0.085-344.491-0.213-14.549 0-29.141 0-43.648-0.128-13.909-0.128-27.307-2.859-40.064-8.32-18.901-8.235-29.739-22.443-29.397-43.221 0.171-11.221 2.773-22.315 4.309-33.493 0.725-5.419 1.536-10.88 2.261-15.915-3.883-3.499-6.997-6.101-9.941-8.789-33.664-31.872-37.845-67.456-12.416-106.752 3.413-5.205 6.955-10.325 10.923-16.171-5.461-4.139-10.069-7.339-14.293-10.88-8.021-6.784-16.427-13.227-23.68-20.779-17.792-18.645-22.528-40.704-13.568-64.896 3.627-9.771 9.003-18.944 13.995-28.16 3.413-6.315 7.552-12.288 11.819-19.029z" />
<glyph unicode="&#xe928;" glyph-name="icon40" d="M511.957 960c-282.766 0-511.957-229.191-511.957-511.914 0-282.68 229.191-511.872 511.957-511.872 282.68 0 511.914 229.191 511.914 511.872 0.043 282.723-229.234 511.914-511.914 511.914zM511.957-14.405c-255.080 0-462.576 207.453-462.576 462.49s207.496 462.533 462.576 462.533c254.994 0 462.533-207.496 462.533-462.533s-207.496-462.49-462.533-462.49zM509.261 778.906c-50.751 0-93.285-16.774-127.561-50.323-34.319-33.634-51.607-73.687-51.863-120.287h65c-0.3 30.082 10.313 56.057 31.794 78.009s48.996 32.907 82.545 32.907c33.591 0 60.892-10.955 81.946-32.907 20.968-21.952 31.537-48.44 31.537-79.635 0-17.844-3.423-34.062-10.142-48.697-6.675-14.635-12.795-24.776-18.186-30.425-5.392-5.691-18.101-16.646-38.127-32.907-19.984-16.218-32.094-26.787-36.458-31.623-7.018-5.991-16.475-16.304-28.371-30.895-20.497-26.017-30.938-61.748-31.195-107.193v-5.734h64.915v3.295c0 20.839 3.808 38.341 11.34 52.42 5.392 14.036 12.153 25.119 20.24 33.206 8.045 8.173 21.652 20.069 40.866 35.774 19.427 15.662 30.553 24.862 33.249 27.643 2.696 2.696 11.596 12.538 26.745 29.612 11.126 15.662 18.914 31.281 23.493 46.728 4.365 19.513 6.504 39.668 6.504 60.464 0 48.183-17.031 88.664-51.050 121.399-34.062 32.778-76.426 49.167-127.219 49.167zM497.494 257.407c-11.083 0-20.668-3.937-28.799-11.725-8.088-7.874-12.281-17.673-12.581-29.612 0.3-11.896 4.45-21.952 12.581-30.040 8.13-7.874 17.758-11.81 28.884-11.982 11.040-0.086 20.839 3.937 29.227 11.982 8.387 8.088 12.581 18.144 12.581 30.040 0 11.425-4.194 21.139-12.581 29.227-8.43 8.088-18.186 12.11-29.312 12.11z" />
<glyph unicode="&#xe929;" glyph-name="icon41" horiz-adv-x="768" d="M766.591 835.352c-2.349 0.683-4.356 1.665-6.448 1.751-4.911 0.299-9.822 0.214-14.775 0.214-53.591 0-107.225-0.043-160.817 0.043-5.765 0-11.957-1.495-18.362 2.733 0 12.939 0.47 25.963-0.171 39.030-2.135 52.182-43.684 81.647-82.287 80.835-16.44-0.342-32.881-0.043-49.236-0.043-49.791 0-99.582-0.342-149.33 0.085-47.656 0.427-83.91-38.944-82.97-83.44 0.171-8.242 0.128-16.398 0-24.596-0.085-4.27-0.598-8.54-0.939-13.366-3.331-0.47-5.936-1.11-8.54-1.153-5.509-0.214-10.974-0.128-16.44-0.128-52.481 0-105.048 0.043-157.529-0.043-5.808-0.043-11.999 1.537-17.679-2.733-1.068-12.512-1.922-24.895 0.854-38.219 12.725-0.342 25.109-0.726 39.073-1.11 0.641-5.893 1.281-10.163 1.537-14.519 2.818-51.328 5.765-102.656 8.37-153.984 2.69-51.926 5.039-103.852 7.644-155.692 1.11-23.017 2.519-45.905 3.672-68.879 3.032-56.837 6.021-113.631 8.967-170.339 2.007-38.859 4.185-77.59 6.192-116.449 1.623-30.020 2.904-60.082 4.398-90.102 0.299-6.021 1.068-12.042 1.58-18.020 3.032-31.045 29.080-63.199 65.121-69.092 8.583-1.409 17.38-1.964 26.091-2.050 140.576-0.043 281.194-0.043 421.813-0.043 3.245 0 6.533-0.043 9.822 0 55.086 1.665 81.775 45.82 82.116 81.348 0.384 28.354 2.519 56.794 4.014 85.191 2.69 51.883 5.765 103.809 8.37 155.692 2.818 54.659 5.252 109.318 7.9 163.891 1.068 22.419 2.263 44.837 3.502 67.213 2.776 51.328 5.594 102.656 8.284 154.027 2.477 47.528 4.697 95.098 7.217 142.626 0.128 3.032 1.281 6.064 2.178 9.779 6.619 0 12.683-0.171 18.661 0.043 5.85 0.214 11.957-1.153 18.277 1.665 1.281 12.683 1.409 25.066-0.128 37.834zM243.446 875.748c0.171 5.423 0.555 11.188 2.477 16.099 6.106 15.586 17.551 24.682 34.589 25.92 3.801 0.256 7.644 0.128 11.487 0.128 61.278 0 122.555 0 183.833 0 4.398 0 8.754 0.128 13.11-0.214 18.661-1.495 33.649-16.312 35.4-35.016 0.427-4.356 0.256-8.754 0.256-13.11 0.043-9.822 0-19.6 0-30.276-15.501-2.519-264.028-2.648-279.785-0.299-0.47 2.733-1.281 5.808-1.409 8.882-0.214 9.266-0.342 18.575 0.043 27.885zM686.14 785.006c-2.135-43.684-4.398-87.454-6.662-131.096-1.196-24.041-2.562-48.125-3.758-72.124-2.648-55.171-5.082-110.343-7.943-165.557-2.776-55.726-5.893-111.453-8.797-167.137-3.032-57.904-6.064-115.809-8.967-173.67-0.769-14.22-1.068-28.482-1.793-42.66-0.427-7.089-0.811-14.22-1.964-21.223-3.117-19.003-17.935-32.24-37.066-33.436-4.356-0.214-8.754-0.043-13.152-0.043-140.576 0-281.194 0-421.813 0-3.288 0-6.576 0.128-9.822 0-19.131-1.153-40.524 15.33-41.122 40.268-0.342 14.22-1.58 28.354-2.349 42.574-1.452 29.465-2.733 59.015-4.27 88.522-2.818 54.104-5.808 108.122-8.711 162.226-1.238 22.333-2.477 44.752-3.544 67.171-2.648 53.506-5.082 107.055-7.815 160.603-2.648 50.303-5.594 100.521-8.327 150.739-1.623 30.618-2.989 61.192-4.398 91.767-0.214 3.843-0.085 7.601-0.085 12.213 20.284 2.69 446.751 3.672 589.291 1.623 3.715-0.085 7.473-0.512 12.085-0.769 0.384-3.801 1.11-6.918 0.982-9.992zM402.896 713.907c-12.981 0.043-25.365 1.196-37.621-0.555-0.811-2.562-1.665-4.099-1.665-5.594 0-213.981 0-427.919 0.043-641.9 0-1.495 0.939-2.989 1.665-5.21 12.384-1.879 24.725-1.665 38.987 0 0.171 8.028 0.512 14.519 0.512 20.967 0.043 203.604 0.043 407.166 0.043 610.728 0 3.843 0.128 7.686-0.128 11.487-0.214 3.075-1.11 6.149-1.836 10.078zM534.291 714.932c-2.989 0.128-6.021-1.196-9.266-1.879-0.641-11.786-0.939-22.632-1.665-33.564-3.886-60.082-8.028-120.121-11.615-180.161-3.929-61.662-7.387-123.367-11.103-185.029-1.196-20.198-2.519-40.439-3.758-60.637-2.776-42.574-5.594-85.148-8.455-127.765-0.939-15.757-2.135-31.6-2.861-47.442-0.256-5.765-2.263-11.914 1.879-17.807 11.829-0.854 23.785-1.665 37.877-2.69 0.641 8.028 1.281 13.921 1.665 19.857 1.495 25.664 2.818 51.285 4.441 76.992 3.801 60.039 7.943 120.079 11.7 180.161 3.801 61.662 7.302 123.367 11.017 185.072 1.196 20.198 2.477 40.354 3.801 60.637 2.648 40.909 5.423 81.86 8.028 122.769 0.128 2.946-0.897 6.106-1.452 9.523-10.676 0.683-20.454 1.58-30.233 1.964zM275.173 204.64c-3.843 61.107-7.43 122.257-11.145 183.449-1.196 19.686-2.562 39.329-3.801 58.972-2.818 43.172-5.85 86.259-8.583 129.388-2.605 41.464-4.868 83.013-7.473 124.477-0.299 4.142-1.58 8.199-2.562 12.683-13.494-0.342-26.048 1.11-38.432-3.373 0-6.363-0.342-12.341 0.043-18.277 2.648-41.507 5.679-82.97 8.284-124.434 3.843-61.192 7.43-122.299 11.145-183.492 1.153-19.686 2.519-39.286 3.843-58.972 2.818-43.129 5.765-86.259 8.498-129.388 2.605-41.507 4.911-82.97 7.473-124.52 0.256-4.099 1.58-8.242 2.519-13.195 12.981 0.939 24.853 1.879 38.475 2.818 0 7.473 0.342 13.409-0.043 19.301-2.69 41.549-5.679 83.013-8.242 124.562z" />
<glyph unicode="&#xe92a;" glyph-name="icon42" d="M512 960c-282.79 0-512-229.252-512-512s229.21-512 512-512c282.705 0 512 229.252 512 512s-229.295 512-512 512zM512-1.668c-247.956 0-449.625 201.711-449.625 449.668 0 247.914 201.711 449.625 449.625 449.625s449.625-201.711 449.625-449.625c0-247.956-201.711-449.668-449.625-449.668zM283.563 548.298l228.437-228.352 228.394 228.352h-228.394z" />
<glyph unicode="&#xe92b;" glyph-name="icon43" d="M1024 447.957c0 282.748-229.295 512-512 512-282.79 0-512-229.252-512-512s229.21-512 512-512c282.705 0 512 229.252 512 512zM961.625 447.957c0-247.914-201.711-449.625-449.625-449.625-247.956 0-449.625 201.711-449.625 449.625 0 247.956 201.711 449.668 449.625 449.668s449.625-201.711 449.625-449.668zM283.563 347.702l228.437 228.309 228.394-228.309h-228.394z" />
<glyph unicode="&#xe92c;" glyph-name="icon44" d="M512 959.957c-282.748 0-512-229.295-512-512 0-282.79 229.252-512 512-512s512 229.21 512 512c0 282.705-229.252 512-512 512zM512 897.582c247.914 0 449.625-201.711 449.625-449.625 0-247.956-201.711-449.668-449.625-449.668-247.956 0-449.668 201.711-449.668 449.668 0 247.914 201.711 449.625 449.668 449.625zM612.255 219.52l-228.309 228.437 228.309 228.394v-228.394z" />
<glyph unicode="&#xe92d;" glyph-name="icon45" d="M0 447.957c0-282.79 229.252-512 512-512s512 229.21 512 512c0 282.705-229.252 512-512 512s-512-229.295-512-512zM961.668 447.957c0-247.956-201.711-449.668-449.668-449.668-247.914 0-449.625 201.711-449.625 449.668 0 247.914 201.711 449.625 449.625 449.625 247.956 0 449.668-201.711 449.668-449.625zM411.745 219.52l228.309 228.437-228.309 228.394v-228.394z" />
<glyph unicode="&#xe92e;" glyph-name="icon46" d="M0.299 31.872h317.355l194.773 226.091 194.731-226.091h317.355l-353.408 410.283 353.749 410.667-0.725 0.597h-316.16l-195.541-227.029-195.584 227.029h-316.16l-0.683-0.597 353.749-410.667z" />
<glyph unicode="&#xe92f;" glyph-name="icon47" d="M0 832.043h1013.973v-170.667h-1013.973v170.667zM0 524.8h1013.973v-170.667h-1013.973v170.667zM0 217.557h1013.973v-170.667h-1013.973v170.667z" />
</font>
</defs>
</svg>
