<?xml version="1.0" standalone="no"?>
<!DOCTYPE svg PUBLIC "-//W3C//DTD SVG 1.1//EN" "http://www.w3.org/Graphics/SVG/1.1/DTD/svg11.dtd" >
<svg xmlns="http://www.w3.org/2000/svg">
<metadata></metadata>
<defs>
<font id="nothssansno2-regularregular" horiz-adv-x="868" >
<font-face units-per-em="2048" ascent="1653" descent="-395" />
<missing-glyph horiz-adv-x="716" />
<glyph horiz-adv-x="0" />
<glyph horiz-adv-x="0" />
<glyph unicode="&#xd;" horiz-adv-x="682" />
<glyph unicode=" "  horiz-adv-x="716" />
<glyph unicode="&#x09;" horiz-adv-x="716" />
<glyph unicode="&#xa0;" horiz-adv-x="716" />
<glyph unicode="!" horiz-adv-x="573" d="M184 72q0 44 31 72q31 30 71 30t72 -30q31 -30 31 -72q0 -44 -31 -74q-32 -30 -72 -29q-40 -1 -71 29t-31 74zM190 1427h193l-33 -1110h-127z" />
<glyph unicode="&#x22;" horiz-adv-x="673" d="M131 1427h154l-25 -516h-104zM389 1427h154l-25 -516h-104z" />
<glyph unicode="#" horiz-adv-x="1202" d="M96 459v127h213l62 241h-183v127h215l56 220h141l-57 -220h241l58 220h139l-55 -220h180v-127h-213l-62 -241h185v-127h-215l-58 -221h-141l57 221h-241l-58 -221h-141l57 221h-180zM449 586h241l64 241h-244z" />
<glyph unicode="$" horiz-adv-x="1196" d="M133 317l150 70q77 -212 262 -256v582q-164 73 -250 161t-86 232t94 242q96 93 242 108v197h131v-201q204 -30 303 -217l-135 -70q-59 108 -168 135v-479q215 -95 307 -189t92 -262t-104 -272q-103 -109 -295 -121v-196h-131v201q-298 40 -412 335zM369.5 1112.5 q0.5 -83.5 40.5 -132.5t135 -99v428q-80 -9 -128 -61t-47.5 -135.5zM676 125q190 14 231 178q8 31 8 66q0 105 -58 166t-181 118v-528z" />
<glyph unicode="%" horiz-adv-x="1583" d="M115 1138q0 132 94 226t225.5 94t225.5 -94t94 -226q0 -130 -94 -224t-225.5 -94.5t-225.5 93t-94 225.5zM250 1138q0 -80 52 -137t130 -57t133 55q53 59 53 139t-53 138q-54 57 -131 57t-131 -57q-53 -58 -53 -138zM254 0l924 1427h157l-923 -1427h-158zM829 288 q0 132 93 228q95 92 227 92t227 -92q92 -96 92 -228t-92 -227q-95 -92 -227 -92t-227 92q-93 95 -93 227zM965 288q1 -80 53 -137t130 -57t130 58q55 56 55 136t-53 138t-131 58t-131 -58t-53 -138z" />
<glyph unicode="&#x26;" horiz-adv-x="1595" d="M127 457q0 295 285 430q-60 111 -60 217q0 150 101 250t259 100t255 -92q98 -92 98 -218q0 -124 -68 -192h500v-147h-276v-78q0 -278 -80 -455l245 -272h-204l-125 139q-153 -170 -397 -170t-390 135q-143 137 -143 353zM287 457q0 -160 98 -248q95 -92 264 -92 q201 0 301 139q-64 70 -176 195q-163 175 -176 192q-17 14 -39 41q-23 28 -25 30t-12 15t-24 31q-211 -94 -211 -303zM512 1104q0 -56 28 -122t66 -115q38 -48 90 -105l326 -359q39 124 39 324v78h-305v98q67 13 112 71t45 140t-58 138q-59 55 -139 55t-142 -53t-62 -150z " />
<glyph unicode="'" horiz-adv-x="415" d="M131 1427h154l-25 -516h-104z" />
<glyph unicode="(" horiz-adv-x="684" d="M137 633q0 575 463 983l76 -82q-387 -381 -387 -901t387 -901l-76 -82q-463 408 -463 983z" />
<glyph unicode=")" horiz-adv-x="684" d="M8 -268q387 381 387 901t-387 901l76 82q463 -408 463 -983t-463 -983z" />
<glyph unicode="*" horiz-adv-x="876" d="M133 1169l43 115l213 -90l-10 233h121l-13 -233l215 90l41 -115l-225 -69l156 -176l-96 -74l-140 192l-139 -192l-94 74l153 176z" />
<glyph unicode="+" d="M127 641v141h229v254h156v-254h229v-141h-229v-252h-156v252h-229z" />
<glyph unicode="," horiz-adv-x="475" d="M-33 -262l185 489h202l-258 -489h-129z" />
<glyph unicode="-" d="M127 469v141h614v-141h-614z" />
<glyph unicode="." horiz-adv-x="466" d="M132 88q0 44 30 73t72 29t72 -29t30 -73t-30 -73t-72 -29t-72 29t-30 73z" />
<glyph unicode="/" horiz-adv-x="946" d="M43 -279l639 1760h145l-643 -1760h-141z" />
<glyph unicode="0" horiz-adv-x="1216" d="M123 714q0 238 6 306q18 188 156 311q135 127 323 127t324 -127q137 -122 155 -311q7 -79 7 -306t-7 -306q-18 -186 -155 -314q-140 -125 -324 -125t-323 125q-138 129 -156 314q-6 68 -6 306zM274 714q0 -228 7 -296q12 -130 106 -214t221 -83.5t223 84.5q93 84 105 213 q6 58 6 296t-6 296q-12 129 -105 213q-96 84 -223 84.5t-221 -83.5t-106 -214q-7 -68 -7 -296z" />
<glyph unicode="1" horiz-adv-x="698" d="M119 1280v147h356v-1427h-160v1280h-196z" />
<glyph unicode="2" horiz-adv-x="1110" d="M27 0l671 821q105 126 105 232t-74 180q-77 74 -181 74q-104 1 -177 -75q-74 -76 -74 -179h-158q0 165 120 285t292 120t292 -120t120 -285q0 -44 -6 -82q-18 -111 -123 -240l-480 -584h643v-147h-970z" />
<glyph unicode="3" horiz-adv-x="1230" d="M63 276l142 54q39 -98 137 -154q102 -55 252 -55t256 92q104 94 104 240t-106 243q-112 97 -268 97t-265 -41l453 528h-571v147h897l-441 -507h2q187 0 319 -137t132 -340t-148 -339q-150 -135 -378 -135q-188 0 -324 84q-140 81 -193 223z" />
<glyph unicode="4" horiz-adv-x="1251" d="M113 317l532 1110h172l-455 -962h533v311h160v-776h-160v317h-782z" />
<glyph unicode="5" horiz-adv-x="1208" d="M98 260l138 66q46 -94 135 -150q88 -55 198 -55q149 0 256 104t107 250t-107 250t-256 104q-237 0 -368 -137l131 735h661v-147h-526l-57 -324q80 25 159 25q215 1 365 -149t149 -360q0 -210 -151 -357q-152 -146 -363 -146q-151 -1 -279 79t-192 212z" />
<glyph unicode="6" horiz-adv-x="1234" d="M123 471q0 97 45 195q58 114 106 182t385 579h191l-328 -487q56 12 117 12q189 0 333 -139t144 -346t-146 -353t-350 -145t-350 147t-147 355zM285 468q0 -148 96 -249q97 -98 237 -98t246 100q101 107 101 245t-101 241q-104 100 -248 100t-235 -98q-96 -93 -96 -241z " />
<glyph unicode="7" horiz-adv-x="1204" d="M115 1280v147h1018l-689 -1427h-176l617 1280h-770z" />
<glyph unicode="8" horiz-adv-x="1191" d="M119 432q0 142 71 248q69 97 183 145q-146 103 -146 259q1 156 109 266q108 108 260 108t260 -108t109 -266q0 -156 -146 -259q112 -47 182 -145q72 -107 72 -248q0 -190 -138 -326t-339 -136t-339 136t-138 326zM279 432q0 -131 94 -219q92 -92 223 -92t223 92 q94 88 94 219t-94 219q-92 92 -223 92t-223 -92q-94 -88 -94 -219zM385 1090q0 -90 61.5 -154t149.5 -64t150 64t61 154q1 88 -61 152t-150 65q-88 0 -149.5 -63.5t-61.5 -153.5z" />
<glyph unicode="9" horiz-adv-x="1212" d="M121 966q0 204 141 349q142 143 348 143t344 -141t138 -344q0 -77 -33 -163t-69 -148q-36 -61 -107 -166l-328 -496h-190l350 516q-65 -18 -123 -18q-183 0 -327 132t-144 336zM272 972q0 -134 97 -235q97 -98 243 -98t240 94q88 102 88 238t-96 237q-100 99 -238 99 t-237 -99q-97 -102 -97 -236z" />
<glyph unicode=":" horiz-adv-x="466" d="M131 234q0 42 31 73q32 29 72 29t71 -29q31 -31 31 -73t-31 -74q-31 -29 -71 -29t-72 29q-31 32 -31 74zM131 798q0 42 31 74q32 29 72 29t71 -29q31 -32 31 -74t-31 -73q-31 -29 -71 -29t-72 29q-31 31 -31 73z" />
<glyph unicode=";" horiz-adv-x="548" d="M10 -229l172 456h203l-240 -456h-135zM172 798q0 42 31 74q31 29 71 29t72 -29q31 -32 31 -74t-31 -73q-32 -29 -72 -29t-71 29q-31 31 -31 73z" />
<glyph unicode="&#x3c;" horiz-adv-x="929" d="M63 729l719 457v-160l-467 -297l467 -295v-160z" />
<glyph unicode="=" horiz-adv-x="954" d="M127 487v142h700v-142h-700zM127 823v142h700v-142h-700z" />
<glyph unicode="&#x3e;" horiz-adv-x="927" d="M147 274v160l465 297l-465 297v158l717 -455z" />
<glyph unicode="?" horiz-adv-x="1191" d="M147 1038q1 172 127 296t314 124t314 -121t126 -299q0 -77 -16 -149q-17 -57 -58 -115q-56 -63 -66 -73t-82 -68q-71 -58 -101 -88t-50 -82q-28 -52 -28 -129v-8h-160v14q1 168 77 264q44 54 70 76q16 18 90 78t94 81t45 75t25 120q0 115 -78 196t-202 81t-204 -81 t-79 -192h-158zM457 72q1 44 31 73t71 29t72 -30t31 -72q0 -44 -31 -74t-72 -29.5t-71 29.5q-30 30 -31 74z" />
<glyph unicode="@" horiz-adv-x="1726" d="M119 590q1 200 93 368t267 279q174 106 383 106q302 -1 524 -205t222 -505q0 -210 -84 -322q-79 -110 -235 -110t-208 137q-89 -109 -231 -109q-142 1 -244 103t-102 256t102 256t240 102t215 -90v72h139v-469q0 -90 39 -115q30 -14 59 -14t52 8t54 34q64 51 64 277 q0 225 -178 395t-430 170q-250 0 -426 -180t-176 -434t176 -436q177 -180 428 -180q149 0 283 79l65 -122q-160 -86 -350 -86q-190 -1 -356 91q-167 92 -279 267q-106 177 -106 377zM641 589q0 -96 59 -161q60 -63 154 -63t154 65q63 60 62.5 158t-60.5 162t-155 63 q-95 0 -155 -63q-59 -65 -59 -161z" />
<glyph unicode="A" horiz-adv-x="1517" d="M113 0l645 1479l647 -1479h-174l-154 352h-643l-153 -352h-168zM498 500h516l-258 606z" />
<glyph unicode="B" horiz-adv-x="1273" d="M229 0v1427h416q163 -1 273 -103t110 -261q0 -102 -48 -177t-134 -110q138 -26 212 -122t75 -232q0 -182 -125 -302t-310 -120h-469zM389 147h299h3q119 0 200 77q82 78 82 194t-80 194q-82 76 -207 76h-297v-541zM389 831h246q101 0 167 64q66 65 66 161t-64 160 t-167 64h-248v-449z" />
<glyph unicode="C" horiz-adv-x="1538" d="M137 712q-1 320 215 531t538 211t535 -242l-108 -98q-166 193 -426 193t-428 -168q-166 -172 -166 -426t166 -426q169 -168 431 -168t429 200l109 -98q-216 -250 -540 -250t-540 211q-216 210 -215 530z" />
<glyph unicode="D" horiz-adv-x="1568" d="M229 0v1427h459q342 0 540 -196q197 -196 197 -516q0 -324 -197 -520q-196 -195 -538 -195h-461zM389 147h289h4q285 0 434 153q150 154 150 414t-150 412q-150 154 -440 154h-287v-1133z" />
<glyph unicode="E" horiz-adv-x="1124" d="M229 0v1427h725v-147h-565v-453h526v-147h-526v-533h580v-147h-740z" />
<glyph unicode="F" horiz-adv-x="1077" d="M229 0v1427h664v-147h-504v-461h453v-147h-453v-672h-160z" />
<glyph unicode="G" horiz-adv-x="1728" d="M137 712q-1 320 215 531t529 211q193 0 364 -94q170 -100 262 -258l-133 -76q-71 130 -201 206q-128 75 -288 75h-4h-3q-248 0 -415 -169q-168 -170 -168 -425t168 -425q167 -169 409 -169h3q244 1 390 139t167 373h-467v147h622q4 -28 4 -68q0 -336 -197 -537 q-198 -202 -512 -202t-530 211q-216 210 -215 530z" />
<glyph unicode="H" horiz-adv-x="1570" d="M229 0v1427h160v-596h793v596h159v-1427h-159v684h-793v-684h-160z" />
<glyph unicode="I" horiz-adv-x="634" d="M238 0v1427h159v-1427h-159z" />
<glyph unicode="J" horiz-adv-x="716" d="M70 -10v151q50 -20 112 -20t100 40q36 41 46 95t10 131v1040h160v-1034q0 -243 -76 -336q-34 -34 -94 -60t-128 -26t-130 19z" />
<glyph unicode="K" horiz-adv-x="1388" d="M229 0v1427h160v-757l686 757h197l-570 -622l586 -805h-192l-500 688l-207 -225v-463h-160z" />
<glyph unicode="L" horiz-adv-x="1097" d="M229 0v1427h160v-1280h588v-147h-748z" />
<glyph unicode="M" horiz-adv-x="1841" d="M229 0v1470l691 -981l692 981v-1470h-160v1001l-532 -761l-531 761v-1001h-160z" />
<glyph unicode="N" horiz-adv-x="1619" d="M229 0v1479l1002 -1131v1079h160v-1478l-1002 1130v-1079h-160z" />
<glyph unicode="O" horiz-adv-x="1761" d="M137 712q-1 320 215 531t528 211t528 -211t216 -531t-216 -530q-216 -211 -528 -211t-528 211q-216 210 -215 530zM295 713q0 -255 168 -425q166 -169 414 -169h3q250 0 418 168q166 172 166 426t-166 426q-168 168 -418 168h-3q-248 0 -414 -169q-168 -170 -168 -425z " />
<glyph unicode="P" horiz-adv-x="1173" d="M229 0v1427h389q178 -1 300 -119t122 -295t-122 -296q-123 -117 -300 -117h-229v-600h-160zM389 748h223q119 0 191 75q78 75 78 191t-78 190q-73 76 -191 76h-223v-532z" />
<glyph unicode="Q" horiz-adv-x="1761" d="M137 712q-1 320 215 531t528 211t528 -211t216 -532t-221 -533l147 -178h-190l-72 88q-184 -117 -407 -117q-313 0 -529 211q-216 210 -215 530zM295 713q0 -255 168 -425q167 -169 415 -169h3q170 0 311 84l-342 411h188l267 -319q159 169 159 421t-166 423 q-168 168 -418 168h-3q-248 0 -414 -169q-168 -170 -168 -425z" />
<glyph unicode="R" horiz-adv-x="1202" d="M229 0v1427h387q177 0 302 -116q124 -118 124 -294q0 -175 -120 -289t-293 -114h-21l475 -614h-190l-469 614h-35v-614h-160zM389 754h221q120 0 196 76q77 77 77 188q0 110 -77 186t-196 76h-221v-526z" />
<glyph unicode="S" horiz-adv-x="1208" d="M125 313l137 64q108 -258 359 -258q93 0 153 28q60 23 89 73t34 79q10 29 10 72q0 116 -71 177.5t-257 143.5t-276 166t-90 239t110 256t281 101q263 0 385 -227l-137 -70q-80 150 -250 150q-97 0 -164 -58q-65 -59 -65 -145q0 -50 16 -96q20 -41 70 -74q60 -45 205 -111 q212 -92 311 -188q92 -95 92 -266t-117 -285q-119 -113 -332 -113q-168 0 -300 85t-193 257z" />
<glyph unicode="T" horiz-adv-x="1060" d="M102 1280v147h856v-147h-348v-1280h-159v1280h-349z" />
<glyph unicode="U" horiz-adv-x="1507" d="M219 500v927h160v-911q0 -193 100.5 -293t274.5 -100t274 100t100 293v911h160v-927q0 -251 -147 -389q-148 -137 -387 -137h-2q-238 0 -385 138q-148 138 -148 388z" />
<glyph unicode="V" horiz-adv-x="1454" d="M113 1427h172l442 -1073l442 1073h172l-614 -1478z" />
<glyph unicode="W" horiz-adv-x="2021" d="M96 1427h168l320 -1007l432 1057l414 -1053l325 1003h168l-477 -1482l-434 1099l-449 -1095z" />
<glyph unicode="X" horiz-adv-x="1419" d="M127 0l479 739l-450 688h178l377 -579l374 579h172l-448 -690l483 -737h-180l-410 627l-405 -627h-170z" />
<glyph unicode="Y" horiz-adv-x="1355" d="M98 1427h176l408 -684l403 684h172l-497 -841v-586h-160v586z" />
<glyph unicode="Z" horiz-adv-x="1390" d="M106 0l893 1280h-733v147h1024l-893 -1280h865v-147h-1156z" />
<glyph unicode="[" horiz-adv-x="710" d="M213 -395v1822h461v-147h-301v-1528h301v-147h-461z" />
<glyph unicode="\" horiz-adv-x="946" d="M94 1481h142l643 -1760h-142z" />
<glyph unicode="]" horiz-adv-x="710" d="M37 -248h301v1528h-301v147h461v-1822h-461v147z" />
<glyph unicode="^" horiz-adv-x="1146" d="M88 717l485 764l486 -764h-162l-324 512l-325 -512h-160z" />
<glyph unicode="_" horiz-adv-x="688" d="M37 -254h614v-141h-614v141z" />
<glyph unicode="`" horiz-adv-x="1183" d="M360 1427h203l109 -297h-121z" />
<glyph unicode="a" horiz-adv-x="1185" d="M125 288q0 150 108 228q107 81 322 96q158 12 216 38t58 102q-1 76 -55 123t-166 47q-165 0 -278 -146l-105 86q139 201 383 201q170 -1 272 -87t101 -235v-551q-1 -38 15 -56t28 -19q10 -4 43 -4h18v-109q-36 -22 -104 -22q-111 0 -131 120q-110 -131 -352 -131 q-165 1 -269 85t-104 234zM276 288q0 -177 260 -177q134 0 212 65q81 60 81 172v184q-42 -45 -268 -63q-139 -12 -213 -51q-72 -44 -72 -130z" />
<glyph unicode="b" horiz-adv-x="1310" d="M158 0v1427h151v-548q113 184 367 184q222 0 371 -158q151 -154 151 -389t-151 -389q-149 -158 -371 -158q-138 1 -228 53t-139 132v-154h-151zM400 226q110 -115 272 -115t270 114q105 117 105 291t-105 291q-108 115 -270 115t-272 -116q-110 -115 -110 -289 q0 -175 110 -291z" />
<glyph unicode="c" horiz-adv-x="1140" d="M113 516q0 236 159 389q158 158 394 158t387 -156l-92 -106q-117 121 -293 121t-291 -115q-113 -116 -113 -291t113 -291q115 -114 291 -114t293 120l92 -106q-151 -156 -387 -156t-394 158q-159 153 -159 389z" />
<glyph unicode="d" horiz-adv-x="1310" d="M113 516q0 235 151 389q149 158 371 158q253 0 366 -184v548h152v-1427h-152v154q-49 -80 -139 -132t-227 -53q-222 0 -371 158q-151 154 -151 389zM264 516q0 -174 105 -291q108 -114 270 -114h3q159 0 268 115q110 116 110 290t-110 290t-271 116t-270 -115 q-105 -117 -105 -291z" />
<glyph unicode="e" horiz-adv-x="1210" d="M113 504v8q-1 248 145 400q145 151 362 151h3q219 0 348 -150q133 -145 133 -364q0 -46 -2 -66h-838q6 -172 107 -270q99 -102 262 -102q106 1 176 35t141 108l101 -98q-165 -183 -407 -183t-386 146q-145 142 -145 385zM274 616h668q0 126 -93 216t-228 90t-236 -91 q-102 -85 -111 -215z" />
<glyph unicode="f" horiz-adv-x="722" d="M104 891v141h166v86q0 199 101 281q68 59 211 59q49 0 80 -8v-143q-45 10 -107 10t-100 -41q-33 -45 -33 -137v-107h194v-141h-194v-891h-152v891h-166z" />
<glyph unicode="g" horiz-adv-x="1310" d="M113 523.5q0 231.5 151 385.5t371 154q253 0 366 -184v153h152v-860q0 -198 -29 -314t-135 -200q-139 -109 -348 -109q-269 0 -489 158l77 121q189 -137 410 -137h4q159 0 258 81q100 82 100 314v86q-113 -184 -366 -184q-220 0 -371 152t-151 383.5zM264 526 q0 -170 105 -284q107 -113 270 -113h3q161 0 269 113q109 114 109 284t-111 281q-106 115 -270 115q-163 0 -269 -113t-106 -283z" />
<glyph unicode="h" horiz-adv-x="1155" d="M158 0v1427h151v-569q42 88 123 137q80 54 195 54q169 -1 269 -107t101 -283v-659h-151v627q0 127 -68 204q-70 76 -191 76h-3q-119 0 -196 -81q-78 -82 -79 -210v-616h-151z" />
<glyph unicode="i" horiz-adv-x="471" d="M133 1306q0 42 31 74q32 29 72 29t71 -29q31 -32 31 -74t-31 -73q-31 -29 -71 -29t-72 29q-31 31 -31 73zM160 0v1032h151v-1032h-151z" />
<glyph unicode="j" horiz-adv-x="466" d="M-57 -279q34 -6 71 -6q79 0 109 41q35 38 35 138v1138h151v-1138q0 -320 -311 -320q-23 0 -55 4v143zM131 1302q0 42 31 74q32 29 72 29t71 -29q31 -32 31 -74t-31 -73q-31 -29 -71 -29t-72 29q-31 31 -31 73z" />
<glyph unicode="k" horiz-adv-x="1036" d="M158 0v1427h151v-905l443 510h174l-391 -452l446 -580h-180l-363 471l-129 -149v-322h-151z" />
<glyph unicode="l" horiz-adv-x="614" d="M160 260v1167h151v-1157v-6q0 -79 27 -115q28 -38 88 -38t88 8v-142q-31 -8 -80 -8t-86 11q-40 6 -88 34q-100 60 -100 246z" />
<glyph unicode="m" horiz-adv-x="1724" d="M158 0v1032h151v-174q39 89 113 137q72 54 178 54q221 0 303 -205q94 205 330 205q159 0 251 -107t93 -283v-659h-152v627q0 128 -61 204t-171.5 76t-182.5 -82t-72 -209v-616h-152v627q0 131 -61 204q-58 76 -167 76q-109 -1 -179 -81t-70 -210v-616h-151z" />
<glyph unicode="n" horiz-adv-x="1171" d="M158 0v1032h151v-174q42 88 129 137q83 54 203 54q177 0 281 -107q102 -108 102 -283v-659h-152v627q0 128 -72 204t-198 76q-128 0 -211 -80q-82 -82 -82 -211v-616h-151z" />
<glyph unicode="o" horiz-adv-x="1323" d="M113 516q0 236 159 389q158 158 390 158t389 -158q159 -153 159 -389t-159 -389q-157 -158 -389 -158t-390 158q-159 153 -159 389zM264 516q0 -175 113 -291q115 -114 285 -114t284 114q113 116 113 291t-113 291q-114 115 -284 115t-285 -115q-113 -116 -113 -291z" />
<glyph unicode="p" horiz-adv-x="1310" d="M158 -395v1427h151v-153q113 184 367 184q222 0 371 -158q151 -154 151 -389t-151 -389q-149 -158 -371 -158q-138 1 -228 53t-139 132v-549h-151zM400 226q110 -115 272 -115t270 114q105 117 105 291t-105 291q-108 115 -270 115t-272 -116q-110 -115 -110 -289 q0 -175 110 -291z" />
<glyph unicode="q" horiz-adv-x="1310" d="M113 516q0 235 151 389q149 158 371 158q253 0 366 -184v153h152v-1427h-152v549q-49 -80 -139 -132t-227 -53q-222 0 -371 158q-151 154 -151 389zM264 516q0 -174 105 -291q108 -114 270 -114h3q159 0 268 115q110 116 110 290t-110 290t-271 116t-270 -115 q-105 -117 -105 -291z" />
<glyph unicode="r" horiz-adv-x="821" d="M158 0v1032h151v-174q42 88 123 137q80 54 195 54q18 0 63 -5v-163q-45 10 -102 10h-3q-120 0 -197 -81q-78 -82 -79 -210v-600h-151z" />
<glyph unicode="s" horiz-adv-x="929" d="M78 223l129 49q21 -64 85 -110q65 -45 179 -45h5q118 1 168 49t50 116t-55 111q-57 37 -199 93t-213 124q-71 66 -71 182t86 195q92 76 225 76q211 0 299 -178l-123 -64q-56 103 -174 103q-70 0 -116 -34t-46 -98t50 -100q51 -38 193 -94t220 -131q76 -76 76 -195 t-96 -209q-98 -88 -264 -88t-273 66q-105 61 -135 182z" />
<glyph unicode="t" horiz-adv-x="712" d="M102 891v141h121v395h152v-395h239v-141h-239v-602q0 -102 35 -137q28 -41 96 -41t108 6v-137q-53 -11 -95 -11q-113 0 -191 51q-47 28 -78 99q-27 76 -27 170v602h-121z" />
<glyph unicode="u" horiz-adv-x="1157" d="M145 399v633h152v-618q1 -145 75 -221t204 -76t208 76q76 79 76 223v616h152v-618q0 -210 -122 -324t-315 -115q-193 0 -313 111q-117 111 -117 313z" />
<glyph unicode="v" horiz-adv-x="1130" d="M72 1032h157l336 -758l338 758h156l-494 -1104z" />
<glyph unicode="w" horiz-adv-x="1611" d="M72 1032h145l279 -729l309 801l309 -801l279 729h145l-424 -1104l-309 801l-309 -801z" />
<glyph unicode="x" horiz-adv-x="1132" d="M92 0l393 549l-360 483h168l272 -366l273 366h168l-359 -481l393 -551h-166l-307 432l-309 -432h-166z" />
<glyph unicode="y" horiz-adv-x="1114" d="M72 1032h151l340 -870l328 870h151l-467 -1208q-44 -115 -100 -174q-78 -78 -201 -78q-58 0 -102 18v140q48 -17 100 -17t90 23q44 33 82 125l45 116z" />
<glyph unicode="z" horiz-adv-x="1107" d="M33 0l688 891h-578v141h861l-691 -891h662v-141h-942z" />
<glyph unicode="{" horiz-adv-x="733" d="M98 467v98q47 3 92 29q82 49 82 182v389q0 116 70 189t176 73h92v-120h-75q-57 -1 -84 -43t-27 -99v-366q0 -156 -70 -226q-31 -34 -82 -57q51 -23 82 -57q70 -70 70 -226v-366q0 -57 27 -99t84 -42h75v-121h-92q-106 0 -176 73t-70 189v389q0 181 -161 211h-13z" />
<glyph unicode="|" horiz-adv-x="589" d="M219 -51v1530h152v-1530h-152z" />
<glyph unicode="}" horiz-adv-x="733" d="M123 -274h76q57 0 84 41q26 42 26 100v366q0 156 70 226q31 34 82 57q-51 23 -82 57q-70 70 -70 226v366q0 59 -26 101q-27 41 -84 41h-76v120h92q106 0 176 -73t70 -189v-389q0 -133 82 -182q37 -20 80 -29h12v-98q-47 -3 -92 -29q-82 -49 -82 -182v-389 q0 -116 -70 -189t-176 -73h-92v121z" />
<glyph unicode="~" horiz-adv-x="937" d="M98 621q10 81 66 135t132 53q76 0 181 -39q96 -41 148 -41q87 0 114 84l101 -8q-27 -201 -209 -201q-73 0 -176 39q-96 41 -148 41q-87 0 -108 -72z" />
<glyph unicode="&#xa3;" horiz-adv-x="1282" d="M123 0v137h18q95 0 170 28q75 27 110 73t54 102q14 58 14 114t-51 154h-211v148h129q-98 168 -98 282q0 174 123 297t297 123t297 -123t123 -297h-158q0 112 -76 192t-185 81q-109 0 -183 -80q-78 -79 -78 -185t114 -290h314v-148h-236q39 -88 39 -178t-36 -171 q-36 -80 -85 -112h623v-147h-1028z" />
<glyph unicode="&#xa4;" horiz-adv-x="1402" d="M150 213l178 166q-107 127 -107 301t107 305l-178 168l104 102l162 -186q131 96 286 96t289 -96l162 186l104 -102l-180 -166q109 -133 109 -304t-109 -304l180 -168l-104 -100q-103 112 -164 182q-123 -92 -285 -92t-290 96l-160 -186zM365 683q0 -145 100 -247 q99 -102 237 -102t239 101t101 247t-100 248q-102 102 -240 102t-237 -102q-100 -102 -100 -247z" />
<glyph unicode="&#xa5;" horiz-adv-x="1339" d="M90 1427h176l408 -684l403 684h172l-307 -520h244v-147h-332l-106 -180h438v-148h-434v-432h-160v432h-434v148h438l-109 180h-329v147h243z" />
<glyph unicode="&#xa9;" horiz-adv-x="1744" d="M127 713q0 308 219 524q216 219 526 219t527 -219q219 -216 219 -524t-219 -527t-527 -219t-526.5 219t-218.5 527zM217 712q0 -272 194 -467q193 -194 461 -194t462 194q194 195 194 467t-193 468q-195 192 -463 192t-462 -192q-193 -196 -193 -468zM469 724 q0 174 120 292t297 119q177 0 310 -127l-94 -103q-96 90 -214 90q-118 -1 -194 -77t-76 -195t76 -195t196 -77q120 0 212 92l94 -109q-125 -125 -306 -125t-301 120q-120 121 -120 295z" />
<glyph unicode="&#xab;" horiz-adv-x="929" d="M113 518l225 359h160l-226 -359l226 -358h-160zM432 518l225 359h160l-225 -359l225 -358h-160z" />
<glyph unicode="&#xac;" horiz-adv-x="1245" d="M127 782v142h991v-553h-155v411h-836z" />
<glyph unicode="&#xad;" d="M127 469v141h614v-141h-614z" />
<glyph unicode="&#xae;" horiz-adv-x="888" d="M113 1132q0 144 96 234q91 92 231 92t240 -92q96 -94 96 -234t-96 -233q-100 -92 -240 -92t-231 92q-96 89 -96 233zM178 1133.5q0 -117.5 75 -191.5t189 -74t190 74t76.5 191.5t-75.5 193.5q-77 74 -191 74t-189 -75t-75 -192.5zM322 952v375h133q57 0 86 -33 q34 -30 34 -94t-61 -98l90 -150h-82l-82 138h-49v-138h-69zM391 1147h62q20 0 39 16q14 21 14 43t-14 39q-20 17 -39 17h-62v-115z" />
<glyph unicode="&#xaf;" horiz-adv-x="1351" d="M375 1286v141h602v-141h-602z" />
<glyph unicode="&#xb0;" horiz-adv-x="819" d="M139 1164q0 112 78 192q81 78 193 78t192 -78q78 -80 78 -192t-78 -193q-80 -78 -192 -78t-193 78q-78 81 -78 193zM285 1163q0 -57 37 -94q35 -41 88 -41t88 41q37 37 37 94t-37 94q-35 41 -88 41t-88 -41q-37 -37 -37 -94z" />
<glyph unicode="&#xb4;" horiz-adv-x="1183" d="M514 1130l109 297h202l-190 -297h-121z" />
<glyph unicode="&#xb7;" horiz-adv-x="466" d="M131 516q0 42 31 72q32 30 72 30t71 -30t31 -72t-31 -72t-71 -30t-72 30q-31 30 -31 72z" />
<glyph unicode="&#xba;" horiz-adv-x="1015" d="M109 1048q0 166 116 283q118 115 283 115t283 -115q116 -117 116 -283t-116 -282q-118 -115 -283 -115t-283 115q-116 116 -116 282zM244 1048q0 -108 75 -192q81 -80 189 -80t188 80q76 84 76 192t-76 193q-80 80 -188 80t-189 -80q-75 -85 -75 -193z" />
<glyph unicode="&#xbb;" horiz-adv-x="929" d="M113 160l225 358l-225 359h159l226 -359l-226 -358h-159zM432 160l225 358l-225 359h160l225 -359l-225 -358h-160z" />
<glyph unicode="&#xc0;" horiz-adv-x="1517" d="M113 0l645 1479l647 -1479h-174l-154 352h-643l-153 -352h-168zM498 500h516l-258 606zM561 1823h203l108 -297h-120z" />
<glyph unicode="&#xc1;" horiz-adv-x="1517" d="M113 0l645 1479l647 -1479h-174l-154 352h-643l-153 -352h-168zM498 500h516l-258 606zM698 1526l109 297h203l-191 -297h-121z" />
<glyph unicode="&#xc4;" horiz-adv-x="1517" d="M113 0l645 1479l647 -1479h-174l-154 352h-643l-153 -352h-168zM442 1626.5q0 42.5 31 73.5q31 29 71 29t72 -29q31 -31 31 -73.5t-31 -72.5q-32 -30 -72 -30t-71 30t-31 72.5zM498 500h516l-258 606zM864 1626.5q0 42.5 31 73.5q31 29 71 29t72 -29q31 -31 31 -73.5 t-31 -72.5q-32 -30 -72 -30t-71 30t-31 72.5z" />
<glyph unicode="&#xc8;" horiz-adv-x="1124" d="M229 0v1427h725v-147h-565v-453h526v-147h-526v-533h580v-147h-740zM377 1823h203l108 -297h-121z" />
<glyph unicode="&#xc9;" horiz-adv-x="1124" d="M229 0v1427h725v-147h-565v-453h526v-147h-526v-533h580v-147h-740zM510 1526l108 297h203l-190 -297h-121z" />
<glyph unicode="&#xcc;" horiz-adv-x="634" d="M68 1823h202l109 -297h-121zM238 0v1427h159v-1427h-159z" />
<glyph unicode="&#xcd;" horiz-adv-x="634" d="M238 0v1427h159v-1427h-159zM254 1526l108 297h203l-190 -297h-121z" />
<glyph unicode="&#xd2;" horiz-adv-x="1761" d="M137 712q-1 320 215 531t528 211t528 -211t216 -531t-216 -530q-216 -211 -528 -211t-528 211q-216 210 -215 530zM295 713q0 -255 168 -425q167 -170 417 -169q250 0 418 168q166 172 166 426t-166 426q-168 168 -418 168q-250 1 -417 -169q-168 -170 -168 -425z M639 1823h203l108 -297h-121z" />
<glyph unicode="&#xd3;" horiz-adv-x="1761" d="M137 712q-1 320 215 531t528 211t528 -211t216 -531t-216 -530q-216 -211 -528 -211t-528 211q-216 210 -215 530zM295 713q0 -255 168 -425q167 -170 417 -169q250 0 418 168q166 172 166 426t-166 426q-168 168 -418 168q-250 1 -417 -169q-168 -170 -168 -425z M791 1526l108 297h203l-191 -297h-120z" />
<glyph unicode="&#xd6;" horiz-adv-x="1761" d="M137 712q-1 320 215 531t528 211t528 -211t216 -531t-216 -530q-216 -211 -528 -211t-528 211q-216 210 -215 530zM295 713q0 -255 168 -425q167 -170 417 -169q250 0 418 168q166 172 166 426t-166 426q-168 168 -418 168q-250 1 -417 -169q-168 -170 -168 -425z M567 1626.5q0 42.5 31 73.5q32 29 72 29t71 -29q31 -31 31 -73.5t-31 -72.5t-71 -30t-72 30q-31 30 -31 72.5zM989 1626.5q0 42.5 31 73.5q32 29 72 29t71 -29q31 -31 31 -73.5t-31 -72.5t-71 -30t-72 30q-31 30 -31 72.5z" />
<glyph unicode="&#xd7;" d="M119 461l221 221l-221 221l92 94l223 -223l221 223l95 -94l-222 -221l222 -221l-95 -96l-221 223l-223 -223z" />
<glyph unicode="&#xd9;" horiz-adv-x="1507" d="M219 500v927h160v-911q0 -193 100.5 -293t274.5 -100t274 100t100 293v911h160v-927q0 -251 -147 -389q-148 -136 -387 -136.5t-387 137.5t-148 388zM516 1823h203l108 -297h-120z" />
<glyph unicode="&#xda;" horiz-adv-x="1507" d="M219 500v927h160v-911q0 -193 100.5 -293t274.5 -100t274 100t100 293v911h160v-927q0 -251 -147 -389q-148 -136 -387 -136.5t-387 137.5t-148 388zM686 1526l109 297h202l-190 -297h-121z" />
<glyph unicode="&#xdc;" horiz-adv-x="1507" d="M219 500v927h160v-911q0 -193 100.5 -293t274.5 -100t274 100t100 293v911h160v-927q0 -251 -147 -389q-148 -136 -387 -136.5t-387 137.5t-148 388zM440 1626.5q0 42.5 31 73.5q31 29 71 29t72 -29q31 -31 31 -73.5t-31 -72.5q-32 -30 -72 -30t-71 30t-31 72.5z M862 1626.5q0 42.5 31 73.5q31 29 71 29t72 -29q31 -31 31 -73.5t-31 -72.5q-32 -30 -72 -30t-71 30t-31 72.5z" />
<glyph unicode="&#xdf;" horiz-adv-x="1208" d="M156 0v1106q0 151 102 250q100 102 248 102t250 -102t102 -242t-92 -231q128 -23 234 -139t106 -307q0 -192 -139 -331q-140 -137 -357 -137q-32 0 -104 11v155q50 -18 104 -18q136 0 236 95t100 234t-98 230q-96 96 -238 96q-54 0 -104 -18v143q192 37 192 209 q0 85 -57 145t-135 60q-78 1 -134 -59t-57 -146v-1106h-159z" />
<glyph unicode="&#xe0;" horiz-adv-x="1185" d="M125 288q0 150 108 228q107 81 322 96q158 12 216 38t58 102q-1 76 -55 123t-166 47q-165 0 -278 -146l-105 86q139 201 383 201q170 -1 272 -87t101 -235v-551q-1 -38 15 -56t28 -19q10 -4 43 -4h18v-109q-36 -22 -104 -22q-111 0 -131 120q-110 -131 -352 -131 q-165 1 -269 85t-104 234zM276 288q0 -177 260 -177q134 0 212 65q81 60 81 172v184q-42 -45 -268 -63q-139 -12 -213 -51q-72 -44 -72 -130zM344 1427h203l108 -297h-120z" />
<glyph unicode="&#xe1;" horiz-adv-x="1185" d="M125 288q0 150 108 228q107 81 322 96q158 12 216 38t58 102q-1 76 -55 123t-166 47q-165 0 -278 -146l-105 86q139 201 383 201q170 -1 272 -87t101 -235v-551q-1 -38 15 -56t28 -19q10 -4 43 -4h18v-109q-36 -22 -104 -22q-111 0 -131 120q-110 -131 -352 -131 q-165 1 -269 85t-104 234zM276 288q0 -177 260 -177q134 0 212 65q81 60 81 172v184q-42 -45 -268 -63q-139 -12 -213 -51q-72 -44 -72 -130zM508 1130l108 297h203l-190 -297h-121z" />
<glyph unicode="&#xe4;" horiz-adv-x="1185" d="M125 288q0 150 108 228q107 81 322 96q158 12 216 38t58 102q-1 76 -55 123t-166 47q-165 0 -278 -146l-105 86q139 201 383 201q170 -1 272 -87t101 -235v-551q-1 -38 15 -56t28 -19q10 -4 43 -4h18v-109q-36 -22 -104 -22q-111 0 -131 120q-110 -131 -352 -131 q-165 1 -269 85t-104 234zM276 288q0 -177 260 -177q134 0 212 65q81 60 81 172v184q-42 -45 -268 -63q-139 -12 -213 -51q-72 -44 -72 -130zM285 1302q0 44 30 74q32 29 72 29t72 -29q30 -30 30 -74t-30 -73q-32 -29 -72 -29t-72 29q-30 29 -30 73zM707 1302q0 44 30 74 q32 29 72 29t72 -29q30 -30 30 -74t-30 -73q-32 -29 -72 -29t-72 29q-30 29 -30 73z" />
<glyph unicode="&#xe8;" horiz-adv-x="1210" d="M113 504v8q-1 248 145 400t365 151q219 0 348 -150q133 -145 133 -364q0 -46 -2 -66h-838q6 -172 107 -270q99 -102 262 -102q106 1 176 35t141 108l101 -98q-165 -183 -407 -183t-386 146q-145 142 -145 385zM274 616h668q0 126 -93 216t-228 90t-236 -91 q-102 -85 -111 -215zM408 1427h202l109 -297h-121z" />
<glyph unicode="&#xe9;" horiz-adv-x="1210" d="M113 504v8q-1 248 145 400t365 151q219 0 348 -150q133 -145 133 -364q0 -46 -2 -66h-838q6 -172 107 -270q99 -102 262 -102q106 1 176 35t141 108l101 -98q-165 -183 -407 -183t-386 146q-145 142 -145 385zM274 616h668q0 126 -93 216t-228 90t-236 -91 q-102 -85 -111 -215zM569 1130l109 297h203l-191 -297h-121z" />
<glyph unicode="&#xec;" horiz-adv-x="471" d="M-2 1427h203l108 -297h-121zM160 0v1032h151v-1032h-151z" />
<glyph unicode="&#xed;" horiz-adv-x="471" d="M160 0v1032h151v-1032h-151zM164 1130l108 297h203l-190 -297h-121z" />
<glyph unicode="&#xf2;" horiz-adv-x="1323" d="M113 516q0 236 159 389q158 158 390 158t389 -158q159 -153 159 -389t-159 -389q-157 -158 -389 -158t-390 158q-159 153 -159 389zM264 516q0 -175 113 -291q115 -114 285 -114t284 114q113 116 113 291t-113 291q-114 115 -284 115t-285 -115q-113 -116 -113 -291z M408 1427h202l109 -297h-121z" />
<glyph unicode="&#xf3;" horiz-adv-x="1323" d="M113 516q0 236 159 389q158 158 390 158t389 -158q159 -153 159 -389t-159 -389q-157 -158 -389 -158t-390 158q-159 153 -159 389zM264 516q0 -175 113 -291q115 -114 285 -114t284 114q113 116 113 291t-113 291q-114 115 -284 115t-285 -115q-113 -116 -113 -291z M604 1130l109 297h202l-190 -297h-121z" />
<glyph unicode="&#xf6;" horiz-adv-x="1323" d="M113 516q0 236 159 389q158 158 390 158t389 -158q159 -153 159 -389t-159 -389q-157 -158 -389 -158t-390 158q-159 153 -159 389zM264 516q0 -175 113 -291q115 -114 285 -114t284 114q113 116 113 291t-113 291q-114 115 -284 115t-285 -115q-113 -116 -113 -291z M348 1302q0 42 31 74q31 29 71 29t72 -29q31 -32 31 -74t-31 -73q-32 -29 -72 -29t-71 29q-31 31 -31 73zM770 1302q0 42 31 74q31 29 71 29t72 -29q31 -32 31 -74t-31 -73q-32 -29 -72 -29t-71 29q-31 31 -31 73z" />
<glyph unicode="&#xf7;" horiz-adv-x="954" d="M127 641v141h700v-141h-700zM375 996q0 42 31 73q32 29 72 29t71 -29q31 -31 31 -73t-31 -74q-31 -29 -71 -29t-72 29q-31 32 -31 74zM376 428q0 44 30 73t72 29t72 -29t30 -73t-30 -73t-72 -29t-72 29t-30 73z" />
<glyph unicode="&#xf9;" horiz-adv-x="1157" d="M145 399v633h152v-618q1 -145 75 -221t204 -76t208 76q76 79 76 223v616h152v-618q0 -210 -122 -324t-315 -115q-193 0 -313 111q-117 111 -117 313zM336 1427h203l108 -297h-121z" />
<glyph unicode="&#xfa;" horiz-adv-x="1157" d="M145 399v633h152v-618q1 -145 75 -221t204 -76t208 76q76 79 76 223v616h152v-618q0 -210 -122 -324t-315 -115q-193 0 -313 111q-117 111 -117 313zM508 1130l108 297h203l-190 -297h-121z" />
<glyph unicode="&#xfc;" horiz-adv-x="1157" d="M145 399v633h152v-618q1 -145 75 -221t204 -76t208 76q76 79 76 223v616h152v-618q0 -210 -122 -324t-315 -115q-193 0 -313 111q-117 111 -117 313zM266 1302q0 42 31 74q31 29 71 29t72 -29q31 -32 31 -74t-31 -73q-32 -29 -72 -29t-71 29q-31 31 -31 73zM688 1302 q0 42 31 74q31 29 71 29t72 -29q31 -32 31 -74t-31 -73q-32 -29 -72 -29t-71 29q-31 31 -31 73z" />
<glyph unicode="&#xff;" horiz-adv-x="1110" d="M72 1032h151l340 -870l328 870h151l-467 -1208q-44 -115 -100 -174q-78 -78 -201 -78q-58 0 -102 18v140q48 -17 100 -17t90 23q44 33 82 125l45 116zM256 1302q0 42 31 74q31 29 71 29t72 -29q31 -32 31 -74t-31 -73q-32 -29 -72 -29t-71 29q-31 31 -31 73zM678 1302 q0 42 31 74q31 29 71 29t72 -29q31 -32 31 -74t-31 -73q-32 -29 -72 -29t-71 29q-31 31 -31 73z" />
<glyph unicode="&#x2000;" horiz-adv-x="911" />
<glyph unicode="&#x2001;" horiz-adv-x="1823" />
<glyph unicode="&#x2002;" horiz-adv-x="911" />
<glyph unicode="&#x2003;" horiz-adv-x="1823" />
<glyph unicode="&#x2004;" horiz-adv-x="607" />
<glyph unicode="&#x2005;" horiz-adv-x="455" />
<glyph unicode="&#x2006;" horiz-adv-x="303" />
<glyph unicode="&#x2007;" horiz-adv-x="303" />
<glyph unicode="&#x2008;" horiz-adv-x="227" />
<glyph unicode="&#x2009;" horiz-adv-x="364" />
<glyph unicode="&#x200a;" horiz-adv-x="101" />
<glyph unicode="&#x2010;" d="M127 469v141h614v-141h-614z" />
<glyph unicode="&#x2011;" d="M127 469v141h614v-141h-614z" />
<glyph unicode="&#x2012;" d="M127 469v141h614v-141h-614z" />
<glyph unicode="&#x2013;" horiz-adv-x="1278" d="M127 469v141h1024v-141h-1024z" />
<glyph unicode="&#x2014;" horiz-adv-x="2302" d="M127 469v141h2048v-141h-2048z" />
<glyph unicode="&#x202f;" horiz-adv-x="364" />
<glyph unicode="&#x205f;" horiz-adv-x="455" />
<glyph unicode="&#x25fc;" horiz-adv-x="1030" d="M0 0v1030h1030v-1030h-1030z" />
</font>
</defs>
</svg>
